<?xml version="1.0" encoding="UTF-8"?>
<svg id="Layer_2" data-name="Layer 2" xmlns="http://www.w3.org/2000/svg" viewBox="0 0 944.53 712.61">
  <defs>
    <style>
      .cls-1 {
        fill: #fff;
      }

      .cls-1, .cls-2 {
        stroke: #000;
        stroke-miterlimit: 10;
      }

      .cls-3 {
        font-family: Yantramanav-Regular, Yantramanav;
        font-size: 28.57px;
      }

      .cls-4 {
        fill: #d97bef;
      }

      .cls-2 {
        fill: none;
        stroke-width: .25px;
      }

      .cls-5 {
        letter-spacing: 0em;
      }

      .cls-6 {
        letter-spacing: -.03em;
      }

      .cls-7 {
        fill: #797af4;
      }

      .cls-8 {
        fill: #f27979;
      }
    </style>
  </defs>
  <g id="Layer_1-2" data-name="Layer 1">
    <g>
      <path d="M754.08,611.15c7.48,5.87,11.27,11.93,11.27,18.02,0,2.37-.58,4.77-1.73,7.13-1.18,2.42-2.99,4.86-5.38,7.25-14.71,14.75-51.79,28.17-104.41,37.79-53.53,9.79-121.03,15.18-190.07,15.18s-136.54-5.39-190.07-15.18c-52.63-9.62-89.71-23.04-104.41-37.79-2.39-2.41-4.19-4.85-5.36-7.26-1.15-2.37-1.73-4.77-1.73-7.13,0-6.09,3.79-12.15,11.27-18.02,18.66,13.97,55.72,26.01,107.3,34.86,53.01,9.09,116.29,13.9,183.01,13.9s130.02-4.81,183.03-13.9c51.57-8.85,88.64-20.89,107.3-34.86M754.09,609.89c-36.9,28.33-152.92,49.02-290.34,49.02s-253.41-20.69-290.31-49.02c-7.98,6.09-12.26,12.57-12.26,19.28,0,2.55.62,5.07,1.83,7.57,1.24,2.55,3.09,5.05,5.55,7.52,30.4,30.5,151.04,53.26,295.19,53.26s264.77-22.76,295.19-53.26c2.45-2.45,4.33-4.98,5.57-7.52,1.21-2.5,1.83-5.02,1.83-7.57,0-6.71-4.29-13.19-12.26-19.28h0Z"/>
      <path d="M765.36,637.31v6.95c0,8.83-7.82,17.49-23.25,25.73-15.16,8.1-36.89,15.38-64.6,21.63-57.08,12.89-132.99,19.99-213.75,19.99s-156.66-7.1-213.73-19.99c-27.7-6.26-49.43-13.54-64.59-21.63-15.43-8.24-23.25-16.9-23.25-25.73v-6.95c1.27,2.56,3.17,5.13,5.67,7.66,14.99,15.03,52.44,28.65,105.47,38.34,53.65,9.81,121.28,15.21,190.43,15.21s136.79-5.4,190.43-15.21c53.01-9.69,90.47-23.31,105.47-38.34,2.51-2.51,4.42-5.08,5.7-7.66M766.36,629.16c0,2.55-.62,5.07-1.83,7.57-1.24,2.55-3.12,5.07-5.57,7.52-30.43,30.5-151.01,53.26-295.19,53.26s-264.79-22.76-295.19-53.26c-2.45-2.48-4.31-4.98-5.55-7.52-1.21-2.5-1.83-5.02-1.83-7.57v15.09c0,37.76,135.47,68.35,302.57,68.35s302.6-30.59,302.6-68.35v-15.09h0Z"/>
    </g>
    <g>
      <path d="M189.18,555.18c1.76.88,3.62,1.74,5.57,2.57-1.93-.86-3.79-1.71-5.57-2.57h0Z"/>
      <path d="M170.6,559.82c11.35,9.67,32.31,18.82,60.72,26.49,57.74,15.61,142.46,24.56,232.43,24.56s174.69-8.95,232.46-24.56c28.82-7.77,49.24-16.68,60.72-26.49,5.59,5.13,8.42,10.39,8.42,15.64,0,2.37-.58,4.77-1.73,7.13-1.18,2.42-2.99,4.86-5.38,7.25-3.08,3.08-7.13,6.12-12.05,9.02-.6.37-1.23.73-2.01,1.16-.79.44-1.6.89-2.44,1.34l-.13.07-.02.02c-.44.23-.87.46-1.34.69-.76.39-1.55.8-2.37,1.18-2.37,1.18-5.02,2.37-8.13,3.65-.55.24-1.06.46-1.65.68-.77.33-1.41.59-2.03.82-.69.28-1.41.56-2.17.83-.79.32-1.52.59-2.29.85-1.04.39-1.88.7-2.69.97-1.07.4-2.17.77-3.13,1.09-.99.35-2.02.69-3.02,1.02-3.28,1.08-6.32,2.02-9.29,2.88-1.07.33-2.11.63-3.01.88-.79.23-1.6.47-2.43.68l-.34.09-2.04.56c-.38.11-.78.21-1.16.31l-.27.07c-1.24.34-2.58.7-4.01,1.05-.58.16-1.17.3-1.76.45-4.93,1.25-9.54,2.32-14.11,3.31-.93.22-1.86.42-2.85.63l-1.06.22c-1.26.27-2.61.56-3.99.83-3.51.72-7.09,1.42-10.66,2.07-1.18.24-2.43.45-3.66.66-1.56.29-3.1.56-4.94.88-1.66.29-3.33.57-5.04.86-3.05.49-6.66,1.07-10.31,1.62-1.68.28-3.44.54-5.25.78-1.96.3-4.01.59-6.11.86-1.64.24-3.33.45-4.97.67-2.28.31-4.63.61-6.85.88-2.79.36-5.6.7-8.36,1-3.45.38-6.93.76-10.45,1.14-6.33.67-12.18,1.22-17.89,1.69-2,.19-4.02.35-6.08.52-3.94.32-7.79.62-11.68.88-3.71.28-7.76.55-12.37.81-4.62.29-8.72.52-12.56.69-5.05.27-10.48.5-17.6.76-3.83.14-7.74.26-11.64.36-2.26.07-4.59.12-6.66.17-1.56.05-3.18.07-4.76.1-1.89.05-3.81.07-5.7.09l-2.6.03-3.15.04c-2.19.02-4.46.05-6.69.05-2.23.02-4.52.02-6.73.02-6.22,0-11.63-.03-16.56-.1-3.34-.05-6.78-.09-10.14-.17-.37-.01-.74-.02-1.11-.02-.36,0-.72-.01-1.09-.02l-5.69-.14c-2.73-.07-5.56-.14-8.33-.24-1.93-.05-3.86-.12-5.73-.19-9.96-.36-19.87-.84-29.45-1.43-2.57-.15-5.19-.32-7.45-.48-2.75-.17-5.5-.36-8.18-.57-2.1-.14-4.2-.3-6.32-.47-.13-.01-.26-.02-.39-.03-.1,0-.19,0-.31-.02-1.12-.1-2.21-.19-3.31-.29-3.87-.32-7.1-.58-10.39-.9l-2.56-.24c-2.03-.19-4.14-.39-6.2-.61-3.17-.31-5.83-.58-8.51-.88h-.05s-.05,0-.05,0h-.04c-2.59-.29-5.37-.6-8.2-.95-1.35-.16-2.79-.33-4.23-.52-2.72-.33-5.17-.63-7.63-.98-4.4-.56-9.01-1.2-13.69-1.9-2.81-.43-5.57-.86-8.34-1.29-1.29-.19-2.6-.41-3.82-.62-2.21-.35-4.42-.74-6.55-1.11h-.07c-1.23-.22-2.5-.44-3.74-.68-5.02-.88-9.9-1.82-14.53-2.78-1.37-.26-2.72-.55-4-.83-1.32-.26-2.62-.54-3.92-.86-1.29-.26-2.57-.54-3.83-.85-2.19-.49-4.49-1.03-7.49-1.76-1.26-.29-2.48-.6-3.62-.9l-.99-.25c-.89-.22-1.73-.43-2.61-.68-1.11-.27-2.23-.57-3.44-.93-1.93-.5-3.72-1-5.36-1.49l-.4-.11c-.35-.1-.68-.19-.99-.3h-.03s-.04-.02-.04-.02c-.87-.23-1.73-.5-2.58-.76-.95-.27-1.86-.55-2.71-.84h-.04s-.04-.02-.04-.02c-.36-.09-.69-.2-.99-.32h-.04s-.04-.03-.04-.03c-1.72-.54-3.97-1.26-6.18-2.02-1.07-.35-2.04-.68-2.96-1.02-.96-.33-1.92-.69-2.88-1.05-.9-.32-1.83-.66-2.73-1.01-3.83-1.47-7.22-2.9-10.38-4.36-.71-.31-1.49-.68-2.38-1.11-1.79-.84-3.2-1.55-4.46-2.24-.9-.48-1.77-.95-2.59-1.41-.81-.46-1.65-.95-2.46-1.43-.52-.3-1.02-.61-1.56-.96-1.66-1.02-3.25-2.11-4.73-3.23l-.21-.16c-.52-.39-1-.76-1.48-1.15-1.3-1.05-2.48-2.11-3.61-3.23-2.39-2.41-4.19-4.85-5.36-7.26-1.15-2.37-1.73-4.77-1.73-7.13,0-5.25,2.83-10.51,8.42-15.64M756.95,558.49c-11.33,10.02-32.47,19.17-61,26.85-55.52,15-138.92,24.52-232.2,24.52s-176.68-9.52-232.17-24.52c-28.5-7.69-49.66-16.83-61-26.85-6.14,5.43-9.4,11.12-9.4,16.97,0,2.55.62,5.07,1.83,7.57,1.24,2.55,3.09,5.05,5.55,7.52,1.12,1.12,2.33,2.21,3.69,3.31.55.45,1.12.88,1.71,1.33,1.48,1.12,3.07,2.21,4.81,3.29.52.33,1.05.67,1.6.98.79.48,1.62.95,2.45,1.43.86.48,1.71.95,2.62,1.43,1.43.79,2.93,1.52,4.5,2.26.79.38,1.6.76,2.4,1.12,3.24,1.5,6.71,2.95,10.43,4.38.9.36,1.83.69,2.76,1.02.95.36,1.9.71,2.88,1.05.98.36,1.95.69,2.98,1.02,2,.69,4.07,1.36,6.19,2.02.36.14.74.26,1.12.36.9.31,1.83.6,2.76.86.86.26,1.71.52,2.6.76.48.17.95.29,1.45.43,1.74.52,3.55,1.02,5.38,1.5,1.14.33,2.29.64,3.45.93,1.19.33,2.38.62,3.6.93,1.19.31,2.4.62,3.64.9,2.45.6,4.95,1.19,7.5,1.76,1.26.31,2.55.6,3.86.86,1.29.31,2.6.6,3.93.86,1.31.29,2.64.57,4,.83,4.69.98,9.55,1.9,14.55,2.79,1.24.24,2.5.45,3.76.67,2.19.38,4.38.76,6.62,1.12,1.26.21,2.55.43,3.83.62,2.76.43,5.52.86,8.33,1.29,4.48.67,9.07,1.31,13.71,1.9,2.52.36,5.07.67,7.64.98,1.4.19,2.81.36,4.24.52,2.74.33,5.48.64,8.26.95h.1c2.81.31,5.64.6,8.52.88,2.9.31,5.81.57,8.76.86,3.43.33,6.9.62,10.4.9,1.1.1,2.19.19,3.31.29.21.02.45.02.69.05,2.1.17,4.21.33,6.36.48,2.71.21,5.45.4,8.19.57,2.45.17,4.95.33,7.45.48,9.64.6,19.47,1.07,29.47,1.43,1.9.07,3.81.14,5.74.19,2.76.1,5.55.17,8.33.24,1.88.05,3.79.1,5.69.14.71.02,1.45.02,2.19.05,3.38.07,6.79.12,10.19.17,5.48.07,11,.1,16.55.1,2.26,0,4.5,0,6.74-.02,2.24,0,4.48-.02,6.71-.05,1.9-.02,3.83-.05,5.74-.07,1.9-.02,3.81-.05,5.71-.1,1.6-.02,3.19-.05,4.76-.1,2.24-.05,4.45-.1,6.67-.17,3.9-.1,7.79-.21,11.64-.36,5.93-.21,11.81-.45,17.62-.76,4.24-.19,8.43-.43,12.57-.69,4.17-.24,8.29-.5,12.38-.81,3.93-.26,7.83-.57,11.69-.88,2.05-.17,4.07-.33,6.09-.52,6.07-.5,12.02-1.07,17.9-1.69,3.52-.38,7-.76,10.45-1.14,2.83-.31,5.62-.64,8.38-1,2.31-.29,4.59-.57,6.86-.88,1.67-.21,3.33-.43,4.98-.67,2.05-.26,4.09-.55,6.12-.86,1.76-.24,3.52-.5,5.26-.79,3.5-.52,6.93-1.07,10.31-1.62,1.71-.29,3.38-.57,5.05-.86,1.67-.29,3.31-.57,4.95-.88,1.24-.21,2.48-.43,3.67-.67,3.64-.67,7.19-1.36,10.67-2.07,1.36-.26,2.69-.55,4-.83,1.33-.29,2.64-.55,3.93-.86,4.88-1.05,9.59-2.17,14.12-3.31.6-.14,1.19-.29,1.79-.45,1.36-.33,2.69-.69,4-1.05.48-.12.98-.24,1.45-.38.79-.21,1.57-.43,2.36-.64.83-.21,1.64-.45,2.45-.69,1.02-.29,2.02-.57,3.02-.88,3.21-.93,6.33-1.9,9.31-2.88,1.02-.33,2.05-.67,3.05-1.02,1.07-.36,2.12-.71,3.14-1.1.9-.31,1.81-.64,2.69-.98.79-.26,1.55-.55,2.31-.86.74-.26,1.45-.55,2.17-.83.69-.26,1.38-.55,2.05-.83.57-.21,1.12-.45,1.67-.69,2.88-1.19,5.62-2.4,8.17-3.67.81-.38,1.6-.79,2.38-1.19.48-.24.93-.48,1.38-.71.05-.02.1-.05.12-.07.86-.45,1.67-.9,2.48-1.36.69-.38,1.36-.76,2.02-1.17,5-2.95,9.09-6.02,12.24-9.17,2.45-2.45,4.33-4.98,5.57-7.52,1.21-2.5,1.83-5.02,1.83-7.57,0-5.86-3.26-11.55-9.4-16.97h0Z"/>
      <path d="M162.18,583.61c1.27,2.56,3.17,5.13,5.67,7.66,1.18,1.18,2.41,2.29,3.76,3.37.5.41,1,.79,1.53,1.2l.21.16c1.53,1.16,3.17,2.28,4.88,3.33.52.33,1.05.67,1.61.99.71.45,1.53.93,2.46,1.44.99.58,1.84,1.04,2.64,1.44,1.28.7,2.73,1.43,4.55,2.29.91.44,1.71.81,2.42,1.13,3.19,1.48,6.62,2.92,10.48,4.4.91.36,1.86.7,2.78,1.03.94.35,1.91.72,2.89,1.05.93.34,1.91.68,2.98,1.03,1.83.65,3.86,1.32,6.2,2.03.36.14.75.27,1.17.37.87.3,1.8.59,2.75.85.84.26,1.71.52,2.59.76.37.13.73.23,1.09.33l.37.1c1.65.5,3.47,1,5.39,1.5,1.21.35,2.35.66,3.46.93.88.25,1.77.47,2.64.69l.98.25c1.15.3,2.39.61,3.65.91,2.36.6,4.71,1.14,7.51,1.76,1.27.31,2.58.6,3.86.86,1.29.31,2.63.6,3.95.86,1.27.28,2.64.57,4.01.84,4.63.96,9.54,1.9,14.56,2.79,1.25.24,2.53.46,3.8.67,2.15.37,4.37.76,6.6,1.12,1.23.21,2.54.43,3.84.62,2.68.44,5.49.88,8.35,1.29,4.7.7,9.32,1.34,13.72,1.91,2.47.35,4.93.65,7.65.98,1.44.2,2.89.37,4.25.53,2.86.35,5.67.66,8.27.95h.05s.06,0,.06,0h.04c2.67.29,5.32.56,8.47.88,2.83.3,5.79.59,8.77.86,3.3.32,6.53.59,10.41.91,1.1.1,2.19.19,3.29.28.13.01.26.02.4.03.1,0,.2,0,.32.02,2.15.17,4.25.34,6.36.48,2.68.21,5.45.4,8.2.57,2.26.15,4.88.33,7.46.48,9.6.59,19.52,1.07,29.5,1.43,1.87.07,3.8.14,5.74.19,2.78.1,5.6.17,8.34.24l5.68.14c.37.01.74.02,1.11.02.36,0,.72.01,1.09.02,3.35.07,6.78.12,10.1.17h.1c4.91.07,10.33.1,16.56.1,2.21,0,4.51,0,6.74-.02,2.24,0,4.52-.02,6.73-.05l2.6-.03,3.16-.04c1.87-.02,3.8-.05,5.7-.09,1.57-.02,3.19-.05,4.77-.1,2.06-.04,4.4-.09,6.67-.17,3.89-.1,7.82-.22,11.65-.36,7.14-.26,12.57-.49,17.63-.76,3.84-.17,7.96-.4,12.58-.69,4.62-.26,8.68-.53,12.39-.81,3.89-.26,7.75-.57,11.7-.88,2.07-.17,4.1-.34,6.1-.52,5.72-.47,11.58-1.02,17.92-1.69,3.45-.35,6.97-.73,10.46-1.14,2.77-.3,5.6-.64,8.39-1,2.22-.27,4.58-.57,6.86-.88,1.64-.21,3.33-.43,4.98-.67,2.1-.27,4.16-.56,6.13-.86,1.81-.24,3.59-.51,5.27-.79,3.18-.46,6.57-.99,10.33-1.62,1.72-.29,3.38-.57,5.05-.86,1.84-.32,3.39-.59,4.95-.88,1.22-.21,2.49-.43,3.68-.67,3.57-.65,7.16-1.35,10.68-2.07,1.38-.27,2.75-.56,4.02-.84l1.05-.22c.95-.2,1.94-.41,2.88-.63,4.57-.98,9.2-2.07,14.14-3.31.59-.14,1.21-.29,1.79-.45,1.41-.35,2.77-.71,4-1.05l.24-.06c.42-.1.84-.21,1.23-.33l2.34-.64c.86-.22,1.68-.46,2.47-.7.9-.25,1.97-.55,3.03-.88,2.98-.86,6.04-1.81,9.34-2.89,1.01-.33,2.06-.67,3.05-1.03.95-.32,2.07-.7,3.15-1.1.8-.27,1.66-.59,2.68-.97.77-.26,1.54-.54,2.33-.86.75-.27,1.49-.56,2.19-.84.63-.24,1.29-.51,2.04-.83.59-.22,1.16-.47,1.7-.7,3.12-1.29,5.81-2.5,8.21-3.69.83-.39,1.63-.8,2.4-1.2.48-.24.94-.48,1.38-.72.05-.02.12-.06.19-.11.76-.38,1.55-.82,2.44-1.34.78-.43,1.43-.81,2.05-1.18,5.05-2.98,9.23-6.12,12.44-9.32,2.51-2.51,4.42-5.08,5.7-7.66v6.95c0,6.24-3.99,12.47-11.87,18.54-17.93,13.77-55.95,26.18-107.03,34.94-52.9,9.07-116.07,13.87-182.69,13.87s-129.78-4.8-182.67-13.87c-51.09-8.76-89.1-21.17-107.03-34.94-7.88-6.07-11.87-12.3-11.87-18.54v-6.95M766.35,575.46c0,2.55-.62,5.07-1.83,7.57-1.24,2.55-3.12,5.07-5.57,7.52-3.14,3.14-7.24,6.21-12.24,9.17-.67.4-1.33.79-2.02,1.17-.81.48-1.62.93-2.48,1.36-.02.02-.07.05-.12.07-.45.24-.9.48-1.38.71-.79.4-1.57.81-2.38,1.19-2.55,1.26-5.29,2.48-8.17,3.67-.55.24-1.1.48-1.67.69-.67.29-1.36.57-2.05.83-.71.29-1.43.57-2.17.83-.76.31-1.52.6-2.31.86-.88.33-1.79.67-2.69.98-1.02.38-2.07.74-3.14,1.1-1,.36-2.02.69-3.05,1.02-2.98.98-6.09,1.95-9.31,2.88-1,.31-2,.6-3.02.88-.81.24-1.62.48-2.45.69-.79.21-1.57.43-2.36.64-.48.14-.98.26-1.45.38-1.31.36-2.64.71-4,1.05-.6.17-1.19.31-1.79.45-4.52,1.14-9.24,2.26-14.12,3.31-1.29.31-2.6.57-3.93.86-1.31.29-2.64.57-4,.83-3.48.71-7.02,1.4-10.67,2.07-1.19.24-2.43.45-3.67.67-1.64.31-3.29.6-4.95.88-1.67.29-3.33.57-5.05.86-3.38.57-6.81,1.12-10.31,1.62-1.74.29-3.5.55-5.26.79-2.02.31-4.07.6-6.12.86-1.64.24-3.31.45-4.98.67-2.26.31-4.55.6-6.86.88-2.76.36-5.55.69-8.38,1-3.45.4-6.93.79-10.45,1.14-5.88.62-11.83,1.19-17.9,1.69-2.02.19-4.05.36-6.09.52-3.86.31-7.76.62-11.69.88-4.09.31-8.21.57-12.38.81-4.14.26-8.33.5-12.57.69-5.81.31-11.69.55-17.62.76-3.86.14-7.74.26-11.64.36-2.21.07-4.43.12-6.67.17-1.57.05-3.17.07-4.76.1-1.9.05-3.81.07-5.71.1-1.9.02-3.83.05-5.74.07-2.24.02-4.48.05-6.71.05-2.24.02-4.48.02-6.74.02-5.55,0-11.07-.02-16.55-.1-3.4-.05-6.81-.1-10.19-.17-.74-.02-1.48-.02-2.19-.05-1.9-.05-3.81-.1-5.69-.14-2.79-.07-5.57-.14-8.33-.24-1.93-.05-3.83-.12-5.74-.19-10-.36-19.83-.83-29.47-1.43-2.5-.14-5-.31-7.45-.48-2.74-.17-5.48-.36-8.19-.57-2.14-.14-4.26-.31-6.36-.48-.24-.02-.48-.02-.69-.05-1.12-.1-2.21-.19-3.31-.29-3.5-.29-6.98-.57-10.4-.9-2.95-.26-5.88-.55-8.76-.86-2.88-.29-5.71-.57-8.52-.88h-.1c-2.79-.31-5.52-.62-8.26-.95-1.43-.17-2.83-.33-4.24-.52-2.57-.31-5.12-.62-7.64-.98-4.64-.6-9.24-1.24-13.71-1.9-2.81-.4-5.59-.83-8.33-1.29-1.29-.19-2.57-.4-3.83-.62-2.24-.36-4.43-.74-6.62-1.12-1.26-.21-2.52-.43-3.76-.67-5-.88-9.86-1.81-14.55-2.79-1.36-.26-2.69-.55-4-.83-1.33-.26-2.64-.55-3.93-.86-1.31-.26-2.6-.55-3.86-.86-2.55-.57-5.05-1.14-7.5-1.76-1.24-.29-2.45-.6-3.64-.9-1.21-.31-2.4-.6-3.6-.93-1.17-.29-2.31-.6-3.45-.93-1.83-.48-3.64-.98-5.38-1.5-.5-.14-.98-.26-1.45-.43-.88-.24-1.74-.5-2.6-.76-.93-.26-1.86-.55-2.76-.86-.38-.1-.76-.21-1.12-.36-2.12-.64-4.19-1.31-6.19-2.02-1.02-.33-2-.67-2.98-1.02-.98-.33-1.93-.69-2.88-1.05-.93-.33-1.86-.67-2.76-1.02-3.71-1.43-7.19-2.88-10.43-4.38-.81-.36-1.62-.74-2.4-1.12-1.57-.74-3.07-1.48-4.5-2.26-.9-.45-1.76-.93-2.62-1.43-.83-.45-1.67-.93-2.45-1.43-.55-.31-1.07-.64-1.6-.98-1.74-1.07-3.33-2.17-4.81-3.29-.6-.45-1.17-.88-1.71-1.33-1.36-1.1-2.57-2.19-3.69-3.31-2.45-2.48-4.31-4.98-5.55-7.52-1.21-2.5-1.83-5.02-1.83-7.57v15.09c0,6.71,4.29,13.19,12.26,19.33,36.9,28.33,152.92,49.02,290.31,49.02s253.43-20.69,290.34-49.02c7.98-6.14,12.26-12.62,12.26-19.33v-15.09h0Z"/>
    </g>
    <g>
      <path d="M189.18,555.18c1.76.88,3.62,1.74,5.57,2.57-1.93-.86-3.79-1.71-5.57-2.57h0Z"/>
      <path d="M173.45,508.39c11.9,8.9,31.37,17.04,57.87,24.2,57.74,15.61,142.46,24.56,232.43,24.56s174.69-8.95,232.46-24.56c26.48-7.12,45.94-15.26,57.87-24.2,7.48,5.87,11.27,11.93,11.27,18.02,0,2.37-.58,4.77-1.73,7.13-1.18,2.42-2.99,4.86-5.38,7.25-1.25,1.25-2.59,2.43-4.01,3.54-.43.36-.9.72-1.39,1.08-.04.03-.08.06-.13.09-.08.05-.15.11-.2.14-.45.33-.92.66-1.39.99-1.53,1.09-3.28,2.22-5.36,3.43-.79.46-1.6.94-2.46,1.4-.54.31-1.04.58-1.52.82-7.63,4.05-16.96,7.92-27.73,11.48-.63.21-1.57.53-2.53.83-12.15,3.94-26.15,7.58-41.64,10.83-1.05.23-2.17.47-3.36.69-1.09.23-2.22.47-3.4.69-1.63.33-3.32.66-5.03.97-1.75.35-3.56.67-5.14.95-1.69.33-3.44.64-5.2.93-1.7.3-3.52.62-5.33.9-2.32.39-4.71.77-6.77,1.09-4.04.64-8.24,1.26-12.49,1.86-1.76.26-3.59.5-5.38.74-1.21.17-2.48.33-3.71.48l-.36.04c-1.35.19-2.75.36-4.11.52-2.83.37-5.69.71-8.36,1.02-3.47.39-7.19.8-10.98,1.19-1.84.21-3.72.4-5.63.57-2.01.21-4.08.4-6.2.59-2.05.19-4.07.38-6.11.55-3.34.29-6.61.57-9.91.83-.84.06-1.67.12-2.51.19-1.81.14-3.63.27-5.45.39h-.13s-.04.02-.04.02h-.05c-2.71.2-5.37.38-8.04.55-7.68.48-14.84.87-21.89,1.19-2.26.1-5.06.23-7.75.33l-1.84.07-1.87.07c-2.29.1-4.61.17-6.85.24l-1.12.03-1.26.04c-2.66.1-5.35.17-8.01.21-3.49.09-7.02.17-10.51.21-6.63.11-13.61.17-21.31.17s-14.66-.05-21.29-.17c-3.49-.05-7.02-.12-10.52-.21-2.68-.05-5.38-.12-8.03-.21h-.13s-2.23-.07-2.23-.07c-2.12-.07-4.51-.14-6.87-.24l-1.84-.07-1.87-.07c-2.49-.09-4.88-.2-7.75-.33-6.63-.29-13.43-.66-20.81-1.12-3-.19-6.02-.4-9.11-.62-5.55-.38-11.09-.81-16.46-1.28-2.61-.22-5.21-.46-7.73-.69-4.11-.38-7.81-.73-11.46-1.12-4.12-.43-8.25-.88-12.27-1.36-3.27-.38-6.77-.8-10.2-1.24-1.7-.22-3.39-.44-5.07-.66l-.38-.05c-1.77-.23-3.61-.47-5.37-.74-1.68-.23-3.41-.47-5.11-.74-.55-.07-1.07-.14-1.62-.23-1.73-.26-3.51-.52-5.26-.81-2.33-.36-4.81-.75-7.28-1.17-1.77-.28-3.55-.6-5.31-.9-1.72-.28-3.42-.58-5.22-.93-2.06-.37-3.63-.66-5.12-.95-1.47-.27-3.02-.57-5.03-.97-1.21-.24-2.42-.48-3.6-.72-1.12-.22-2.23-.46-3.27-.69-1.16-.24-2.28-.47-3.38-.71-.56-.13-1.12-.25-1.68-.38-.67-.15-1.34-.3-2.03-.46-2.19-.47-4.26-.95-6.16-1.43-1.4-.31-2.82-.66-4.38-1.07-1.42-.35-2.89-.71-4.33-1.09-1.03-.26-2.06-.55-3.07-.83h-.03s-.03-.01-.03-.01c-.25-.05-.49-.12-.73-.19l-.22-.06c-.73-.18-1.45-.38-2.05-.55-.37-.09-.72-.2-1.13-.32-1.2-.33-2.62-.73-4.09-1.16-3.01-.86-5.81-1.75-8.16-2.51-.66-.21-1.33-.43-1.97-.64-2.34-.77-4.08-1.37-5.69-1.95-.69-.23-1.38-.49-2.07-.75-3.81-1.38-7.57-2.88-11.17-4.45-1.91-.85-3.77-1.71-5.55-2.56-.89-.42-1.74-.84-2.61-1.31-.53-.26-1.11-.56-1.83-.96-.53-.27-1.11-.6-1.75-.97-.51-.27-1.06-.59-1.67-.96-2.64-1.53-4.99-3.07-6.99-4.59-.41-.29-.83-.6-1.23-.93-1.54-1.2-2.98-2.46-4.26-3.75-2.39-2.41-4.19-4.85-5.36-7.26-1.15-2.37-1.73-4.77-1.73-7.13,0-6.09,3.79-12.15,11.27-18.02M754.09,507.13c-11.83,9.09-31.85,17.43-58.14,24.5-55.52,15-138.92,24.52-232.2,24.52s-176.68-9.52-232.17-24.52c-26.26-7.09-46.28-15.4-58.14-24.5-7.98,6.09-12.26,12.57-12.26,19.28,0,2.55.62,5.07,1.83,7.57,1.24,2.55,3.09,5.05,5.55,7.52,1.29,1.29,2.74,2.57,4.36,3.83.4.33.83.64,1.26.95,2.1,1.6,4.48,3.14,7.07,4.64.55.33,1.12.67,1.69.98.57.33,1.17.67,1.76.98.6.33,1.21.67,1.86.98.86.45,1.71.88,2.62,1.31,1.79.86,3.64,1.71,5.57,2.57,3.5,1.52,7.24,3.02,11.24,4.48.69.26,1.38.52,2.1.76,1.83.67,3.74,1.31,5.69,1.95.64.21,1.31.43,1.98.64,2.64.86,5.36,1.71,8.19,2.52,1.36.4,2.71.79,4.09,1.17.38.12.76.24,1.17.33.67.19,1.36.38,2.05.55.33.1.64.19.98.26,1.02.29,2.05.57,3.09.83,1.43.38,2.88.74,4.33,1.1,1.45.38,2.9.74,4.4,1.07,2,.5,4.07.98,6.17,1.43,1.21.29,2.45.55,3.69.83,1.12.24,2.24.48,3.4.71,1.07.24,2.17.48,3.29.69,1.17.24,2.38.48,3.6.71,1.64.33,3.33.67,5.05.98,1.69.33,3.38.64,5.12.95,1.74.33,3.48.64,5.24.93,1.76.31,3.52.62,5.31.9,2.4.4,4.83.79,7.29,1.17,1.74.29,3.5.55,5.26.81.55.1,1.1.17,1.64.24,1.67.26,3.38.5,5.09.74,1.76.26,3.57.5,5.38.74,1.81.24,3.62.48,5.45.71,3.36.43,6.76.83,10.21,1.24,4.05.48,8.14.93,12.28,1.36,3.79.4,7.62.76,11.48,1.12,2.57.24,5.14.48,7.74.69,5.43.48,10.93.9,16.47,1.29,3.02.21,6.07.43,9.12.62,6.86.43,13.78.81,20.83,1.12,2.57.12,5.17.24,7.76.33,1.24.05,2.48.1,3.71.14,2.29.1,4.57.17,6.88.24.79.02,1.57.05,2.36.07,2.67.1,5.36.17,8.05.21,3.5.1,7,.17,10.52.21,7.05.12,14.14.17,21.31.17s14.28-.05,21.33-.17c3.52-.05,7.02-.12,10.52-.21,2.69-.05,5.36-.12,8.02-.21.79-.02,1.6-.05,2.38-.07,2.29-.07,4.57-.14,6.86-.24,1.24-.05,2.48-.1,3.71-.14,2.59-.1,5.19-.21,7.76-.33,7.4-.33,14.71-.74,21.9-1.19,2.69-.17,5.38-.36,8.05-.55.07,0,.14,0,.21-.02,2.67-.17,5.33-.38,7.98-.57,3.33-.26,6.64-.55,9.93-.83,2.05-.17,4.09-.36,6.12-.55,2.1-.19,4.17-.38,6.21-.6,1.9-.17,3.79-.36,5.64-.57,3.69-.38,7.36-.79,10.98-1.19,2.83-.33,5.62-.67,8.38-1.02,1.38-.17,2.76-.33,4.12-.52,1.36-.17,2.74-.33,4.07-.52,1.81-.24,3.62-.48,5.38-.74,4.26-.6,8.43-1.21,12.5-1.86,2.29-.36,4.55-.71,6.79-1.1,1.79-.29,3.57-.6,5.33-.9,1.76-.29,3.5-.6,5.21-.93,1.74-.31,3.45-.62,5.14-.95,1.71-.31,3.38-.64,5.05-.98,1.17-.21,2.29-.45,3.4-.69,1.14-.21,2.26-.45,3.36-.69,15.55-3.26,29.55-6.9,41.73-10.86.86-.26,1.71-.55,2.55-.83,10.86-3.59,20.21-7.48,27.88-11.55.52-.26,1.05-.55,1.55-.83.86-.45,1.67-.93,2.48-1.4,1.95-1.14,3.76-2.29,5.43-3.48.48-.33.95-.67,1.4-1,.12-.1.24-.17.36-.26.48-.36.95-.71,1.4-1.09,1.5-1.17,2.86-2.38,4.07-3.6,2.45-2.45,4.33-4.98,5.57-7.52,1.21-2.5,1.83-5.02,1.83-7.57,0-6.71-4.29-13.19-12.26-19.28h0Z"/>
      <path d="M162.18,534.56c1.27,2.56,3.17,5.13,5.67,7.66,1.34,1.34,2.84,2.66,4.43,3.9.43.35.88.68,1.29.98,2.04,1.56,4.46,3.14,7.16,4.7.61.37,1.2.71,1.71.99.65.38,1.24.71,1.78.98.73.41,1.34.73,1.88.99.87.46,1.74.89,2.64,1.32,1.77.89,3.66,1.76,5.62,2.59,3.65,1.59,7.45,3.1,11.29,4.5.69.26,1.4.53,2.1.77,1.6.58,3.36,1.19,5.72,1.96.65.22,1.32.43,1.98.65,2.36.77,5.18,1.67,8.21,2.53,1.47.44,2.9.84,4.08,1.16.39.12.79.25,1.19.34.57.16,1.32.37,2.05.55l.18.05c.28.08.55.16.84.22,1,.28,2.04.57,3.08.83,1.44.38,2.92.75,4.34,1.1,1.57.41,3.02.77,4.42,1.07,1.9.48,3.99.96,6.18,1.43.67.16,1.35.31,2.03.46.55.12,1.11.25,1.68.38,1.12.24,2.24.48,3.4.71,1.04.23,2.16.48,3.3.69,1.17.24,2.39.48,3.6.71,2.02.41,3.58.71,5.05.98,1.49.29,3.07.59,5.12.95,1.81.35,3.53.65,5.25.93,1.73.3,3.53.62,5.32.91,2.48.42,4.96.81,7.29,1.17,1.75.29,3.54.55,5.25.81.57.1,1.13.17,1.66.24,1.68.26,3.43.51,5.1.74,1.77.26,3.62.51,5.4.74l.26.03c1.72.23,3.45.45,5.2.68,3.25.41,6.71.85,10.22,1.24,4.03.47,8.17.93,12.3,1.36,3.66.39,7.37.74,11.49,1.12,2.53.23,5.14.48,7.74.69,5.38.47,10.93.9,16.49,1.29,3.1.22,6.13.43,9.13.62,7.39.46,14.21.83,20.85,1.12,2.26.1,5.07.23,7.77.33l1.89.07,1.82.07c2.37.1,4.77.17,6.89.24l1.18.04,1.17.04c2.65.09,5.37.17,8.06.21,3.49.09,7.04.17,10.53.21,6.65.11,13.62.17,21.32.17s14.7-.05,21.35-.17c3.5-.05,7.05-.12,10.53-.21,2.67-.05,5.37-.12,8.04-.21l1.19-.04,1.19-.04c2.25-.07,4.57-.14,6.86-.24l1.89-.07,1.82-.07c2.7-.1,5.51-.23,7.77-.33,7.06-.32,14.23-.71,21.92-1.19,2.73-.17,5.42-.36,8.02-.55.08,0,.2,0,.33-.03,1.8-.11,3.62-.25,5.39-.38.84-.06,1.67-.13,2.51-.19,3.31-.26,6.59-.54,9.93-.83,2.05-.17,4.07-.35,6.13-.55,2.12-.19,4.19-.38,6.21-.59,1.91-.17,3.82-.36,5.66-.57,3.78-.39,7.51-.8,10.99-1.19,2.67-.31,5.54-.66,8.38-1.02,1.36-.16,2.77-.33,4.12-.52l.35-.04c1.24-.15,2.51-.31,3.73-.48,1.78-.23,3.62-.48,5.39-.74,4.24-.59,8.46-1.22,12.52-1.86,2.07-.32,4.47-.7,6.79-1.1,1.81-.29,3.64-.61,5.33-.91,1.76-.29,3.53-.6,5.23-.93,1.57-.28,3.39-.61,5.14-.95,1.72-.31,3.41-.65,5.05-.98,1.18-.22,2.33-.46,3.41-.69,1.18-.22,2.32-.47,3.38-.69,15.55-3.26,29.62-6.92,41.82-10.88.75-.23,1.55-.49,2.57-.84,10.87-3.6,20.3-7.51,28.01-11.6.5-.25,1.02-.53,1.57-.84.88-.46,1.71-.95,2.51-1.43,2.12-1.24,3.92-2.39,5.5-3.52.48-.34.97-.68,1.46-1.04.04-.03.08-.06.13-.09.08-.05.15-.11.21-.15.48-.36.97-.73,1.42-1.11,1.45-1.13,2.86-2.37,4.16-3.68,2.51-2.51,4.42-5.08,5.7-7.66v6.95c0,5.45-3.05,10.91-9.07,16.23-10.96,9.69-31.91,18.91-60.59,26.64-57.6,15.56-142.14,24.49-231.94,24.49s-174.33-8.93-231.91-24.49c-28.69-7.74-49.64-16.95-60.59-26.64-6.02-5.32-9.07-10.78-9.07-16.23v-6.95M766.35,526.42c0,2.55-.62,5.07-1.83,7.57-1.24,2.55-3.12,5.07-5.57,7.52-1.21,1.21-2.57,2.43-4.07,3.59-.45.38-.93.74-1.4,1.1-.12.1-.24.17-.36.26-.45.33-.93.67-1.4,1-1.67,1.19-3.48,2.33-5.43,3.48-.81.48-1.62.95-2.48,1.4-.5.29-1.02.57-1.55.83-7.67,4.07-17.02,7.95-27.88,11.55-.83.29-1.69.57-2.55.83-12.19,3.95-26.19,7.59-41.73,10.86-1.1.24-2.21.48-3.36.69-1.12.24-2.24.48-3.4.69-1.67.33-3.33.67-5.05.98-1.69.33-3.4.64-5.14.95-1.71.33-3.45.64-5.21.93-1.76.31-3.55.62-5.33.9-2.24.38-4.5.74-6.79,1.1-4.07.64-8.24,1.26-12.5,1.86-1.76.26-3.57.5-5.38.74-1.33.19-2.71.36-4.07.52-1.36.19-2.74.36-4.12.52-2.76.36-5.55.69-8.38,1.02-3.62.4-7.29.81-10.98,1.19-1.86.21-3.74.4-5.64.57-2.05.21-4.12.4-6.21.6-2.02.19-4.07.38-6.12.55-3.29.29-6.59.57-9.93.83-2.64.19-5.31.4-7.98.57-.07.02-.14.02-.21.02-2.67.19-5.33.38-8.05.55-7.19.45-14.5.86-21.9,1.19-2.57.12-5.17.24-7.76.33-1.24.05-2.48.1-3.71.14-2.29.1-4.57.17-6.86.24-.79.02-1.6.05-2.38.07-2.67.1-5.33.17-8.02.21-3.5.1-7,.17-10.52.21-7.05.12-14.17.17-21.33.17s-14.26-.05-21.31-.17c-3.52-.05-7.02-.12-10.52-.21-2.69-.05-5.38-.12-8.05-.21-.79-.02-1.57-.05-2.36-.07-2.31-.07-4.59-.14-6.88-.24-1.24-.05-2.48-.1-3.71-.14-2.6-.1-5.19-.21-7.76-.33-7.05-.31-13.98-.69-20.83-1.12-3.05-.19-6.09-.4-9.12-.62-5.55-.38-11.05-.81-16.47-1.29-2.59-.21-5.17-.45-7.74-.69-3.86-.36-7.69-.71-11.48-1.12-4.14-.43-8.24-.88-12.28-1.36-3.45-.38-6.86-.81-10.21-1.24-1.83-.24-3.64-.48-5.45-.71-1.81-.24-3.62-.48-5.38-.74-1.71-.24-3.43-.48-5.09-.74-.55-.07-1.1-.14-1.64-.24-1.76-.26-3.52-.52-5.26-.81-2.45-.38-4.88-.76-7.29-1.17-1.79-.29-3.55-.6-5.31-.9-1.76-.29-3.5-.6-5.24-.93-1.74-.31-3.43-.62-5.12-.95-1.71-.31-3.4-.64-5.05-.98-1.21-.24-2.43-.48-3.6-.71-1.12-.21-2.21-.45-3.29-.69-1.17-.24-2.29-.48-3.4-.71-1.24-.29-2.48-.55-3.69-.83-2.1-.45-4.17-.93-6.17-1.43-1.5-.33-2.95-.69-4.4-1.07-1.45-.36-2.9-.71-4.33-1.1-1.05-.26-2.07-.55-3.09-.83-.33-.07-.64-.17-.98-.26-.69-.17-1.38-.36-2.05-.55-.4-.1-.79-.21-1.17-.33-1.38-.38-2.74-.76-4.09-1.17-2.83-.81-5.55-1.67-8.19-2.52-.67-.21-1.33-.43-1.98-.64-1.95-.64-3.86-1.29-5.69-1.95-.71-.24-1.4-.5-2.1-.76-4-1.45-7.74-2.95-11.24-4.48-1.95-.83-3.81-1.69-5.57-2.57-.9-.43-1.76-.86-2.62-1.31-.64-.31-1.26-.64-1.86-.98-.6-.31-1.19-.64-1.76-.98-.57-.31-1.14-.64-1.69-.98-2.6-1.5-4.98-3.05-7.07-4.64-.43-.31-.86-.62-1.26-.95-1.62-1.26-3.07-2.55-4.36-3.83-2.45-2.48-4.31-4.98-5.55-7.52-1.21-2.5-1.83-5.02-1.83-7.57v15.09c0,5.86,3.26,11.55,9.4,16.97,11.33,10.02,32.5,19.17,61,26.86,55.5,15,138.92,24.52,232.17,24.52s176.68-9.52,232.2-24.52c28.52-7.69,49.66-16.83,61-26.86,6.14-5.43,9.4-11.12,9.4-16.97v-15.09h0Z"/>
      <path d="M189.18,555.18c1.76.88,3.62,1.74,5.57,2.57-1.93-.86-3.79-1.71-5.57-2.57h0Z"/>
    </g>
    <g>
      <path d="M170.6,457.07c11.48,9.8,31.9,18.71,60.72,26.49,57.74,15.61,142.46,24.56,232.43,24.56s174.69-8.95,232.46-24.56c28.82-7.77,49.24-16.68,60.72-26.49,5.59,5.13,8.42,10.39,8.42,15.64,0,2.37-.58,4.77-1.73,7.13-1.18,2.42-2.99,4.86-5.38,7.25-3.08,3.08-7.13,6.12-12.05,9.02-.6.37-1.23.73-2,1.15-.79.44-1.6.9-2.45,1.34l-.13.07-.02.02c-6.04,3.21-13.26,6.32-21.48,9.27-.72.28-1.48.54-2.23.8-1.12.4-2.27.8-3.48,1.19-.94.33-1.95.67-3.02.99-2.77.92-5.4,1.72-8.05,2.47-.83.25-1.69.52-2.58.76-2.79.8-5.43,1.53-8.1,2.21-1.2.32-2.43.62-3.67.93-.62.16-1.24.31-1.88.47-.93.25-1.85.46-2.73.66-1.57.4-3.2.78-4.85,1.14-1.82.44-3.56.84-5.37,1.21-.92.22-1.85.41-2.73.59-.91.21-1.85.4-2.76.59-1.74.36-3.5.71-5.28,1.07l-.09.02h-.02s-.03,0-.03,0l-.1.02c-1.63.33-3.32.66-5.04.98-1.75.35-3.56.67-5.14.95-1.7.33-3.44.64-5.2.93-1.7.3-3.52.61-5.33.9-2.31.39-4.71.77-6.77,1.09-4.05.64-8.25,1.26-12.49,1.86-1.76.26-3.59.5-5.38.74-1.21.17-2.48.33-3.7.48l-.37.04c-1.34.19-2.74.36-4.11.52-2.84.37-5.7.71-8.36,1.02-3.47.39-7.21.8-10.98,1.19-1.84.21-3.73.4-5.63.57-2.01.21-4.08.4-6.2.59-2.05.19-4.07.38-6.11.55-3.33.29-6.6.57-9.91.83-.84.06-1.68.12-2.52.19-1.81.14-3.63.27-5.45.38h-.13s-.04.02-.04.02h-.05c-2.72.2-5.38.39-8.04.55-7.68.48-14.84.87-21.89,1.19-2.26.1-5.06.23-7.75.33l-2.48.1-1.24.05c-2.29.1-4.61.17-6.85.24l-1.19.04-1.2.04c-2.66.09-5.35.17-8.01.21-3.48.09-7.02.17-10.51.21-6.64.11-13.61.17-21.31.17s-14.65-.05-21.29-.17c-3.49-.05-7.03-.12-10.52-.21-2.68-.05-5.38-.12-8.03-.21l-1.18-.04-1.18-.04c-2.12-.07-4.51-.14-6.87-.24l-2.48-.1-1.24-.05c-2.49-.09-4.88-.2-7.75-.33-6.63-.29-13.43-.66-20.81-1.12-2.98-.19-5.89-.39-9.11-.62-5.56-.38-11.09-.81-16.46-1.28-2.61-.22-5.21-.46-7.73-.69-3.35-.31-7.52-.7-11.46-1.12-4.12-.43-8.25-.88-12.27-1.36-3.27-.38-6.77-.8-10.2-1.24-1.71-.22-3.4-.44-5.09-.67l-.36-.05c-1.77-.23-3.61-.47-5.4-.74-1.67-.23-3.4-.47-5.08-.74-.55-.07-1.07-.14-1.62-.24-1.73-.26-3.52-.52-5.26-.81-2.33-.36-4.8-.75-7.28-1.17-1.78-.29-3.57-.6-5.31-.9-1.72-.28-3.42-.58-5.22-.93-2.06-.37-3.63-.66-5.12-.95-1.48-.27-3.03-.57-5.03-.97l-.1-.02h-.06l-.05-.02h-.06c-2.02-.42-4.02-.82-5.99-1.22-4.85-1.03-9.65-2.1-14.28-3.21l-1.56-.38c-1-.24-1.99-.49-2.99-.74-.95-.24-1.88-.48-2.81-.71-1.13-.28-2.21-.56-3.32-.85-.75-.2-1.5-.4-2.24-.61-.42-.12-.84-.23-1.24-.34-.33-.1-.66-.19-.99-.28-.4-.11-.8-.22-1.21-.34l-.79-.22c-.74-.21-1.43-.4-2.17-.63-.89-.25-1.93-.54-3-.88-2.05-.61-4.18-1.29-6.93-2.18-2.03-.66-4.17-1.4-6.55-2.26-.88-.31-1.84-.66-3.04-1.12-1.07-.38-2.11-.79-2.92-1.12-.95-.35-1.89-.72-2.84-1.14-1-.38-1.95-.79-2.68-1.11-.87-.37-2.01-.85-3.12-1.37-2.37-1.06-4.22-1.95-5.88-2.82-.47-.22-1.08-.52-1.68-.86-.9-.47-1.76-.95-2.59-1.41-.81-.46-1.65-.94-2.46-1.43-.52-.3-1.02-.61-1.56-.95-3.31-2.08-6.2-4.23-8.57-6.39-.51-.46-1-.93-1.46-1.39-2.39-2.41-4.19-4.85-5.36-7.26-1.15-2.37-1.73-4.77-1.73-7.13,0-5.25,2.83-10.51,8.42-15.64M756.95,455.73c-11.33,10.02-32.47,19.17-61,26.86-55.52,15-138.92,24.52-232.2,24.52s-176.68-9.52-232.17-24.52c-28.5-7.69-49.66-16.83-61-26.86-6.14,5.43-9.4,11.12-9.4,16.97,0,2.55.62,5.07,1.83,7.57,1.24,2.55,3.09,5.05,5.55,7.52.48.48.98.95,1.5,1.43,2.43,2.21,5.33,4.38,8.71,6.5.52.33,1.05.67,1.6.98.79.48,1.62.95,2.45,1.43.86.48,1.71.95,2.62,1.43.55.31,1.12.6,1.71.88,1.86.98,3.83,1.9,5.9,2.83,1.02.48,2.07.93,3.14,1.38.88.38,1.79.76,2.71,1.12.93.4,1.88.79,2.86,1.14.95.38,1.93.76,2.93,1.12,1,.38,2.02.76,3.05,1.12,2.12.76,4.31,1.52,6.57,2.26,2.26.74,4.57,1.48,6.95,2.19,1,.31,2,.6,3.02.88.98.31,1.95.57,2.95.86.71.21,1.45.4,2.19.62,1.14.31,2.31.64,3.5.95,1.1.29,2.19.57,3.33.86.93.24,1.86.48,2.81.71,1.5.38,3,.74,4.55,1.12,4.59,1.1,9.36,2.17,14.31,3.21,1.98.4,3.98.81,6,1.21.07.02.17.05.26.05,1.64.33,3.33.67,5.05.98,1.69.33,3.38.64,5.12.95,1.74.33,3.48.64,5.24.93,1.76.31,3.52.62,5.31.9,2.4.4,4.83.79,7.29,1.17,1.74.29,3.5.55,5.26.81.55.1,1.1.17,1.64.24,1.67.26,3.38.5,5.09.74,1.76.26,3.57.5,5.38.74,1.81.24,3.62.48,5.45.71,3.36.43,6.76.83,10.21,1.24,4.05.48,8.14.93,12.28,1.36,3.79.4,7.62.76,11.48,1.12,2.57.24,5.14.48,7.74.69,5.43.48,10.93.9,16.47,1.29,3.02.21,6.07.43,9.12.62,6.86.43,13.78.81,20.83,1.12,2.57.12,5.17.24,7.76.33,1.24.05,2.48.1,3.71.14,2.29.1,4.57.17,6.88.24.79.02,1.57.05,2.36.07,2.67.1,5.36.17,8.05.21,3.5.1,7,.17,10.52.21,7.05.12,14.14.17,21.31.17s14.28-.05,21.33-.17c3.52-.05,7.02-.12,10.52-.21,2.69-.05,5.36-.12,8.02-.21.79-.02,1.6-.05,2.38-.07,2.29-.07,4.57-.14,6.86-.24,1.24-.05,2.48-.1,3.71-.14,2.59-.1,5.19-.21,7.76-.33,7.4-.33,14.71-.74,21.9-1.19,2.69-.17,5.38-.36,8.05-.55.07,0,.14,0,.21-.02,2.67-.17,5.33-.38,7.98-.57,3.33-.26,6.64-.55,9.93-.83,2.05-.17,4.09-.36,6.12-.55,2.1-.19,4.17-.38,6.21-.6,1.9-.17,3.79-.36,5.64-.57,3.69-.38,7.36-.79,10.98-1.19,2.83-.33,5.62-.67,8.38-1.02,1.38-.17,2.76-.33,4.12-.52,1.36-.17,2.74-.33,4.07-.52,1.81-.24,3.62-.48,5.38-.74,4.26-.6,8.43-1.21,12.5-1.86,2.29-.36,4.55-.71,6.79-1.1,1.79-.29,3.57-.6,5.33-.9,1.76-.29,3.5-.6,5.21-.93,1.74-.31,3.45-.62,5.14-.95,1.71-.31,3.38-.64,5.05-.98.1,0,.17-.02.24-.05,1.79-.36,3.55-.71,5.29-1.07.93-.19,1.86-.38,2.79-.6.93-.19,1.83-.38,2.74-.6,1.83-.38,3.62-.79,5.38-1.21,1.64-.36,3.26-.74,4.86-1.14.93-.21,1.83-.43,2.74-.67,1.88-.48,3.74-.93,5.55-1.4,2.79-.71,5.48-1.45,8.12-2.21.88-.24,1.74-.5,2.6-.76,2.79-.79,5.48-1.62,8.07-2.48,1.02-.31,2.05-.64,3.05-1,1.19-.38,2.33-.79,3.48-1.19.76-.26,1.52-.52,2.26-.81,8.24-2.95,15.48-6.07,21.62-9.33.05-.02.1-.05.12-.07.86-.45,1.67-.9,2.48-1.36.69-.38,1.36-.76,2.02-1.17,5-2.95,9.09-6.02,12.24-9.17,2.45-2.45,4.33-4.98,5.57-7.52,1.21-2.5,1.83-5.02,1.83-7.57,0-5.86-3.26-11.55-9.4-16.97h0Z"/>
      <path d="M162.18,480.85c1.27,2.56,3.17,5.13,5.67,7.66.48.48,1,.98,1.53,1.46,2.46,2.24,5.44,4.47,8.85,6.61.52.33,1.05.67,1.61.99.71.45,1.53.93,2.46,1.43.98.57,1.83,1.03,2.65,1.45.62.35,1.26.66,1.72.88,1.66.87,3.56,1.78,5.95,2.85,1.12.52,2.24,1,3.17,1.39.74.32,1.72.74,2.71,1.12.94.41,1.92.8,2.88,1.15.8.32,1.86.74,2.94,1.13.99.38,2.02.77,3.07,1.13,2.39.86,4.55,1.6,6.6,2.27,2.76.9,4.91,1.58,6.97,2.19,1.08.33,2.15.64,3.02.88.73.23,1.48.44,2.2.64l.77.22c.41.12.82.24,1.24.35.32.09.64.18.98.27.41.11.83.23,1.25.34.74.21,1.5.41,2.27.61,1.09.29,2.19.57,3.33.86.93.24,1.86.48,2.81.71,1.75.45,3.2.81,4.57,1.12,4.64,1.11,9.47,2.19,14.34,3.22,1.96.4,3.95.8,5.95,1.21.13.04.26.06.38.07,1.98.4,3.52.7,4.98.96,1.48.29,3.06.59,5.12.95,1.81.35,3.53.65,5.27.93,1.73.3,3.52.62,5.3.9,2.48.42,4.96.81,7.29,1.17,1.75.29,3.54.55,5.25.81.57.1,1.13.17,1.66.24,1.67.26,3.4.5,5.1.74,1.77.26,3.62.51,5.4.74l.26.03c1.72.23,3.44.45,5.19.68,3.25.41,6.72.85,10.22,1.24,4.03.47,8.17.93,12.3,1.36,3.95.42,8.13.81,11.49,1.12,2.52.23,5.12.47,7.74.69,5.38.47,10.93.9,16.49,1.29,3.22.23,6.13.43,9.13.62,7.39.46,14.21.83,20.85,1.12,2.77.13,5.26.24,7.77.33l1.88.07,1.84.07c2.37.1,4.77.17,6.89.24l.77.02,1.58.05c2.66.09,5.37.17,8.06.21,3.49.1,7.04.17,10.53.21,6.65.11,13.62.17,21.32.17s14.7-.05,21.35-.17c3.5-.05,7.04-.12,10.53-.21,2.66-.05,5.37-.12,8.04-.21l1.25-.04,1.14-.03c2.25-.07,4.57-.14,6.86-.24l1.88-.07,1.84-.07c2.51-.09,5-.21,7.77-.33,7.06-.32,14.23-.71,21.92-1.19,2.71-.17,5.41-.36,8.02-.55.08,0,.2,0,.33-.03,1.8-.11,3.62-.25,5.39-.38.84-.06,1.67-.13,2.51-.19,3.33-.26,6.6-.54,9.93-.83,2.06-.17,4.07-.35,6.13-.55,2.21-.2,4.2-.38,6.21-.6,1.91-.17,3.82-.36,5.66-.57,3.77-.39,7.51-.8,10.99-1.19,2.67-.31,5.53-.66,8.39-1.03,1.36-.16,2.77-.33,4.11-.52l.35-.04c1.24-.15,2.51-.31,3.73-.48,1.78-.23,3.62-.48,5.39-.74,4.24-.59,8.46-1.22,12.52-1.86,2.07-.32,4.47-.7,6.79-1.1,1.81-.29,3.64-.61,5.34-.9,1.77-.29,3.53-.6,5.23-.93,1.57-.28,3.39-.61,5.14-.95,1.7-.31,3.37-.64,4.99-.97.15-.01.28-.05.37-.07,1.77-.35,3.51-.71,5.23-1.06.92-.19,1.87-.38,2.79-.6.88-.18,1.82-.38,2.74-.6,1.81-.38,3.58-.78,5.39-1.22,1.65-.36,3.29-.75,4.87-1.15.87-.2,1.81-.42,2.75-.67,1.66-.4,3.43-.85,5.56-1.41,2.68-.69,5.34-1.41,8.13-2.22.91-.24,1.78-.51,2.61-.76,2.66-.75,5.31-1.56,8.09-2.48,1.09-.33,2.13-.67,3.06-1,1.2-.38,2.37-.8,3.52-1.2.75-.26,1.53-.53,2.25-.81,8.3-2.97,15.61-6.13,21.73-9.38.05-.02.12-.06.19-.11.77-.39,1.55-.82,2.44-1.34.78-.43,1.43-.81,2.05-1.18,5.05-2.98,9.23-6.12,12.44-9.32,2.51-2.51,4.42-5.08,5.7-7.66v6.95c0,6.24-3.99,12.47-11.87,18.54-11.5,8.84-31.48,17.25-57.79,24.33-57.6,15.56-142.14,24.49-231.94,24.49s-174.33-8.93-231.91-24.49c-26.71-7.22-46.16-15.4-57.79-24.32-7.88-6.07-11.87-12.3-11.87-18.54v-6.95M766.35,472.71c0,2.55-.62,5.07-1.83,7.57-1.24,2.55-3.12,5.07-5.57,7.52-3.14,3.14-7.24,6.21-12.24,9.17-.67.4-1.33.79-2.02,1.17-.81.48-1.62.93-2.48,1.36-.02.02-.07.05-.12.07-6.14,3.26-13.38,6.38-21.62,9.33-.74.29-1.5.55-2.26.81-1.14.4-2.29.81-3.48,1.19-1,.36-2.02.69-3.05,1-2.6.86-5.29,1.69-8.07,2.48-.86.26-1.71.52-2.6.76-2.64.76-5.33,1.5-8.12,2.21-1.81.48-3.67.95-5.55,1.4-.9.24-1.81.45-2.74.67-1.6.4-3.21.79-4.86,1.14-1.76.43-3.55.83-5.38,1.21-.9.21-1.81.4-2.74.6-.93.21-1.86.4-2.79.6-1.74.36-3.5.71-5.29,1.07-.07.02-.14.05-.24.05-1.67.33-3.33.67-5.05.98-1.69.33-3.4.64-5.14.95-1.71.33-3.45.64-5.21.93-1.76.31-3.55.62-5.33.9-2.24.38-4.5.74-6.79,1.1-4.07.64-8.24,1.26-12.5,1.86-1.76.26-3.57.5-5.38.74-1.33.19-2.71.36-4.07.52-1.36.19-2.74.36-4.12.52-2.76.36-5.55.69-8.38,1.02-3.62.4-7.29.81-10.98,1.19-1.86.21-3.74.4-5.64.57-2.05.21-4.12.4-6.21.6-2.02.19-4.07.38-6.12.55-3.29.29-6.59.57-9.93.83-2.64.19-5.31.4-7.98.57-.07.02-.14.02-.21.02-2.67.19-5.33.38-8.05.55-7.19.45-14.5.86-21.9,1.19-2.57.12-5.17.24-7.76.33-1.24.05-2.48.1-3.71.14-2.29.1-4.57.17-6.86.24-.79.02-1.6.05-2.38.07-2.67.1-5.33.17-8.02.21-3.5.1-7,.17-10.52.21-7.05.12-14.17.17-21.33.17s-14.26-.05-21.31-.17c-3.52-.05-7.02-.12-10.52-.21-2.69-.05-5.38-.12-8.05-.21-.79-.02-1.57-.05-2.36-.07-2.31-.07-4.59-.14-6.88-.24-1.24-.05-2.48-.1-3.71-.14-2.6-.1-5.19-.21-7.76-.33-7.05-.31-13.98-.69-20.83-1.12-3.05-.19-6.09-.4-9.12-.62-5.55-.38-11.05-.81-16.47-1.29-2.59-.21-5.17-.45-7.74-.69-3.86-.36-7.69-.71-11.48-1.12-4.14-.43-8.24-.88-12.28-1.36-3.45-.38-6.86-.81-10.21-1.24-1.83-.24-3.64-.48-5.45-.71-1.81-.24-3.62-.48-5.38-.74-1.71-.24-3.43-.48-5.09-.74-.55-.07-1.1-.14-1.64-.24-1.76-.26-3.52-.52-5.26-.81-2.45-.38-4.88-.76-7.29-1.17-1.79-.29-3.55-.6-5.31-.9-1.76-.29-3.5-.6-5.24-.93-1.74-.31-3.43-.62-5.12-.95-1.71-.31-3.4-.64-5.05-.98-.1,0-.19-.02-.26-.05-2.02-.4-4.02-.81-6-1.21-4.95-1.05-9.71-2.12-14.31-3.21-1.55-.36-3.07-.74-4.55-1.12-.95-.24-1.88-.48-2.81-.71-1.14-.29-2.24-.57-3.33-.86-1.19-.31-2.36-.64-3.5-.95-.74-.21-1.48-.4-2.19-.62-1-.29-1.98-.55-2.95-.86-1.02-.29-2.02-.57-3.02-.88-2.38-.71-4.69-1.45-6.95-2.19-2.26-.74-4.45-1.5-6.57-2.26-1.05-.36-2.05-.74-3.05-1.12-1-.36-1.98-.74-2.93-1.12-.98-.36-1.93-.74-2.86-1.14-.93-.36-1.83-.74-2.71-1.12-1.07-.45-2.12-.9-3.14-1.38-2.07-.93-4.05-1.86-5.9-2.83-.6-.29-1.17-.57-1.71-.88-.9-.45-1.76-.93-2.62-1.43-.83-.45-1.67-.93-2.45-1.43-.55-.31-1.07-.64-1.6-.98-3.38-2.12-6.29-4.29-8.71-6.5-.52-.48-1.02-.95-1.5-1.43-2.45-2.48-4.31-4.98-5.55-7.52-1.21-2.5-1.83-5.02-1.83-7.57v15.09c0,6.71,4.29,13.19,12.26,19.33,11.86,9.09,31.88,17.4,58.14,24.5,55.5,15,138.92,24.52,232.17,24.52s176.68-9.52,232.2-24.52c26.28-7.07,46.31-15.4,58.14-24.5,7.98-6.14,12.26-12.62,12.26-19.33v-15.09h0Z"/>
    </g>
    <g>
      <path d="M173.45,405.64c11.9,8.9,31.37,17.04,57.87,24.2,57.74,15.61,142.46,24.56,232.43,24.56s174.69-8.95,232.46-24.56c26.48-7.12,45.94-15.26,57.87-24.2,7.48,5.87,11.27,11.93,11.27,18.02,0,2.37-.58,4.77-1.73,7.13-1.18,2.42-2.99,4.86-5.38,7.25-1.25,1.25-2.59,2.43-4.01,3.54-.43.36-.88.7-1.39,1.08-.04.03-.09.06-.13.09-.08.05-.15.11-.2.14-.45.33-.92.66-1.41,1-.47.34-.98.69-1.68,1.14-.54.37-1.12.74-1.77,1.14-.61.38-1.25.76-1.89,1.13-.78.46-1.6.94-2.46,1.4-.55.31-1.04.58-1.52.82-7.63,4.05-16.96,7.92-27.73,11.48-.99.34-1.79.6-2.53.83-12.15,3.94-26.15,7.58-41.64,10.83-1.05.23-2.19.47-3.35.69-1.09.23-2.22.47-3.4.69-1.63.33-3.32.66-5.03.97-1.76.35-3.57.67-5.14.95-1.7.33-3.44.64-5.2.93-1.7.3-3.52.61-5.33.9-2.29.39-4.6.75-6.77,1.09-4.04.64-8.24,1.26-12.49,1.86-1.74.26-3.56.5-5.33.73-.07,0-.14.02-.18.03h0c-.94.13-1.88.25-2.82.37-.83.11-1.65.21-2.49.32-3.55.46-7.29.92-11.09,1.35-1.17.12-2.36.26-3.5.4-1.81.19-3.62.38-5.46.57-2.54.29-5.11.55-7.66.78-2.03.21-4.09.4-6.2.59-2.05.19-4.06.38-6.11.55-3.35.29-6.63.57-9.91.83-.84.06-1.67.12-2.51.19-1.81.14-3.63.27-5.46.39-10.09.73-20.23,1.32-30.14,1.76-2.76.13-5.25.24-7.75.33l-2.48.1-1.24.05c-2.27.09-4.59.17-6.85.24l-1.19.04-1.2.04c-2.65.09-5.34.17-8.01.21-3.49.09-7.03.17-10.51.21-6.64.11-13.61.17-21.31.17s-14.65-.05-21.29-.17c-3.48-.05-7.02-.12-10.52-.21-2.69-.05-5.39-.12-8.03-.21l-1.18-.04-1.18-.04c-2.12-.07-4.53-.14-6.87-.24l-1.28-.05-2.43-.09c-2.5-.09-4.99-.21-7.75-.33-9.55-.42-19.62-1.01-29.93-1.74-5.55-.38-11.09-.81-16.46-1.28-2.58-.21-5.17-.45-7.73-.69-4.27-.4-7.82-.73-11.46-1.12-4.12-.43-8.24-.88-12.27-1.36-3.28-.38-6.79-.8-10.2-1.24-6.14-.79-11.63-1.54-16.78-2.31-.61-.09-1.23-.19-1.84-.28-1.38-.21-2.8-.42-4.18-.65-2.32-.36-4.8-.75-7.28-1.17-1.78-.29-3.57-.6-5.31-.9-1.72-.28-3.42-.58-5.22-.93-2.06-.37-3.63-.66-5.12-.95-1.48-.27-3.03-.57-5.03-.97h-.05c-1.19-.24-2.39-.48-3.55-.72-1.12-.21-2.22-.46-3.27-.69-2.61-.54-5.15-1.11-7.09-1.55-1.47-.31-2.92-.65-4.28-.97-.59-.13-1.21-.27-1.88-.45-1.4-.31-2.83-.66-4.38-1.07-1.42-.35-2.89-.71-4.33-1.09-1.03-.26-2.07-.55-3.1-.83-1.32-.33-2.68-.7-4.17-1.14-1.21-.33-2.63-.73-4.08-1.16-3.1-.9-5.57-1.67-7.8-2.4-.77-.23-1.54-.49-2.29-.74-.33-.11-.66-.22-.98-.32-1.95-.66-3.4-1.16-4.74-1.64-.69-.23-1.38-.49-2.09-.76-1.11-.38-2.21-.81-3.28-1.21l-.71-.27c-.76-.3-1.5-.6-2.23-.89-.53-.21-1.06-.43-1.58-.63-.14-.07-.27-.12-.37-.16l-.05-.02-1.09-.46c-.62-.26-1.24-.53-1.87-.8-1.93-.82-3.78-1.68-5.54-2.56-.89-.42-1.74-.85-2.6-1.3-.7-.35-1.3-.66-1.84-.97-.53-.28-1.09-.59-1.75-.97-.51-.28-1.06-.6-1.67-.96-2.65-1.53-4.99-3.07-6.99-4.59-.43-.31-.83-.6-1.23-.93-.42-.33-.82-.65-1.22-.99-.48-.39-.95-.82-1.42-1.23-.52-.46-1.05-.96-1.62-1.52-2.39-2.41-4.19-4.85-5.36-7.26-1.15-2.37-1.73-4.77-1.73-7.13,0-6.09,3.79-12.15,11.27-18.02M754.09,404.38c-11.83,9.09-31.85,17.43-58.14,24.5-55.52,15-138.92,24.52-232.2,24.52s-176.68-9.52-232.17-24.52c-26.26-7.09-46.28-15.4-58.14-24.5-7.98,6.09-12.26,12.57-12.26,19.28,0,2.55.62,5.07,1.83,7.57,1.24,2.55,3.09,5.05,5.55,7.52.52.52,1.07,1.05,1.67,1.57.48.43.95.86,1.45,1.26.4.33.81.67,1.24,1,.4.33.83.64,1.26.95,2.1,1.6,4.48,3.14,7.07,4.64.55.33,1.12.67,1.69.98.57.33,1.17.67,1.76.98.6.33,1.24.67,1.86.98.86.45,1.71.88,2.62,1.31,1.76.88,3.62,1.74,5.57,2.57.98.43,1.95.83,2.95,1.26.12.05.26.1.38.17,1.26.5,2.55,1.02,3.88,1.55,1.31.5,2.64,1.02,4.02,1.5.69.26,1.38.52,2.1.76,1.52.55,3.12,1.1,4.74,1.64,1.1.36,2.19.74,3.31,1.07,2.52.83,5.12,1.62,7.81,2.4,1.36.4,2.71.79,4.09,1.17,1.38.4,2.76.79,4.19,1.14,1.02.29,2.05.57,3.09.83,1.43.38,2.88.74,4.33,1.1,1.45.38,2.9.74,4.4,1.07.62.17,1.24.31,1.88.45,1.4.33,2.83.67,4.29.98,2.31.52,4.67,1.05,7.09,1.55,1.07.24,2.17.48,3.29.69,1.17.24,2.38.48,3.6.71,1.64.33,3.33.67,5.05.98,1.69.33,3.38.64,5.12.95,1.74.33,3.48.64,5.24.93,1.76.31,3.52.62,5.31.9,2.4.4,4.83.79,7.29,1.17,1.98.33,4,.62,6.02.93,5.48.81,11.07,1.57,16.81,2.31,3.36.43,6.76.83,10.21,1.24,4.05.48,8.14.93,12.28,1.36,3.79.4,7.62.76,11.48,1.12,2.57.24,5.14.48,7.74.69,5.43.48,10.93.9,16.47,1.29,9.79.69,19.78,1.29,29.95,1.74,2.57.12,5.17.24,7.76.33,1.24.05,2.48.1,3.71.14,2.29.1,4.57.17,6.88.24.79.02,1.57.05,2.36.07,2.67.1,5.36.17,8.05.21,3.5.1,7,.17,10.52.21,7.05.12,14.14.17,21.31.17s14.28-.05,21.33-.17c3.52-.05,7.02-.12,10.52-.21,2.69-.05,5.36-.12,8.02-.21.79-.02,1.6-.05,2.38-.07,2.29-.07,4.57-.14,6.86-.24,1.24-.05,2.48-.1,3.71-.14,2.59-.1,5.19-.21,7.76-.33,10.26-.45,20.31-1.05,30.16-1.76,2.67-.17,5.33-.38,7.98-.57,3.33-.26,6.64-.55,9.93-.83,2.05-.17,4.09-.36,6.12-.55,2.1-.19,4.17-.38,6.21-.6,2.59-.24,5.14-.5,7.67-.79,1.83-.19,3.64-.38,5.45-.57,1.17-.14,2.33-.29,3.5-.4,3.76-.43,7.48-.88,11.12-1.36,1.79-.24,3.55-.45,5.31-.69.05,0,.1-.02.14-.02,1.81-.24,3.62-.48,5.38-.74,4.26-.6,8.43-1.21,12.5-1.86,2.29-.36,4.55-.71,6.79-1.1,1.79-.29,3.57-.6,5.33-.9,1.76-.29,3.5-.6,5.21-.93,1.74-.31,3.45-.62,5.14-.95,1.71-.31,3.38-.64,5.05-.98,1.17-.21,2.29-.45,3.4-.69,1.14-.21,2.26-.45,3.36-.69,15.55-3.26,29.55-6.9,41.73-10.86.86-.26,1.71-.55,2.55-.83,10.86-3.59,20.21-7.48,27.88-11.55.52-.26,1.05-.55,1.55-.83.86-.45,1.67-.93,2.48-1.4.64-.38,1.29-.76,1.9-1.14.62-.38,1.21-.76,1.81-1.17.6-.38,1.17-.76,1.71-1.17.48-.33.95-.67,1.4-1,.12-.1.24-.17.36-.26.48-.36.95-.71,1.4-1.1,1.5-1.17,2.86-2.38,4.07-3.59,2.45-2.45,4.33-4.98,5.57-7.52,1.21-2.5,1.83-5.02,1.83-7.57,0-6.71-4.29-13.19-12.26-19.28h0Z"/>
      <path d="M162.18,431.81c1.27,2.56,3.17,5.13,5.67,7.66.6.6,1.16,1.13,1.7,1.61.48.43.97.87,1.49,1.29.41.34.82.68,1.23,1,.43.35.88.68,1.29.98,2.04,1.56,4.46,3.14,7.16,4.7.61.37,1.2.71,1.71.99.65.38,1.24.71,1.78.98.55.31,1.17.63,1.88.99.87.46,1.74.89,2.64,1.32,1.77.89,3.67,1.76,5.62,2.59.62.27,1.25.54,1.88.81l1.1.47.09.04s.1.03.14.06l.07.04.08.03c.54.21,1.08.43,1.64.65.74.3,1.48.6,2.26.9l.71.27c1.08.41,2.19.84,3.32,1.23.68.26,1.39.53,2.1.76,1.33.48,2.8.99,4.77,1.65.33.11.65.21.98.32.77.25,1.56.52,2.33.75,2.23.74,4.72,1.5,7.84,2.41,1.46.43,2.9.84,4.1,1.17,1.5.44,2.89.82,4.2,1.15,1.01.28,2.06.58,3.11.84,1.45.39,2.92.75,4.34,1.1,1.56.41,3.02.76,4.4,1.07.66.18,1.32.33,1.91.46,1.36.32,2.82.66,4.3.98,2.06.47,4.51,1.02,7.1,1.55,1.05.23,2.17.48,3.3.69,1.15.24,2.35.47,3.55.71h.05c2.01.42,3.58.72,5.05.99,1.49.29,3.07.59,5.12.95,1.81.35,3.53.65,5.27.93,1.73.3,3.52.62,5.3.9,2.49.42,4.97.81,7.28,1.17,1.39.23,2.82.45,4.2.65.61.09,1.23.18,1.84.28,5.17.76,10.68,1.52,16.83,2.31,3.25.41,6.71.85,10.22,1.24,4.04.47,8.17.93,12.3,1.36,3.64.39,7.21.72,11.53,1.12,2.52.23,5.12.47,7.7.69,5.38.47,10.93.91,16.49,1.29,10.33.73,20.41,1.31,29.97,1.74,2.76.13,5.25.24,7.77.33l3.71.14c2.35.1,4.76.17,6.89.24l.77.02,1.58.05c2.65.09,5.36.17,8.06.21,3.5.1,7.05.17,10.53.21,6.65.11,13.62.17,21.32.17s14.7-.05,21.35-.17c3.49-.05,7.03-.12,10.53-.21,2.67-.05,5.38-.12,8.04-.21l1.25-.04,1.16-.03c2.24-.07,4.56-.14,6.84-.24l3.71-.14c2.52-.09,5.01-.21,7.77-.33,9.92-.44,20.08-1.03,30.18-1.76,1.83-.11,3.69-.25,5.48-.39.84-.06,1.67-.12,2.51-.19,3.3-.26,6.58-.54,9.93-.83,2.04-.17,4.07-.35,6.13-.55,2.12-.19,4.18-.38,6.21-.6,2.55-.23,5.14-.5,7.68-.79,1.83-.19,3.64-.38,5.47-.57,1.14-.14,2.32-.28,3.49-.4,3.82-.43,7.56-.89,11.14-1.36.83-.11,1.66-.22,2.48-.32.93-.12,1.87-.24,2.8-.36.07,0,.13-.02.18-.03h0c1.78-.24,3.62-.48,5.38-.74,4.26-.59,8.47-1.22,12.52-1.86,2.18-.34,4.49-.7,6.79-1.1,1.81-.29,3.64-.61,5.33-.91,1.76-.29,3.53-.6,5.23-.93,1.57-.28,3.39-.61,5.14-.95,1.72-.31,3.41-.65,5.05-.98,1.18-.22,2.33-.46,3.41-.69,1.17-.22,2.32-.46,3.38-.69,15.55-3.26,29.62-6.92,41.82-10.88.75-.23,1.57-.5,2.57-.84,10.87-3.6,20.3-7.51,28.01-11.6.5-.25,1.02-.53,1.57-.84.88-.46,1.71-.95,2.52-1.43.65-.38,1.3-.77,1.92-1.15.68-.42,1.28-.81,1.82-1.18.72-.46,1.27-.83,1.75-1.19.48-.34.97-.68,1.46-1.04.04-.03.09-.06.13-.09.08-.05.15-.11.21-.15.48-.36.97-.73,1.42-1.11,1.45-1.13,2.86-2.37,4.16-3.68,2.51-2.51,4.42-5.08,5.7-7.66v6.95c0,5.45-3.05,10.91-9.07,16.23-10.96,9.7-31.91,18.91-60.59,26.64-57.6,15.56-142.14,24.49-231.94,24.49s-174.33-8.93-231.91-24.49c-28.69-7.74-49.64-16.95-60.59-26.64-6.02-5.32-9.07-10.78-9.07-16.23v-6.95M766.35,423.66c0,2.55-.62,5.07-1.83,7.57-1.24,2.55-3.12,5.07-5.57,7.52-1.21,1.21-2.57,2.43-4.07,3.6-.45.38-.93.74-1.4,1.1-.12.1-.24.17-.36.26-.45.33-.93.67-1.4,1-.55.4-1.12.79-1.71,1.17-.6.4-1.19.79-1.81,1.17-.62.38-1.26.76-1.9,1.14-.81.48-1.62.95-2.48,1.4-.5.29-1.02.57-1.55.83-7.67,4.07-17.02,7.95-27.88,11.55-.83.29-1.69.57-2.55.83-12.19,3.95-26.19,7.59-41.73,10.86-1.1.24-2.21.48-3.36.69-1.12.24-2.24.48-3.4.69-1.67.33-3.33.67-5.05.98-1.69.33-3.4.64-5.14.95-1.71.33-3.45.64-5.21.93-1.76.31-3.55.62-5.33.9-2.24.38-4.5.74-6.79,1.1-4.07.64-8.24,1.26-12.5,1.86-1.76.26-3.57.5-5.38.74-.05,0-.1.02-.14.02-1.76.24-3.52.45-5.31.69-3.64.48-7.36.93-11.12,1.36-1.17.12-2.33.26-3.5.4-1.81.19-3.62.38-5.45.57-2.52.29-5.07.55-7.67.79-2.05.21-4.12.4-6.21.6-2.02.19-4.07.38-6.12.55-3.29.29-6.59.57-9.93.83-2.64.19-5.31.4-7.98.57-9.86.71-19.9,1.31-30.16,1.76-2.57.12-5.17.24-7.76.33-1.24.05-2.48.1-3.71.14-2.29.1-4.57.17-6.86.24-.79.02-1.6.05-2.38.07-2.67.1-5.33.17-8.02.21-3.5.1-7,.17-10.52.21-7.05.12-14.17.17-21.33.17s-14.26-.05-21.31-.17c-3.52-.05-7.02-.12-10.52-.21-2.69-.05-5.38-.12-8.05-.21-.79-.02-1.57-.05-2.36-.07-2.31-.07-4.59-.14-6.88-.24-1.24-.05-2.48-.1-3.71-.14-2.6-.1-5.19-.21-7.76-.33-10.17-.45-20.17-1.05-29.95-1.74-5.55-.38-11.05-.81-16.47-1.29-2.59-.21-5.17-.45-7.74-.69-3.86-.36-7.69-.71-11.48-1.12-4.14-.43-8.24-.88-12.28-1.36-3.45-.38-6.86-.81-10.21-1.24-5.74-.74-11.33-1.5-16.81-2.31-2.02-.31-4.05-.6-6.02-.93-2.45-.38-4.88-.76-7.29-1.17-1.79-.29-3.55-.6-5.31-.9-1.76-.29-3.5-.6-5.24-.93-1.74-.31-3.43-.62-5.12-.95-1.71-.31-3.4-.64-5.05-.98-1.21-.24-2.43-.48-3.6-.71-1.12-.21-2.21-.45-3.29-.69-2.43-.5-4.79-1.02-7.09-1.55-1.45-.31-2.88-.64-4.29-.98-.64-.14-1.26-.29-1.88-.45-1.5-.33-2.95-.69-4.4-1.07-1.45-.36-2.9-.71-4.33-1.1-1.05-.26-2.07-.55-3.09-.83-1.43-.36-2.81-.74-4.19-1.14-1.38-.38-2.74-.76-4.09-1.17-2.69-.79-5.29-1.57-7.81-2.4-1.12-.33-2.21-.71-3.31-1.07-1.62-.55-3.21-1.1-4.74-1.64-.71-.24-1.4-.5-2.1-.76-1.38-.48-2.71-1-4.02-1.5-1.33-.52-2.62-1.05-3.88-1.55-.12-.07-.26-.12-.38-.17-1-.43-1.98-.83-2.95-1.26-1.95-.83-3.81-1.69-5.57-2.57-.9-.43-1.76-.86-2.62-1.31-.62-.31-1.26-.64-1.86-.98-.6-.31-1.19-.64-1.76-.98-.57-.31-1.14-.64-1.69-.98-2.6-1.5-4.98-3.05-7.07-4.64-.43-.31-.86-.62-1.26-.95-.43-.33-.83-.67-1.24-1-.5-.4-.98-.83-1.45-1.26-.6-.52-1.14-1.05-1.67-1.57-2.45-2.48-4.31-4.98-5.55-7.52-1.21-2.5-1.83-5.02-1.83-7.57v15.09c0,5.86,3.26,11.55,9.4,16.97,11.33,10.02,32.5,19.17,61,26.86,55.5,15,138.92,24.52,232.17,24.52s176.68-9.52,232.2-24.52c28.52-7.69,49.66-16.83,61-26.86,6.14-5.43,9.4-11.12,9.4-16.97v-15.09h0Z"/>
    </g>
    <g>
      <path d="M170.6,354.31c11.48,9.8,31.9,18.71,60.72,26.49,57.74,15.61,142.46,24.56,232.43,24.56s174.69-8.95,232.46-24.56c28.82-7.77,49.24-16.68,60.72-26.49,5.59,5.13,8.42,10.39,8.42,15.64,0,2.37-.58,4.77-1.73,7.13-1.18,2.42-2.99,4.86-5.38,7.25-3.08,3.08-7.13,6.12-12.05,9.02-.61.37-1.24.73-2.01,1.16-.79.44-1.6.89-2.44,1.34l-.13.07-.02.02c-1.14.6-2.37,1.25-3.7,1.87-.87.43-1.77.85-2.7,1.28-.92.43-1.87.85-2.84,1.28-1.81.81-3.77,1.62-5.99,2.49-.71.28-1.45.57-2.17.85l-.84.32c-1.04.39-2.12.8-3.24,1.19-.72.28-1.49.54-2.24.8-1.12.39-2.27.8-3.47,1.19-.94.33-1.95.67-3.03.99-.62.21-1.26.42-1.94.62-1.04.34-2.27.74-3.56,1.12-.81.26-1.67.49-2.54.74-.83.25-1.7.52-2.58.76-2.79.8-5.43,1.52-8.1,2.21-1.21.32-2.44.62-3.68.94-.62.15-1.24.31-1.87.47-.93.24-1.85.46-2.73.66-1.58.4-3.2.78-4.85,1.14-1.82.44-3.57.84-5.36,1.21-1.64.37-3.55.79-5.51,1.19-1.74.36-3.5.71-5.28,1.07l-.09.02h-.03s-.05.01-.05.01l-.1.02c-1.62.32-3.3.66-5.01.97-1.75.35-3.56.67-5.14.95-1.7.33-3.44.64-5.2.93-1.7.3-3.52.61-5.33.9-2.29.39-4.6.75-6.77,1.09-4.04.64-8.24,1.26-12.49,1.86-1.74.26-3.56.5-5.33.73-.07,0-.14.02-.18.03h0c-.94.13-1.88.25-2.82.37-.82.11-1.65.21-2.48.32-3.56.47-7.3.92-11.09,1.35-1.18.12-2.37.27-3.5.4-1.81.19-3.62.38-5.46.57-2.54.29-5.11.55-7.66.78-2.03.21-4.09.4-6.2.59-2.05.19-4.06.38-6.11.55-3.34.29-6.61.57-9.91.83-.84.06-1.68.12-2.52.19-1.81.14-3.63.27-5.46.39-10.09.73-20.23,1.32-30.14,1.76-2.76.13-5.25.24-7.75.33l-2.78.11-.94.04c-2.26.09-4.56.17-6.78.24h-.06s-1.32.04-1.32.04l-1.07.03c-2.65.09-5.34.17-8.01.21-3.49.09-7.02.17-10.51.21-6.63.11-13.6.17-21.31.17s-14.66-.05-21.29-.17c-3.49-.05-7.02-.12-10.52-.21-2.69-.05-5.39-.12-8.03-.21l-2.36-.07c-2.13-.07-4.54-.14-6.87-.24l-.97-.04-2.74-.11c-2.5-.09-4.99-.21-7.75-.33-9.55-.42-19.62-1.01-29.93-1.74-5.55-.38-11.09-.81-16.46-1.28-2.58-.21-5.17-.45-7.73-.69-4.27-.4-7.83-.73-11.46-1.12-4.12-.43-8.24-.88-12.27-1.36-3.28-.38-6.79-.8-10.2-1.24-6.14-.79-11.63-1.54-16.78-2.31-.62-.09-1.23-.19-1.85-.28-1.37-.21-2.8-.42-4.18-.65-2.22-.34-4.79-.75-7.28-1.17-1.78-.28-3.56-.6-5.31-.9-1.71-.28-3.42-.58-5.22-.93-2.06-.37-3.63-.66-5.12-.95-1.47-.27-3.02-.57-5.03-.97l-.1-.02h-.06l-.05-.02h-.06c-2.02-.42-4.02-.82-5.99-1.22-4.85-1.03-9.65-2.1-14.28-3.21l-1.58-.39c-1-.24-1.98-.48-2.97-.73-.93-.23-1.84-.47-2.75-.7h-.05c-14.42-3.71-26.95-7.74-37.24-11.98-1-.38-1.96-.79-2.68-1.11-.87-.37-2.01-.85-3.12-1.37l-.17-.08c-.99-.45-1.92-.87-2.85-1.32-1.08-.5-2.01-.96-2.87-1.42-.47-.22-1.08-.52-1.68-.86-.9-.47-1.76-.95-2.59-1.41-.81-.46-1.65-.95-2.46-1.43-.52-.3-1.02-.61-1.56-.95-4.01-2.52-7.39-5.14-10.03-7.78-2.39-2.41-4.19-4.85-5.36-7.26-1.15-2.37-1.73-4.77-1.73-7.13,0-5.25,2.83-10.51,8.42-15.64M756.95,352.98c-11.33,10.02-32.47,19.17-61,26.86-55.52,15-138.92,24.52-232.2,24.52s-176.68-9.52-232.17-24.52c-28.5-7.69-49.66-16.83-61-26.86-6.14,5.43-9.4,11.12-9.4,16.97,0,2.55.62,5.07,1.83,7.57,1.24,2.55,3.09,5.05,5.55,7.52,2.71,2.71,6.12,5.36,10.21,7.93.52.33,1.05.67,1.6.98.79.48,1.62.95,2.45,1.43.86.48,1.71.95,2.62,1.43.55.31,1.12.6,1.71.88.93.5,1.9.98,2.88,1.43.98.48,1.98.93,3.02,1.4,1.02.48,2.07.93,3.14,1.38.88.38,1.79.76,2.71,1.12,10.52,4.33,23.07,8.33,37.35,12,.93.24,1.86.48,2.81.71,1.5.38,3,.74,4.55,1.12,4.59,1.1,9.36,2.17,14.31,3.21,1.98.4,3.98.81,6,1.21.07.02.17.05.26.05,1.64.33,3.33.67,5.05.98,1.69.33,3.38.64,5.12.95,1.74.33,3.48.64,5.24.93,1.76.31,3.52.62,5.31.9,2.4.4,4.83.79,7.29,1.17,1.98.33,4,.62,6.02.93,5.48.81,11.07,1.57,16.81,2.31,3.36.43,6.76.83,10.21,1.24,4.05.48,8.14.93,12.28,1.36,3.79.4,7.62.76,11.48,1.12,2.57.24,5.14.48,7.74.69,5.43.48,10.93.9,16.47,1.29,9.79.69,19.78,1.29,29.95,1.74,2.57.12,5.17.24,7.76.33,1.24.05,2.48.1,3.71.14,2.29.1,4.57.17,6.88.24.79.02,1.57.05,2.36.07,2.67.1,5.36.17,8.05.21,3.5.1,7,.17,10.52.21,7.05.12,14.14.17,21.31.17s14.28-.05,21.33-.17c3.52-.05,7.02-.12,10.52-.21,2.69-.05,5.36-.12,8.02-.21.79-.02,1.6-.05,2.38-.07,2.29-.07,4.57-.14,6.86-.24,1.24-.05,2.48-.1,3.71-.14,2.59-.1,5.19-.21,7.76-.33,10.26-.45,20.31-1.05,30.16-1.76,2.67-.17,5.33-.38,7.98-.57,3.33-.26,6.64-.55,9.93-.83,2.05-.17,4.09-.36,6.12-.55,2.1-.19,4.17-.38,6.21-.6,2.59-.24,5.14-.5,7.67-.79,1.83-.19,3.64-.38,5.45-.57,1.17-.14,2.33-.29,3.5-.4,3.76-.43,7.48-.88,11.12-1.36,1.79-.24,3.55-.45,5.31-.69.05,0,.1-.02.14-.02,1.81-.24,3.62-.48,5.38-.74,4.26-.6,8.43-1.21,12.5-1.86,2.29-.36,4.55-.71,6.79-1.1,1.79-.29,3.57-.6,5.33-.9,1.76-.29,3.5-.6,5.21-.93,1.74-.31,3.45-.62,5.14-.95,1.71-.31,3.38-.64,5.05-.98.1,0,.17-.02.24-.05,1.79-.36,3.55-.71,5.29-1.07,1.88-.38,3.71-.79,5.52-1.19,1.83-.38,3.62-.79,5.38-1.21,1.64-.36,3.26-.74,4.86-1.14.93-.21,1.83-.43,2.74-.67,1.88-.48,3.74-.93,5.55-1.4,2.79-.71,5.48-1.45,8.12-2.21.88-.24,1.74-.5,2.6-.76.86-.24,1.71-.48,2.55-.74,1.21-.36,2.4-.74,3.57-1.12.67-.19,1.31-.4,1.95-.62,1.02-.31,2.05-.64,3.05-1,1.19-.38,2.33-.79,3.48-1.19.76-.26,1.52-.52,2.26-.81,1.38-.48,2.74-1,4.07-1.5.74-.29,1.48-.57,2.19-.86,2.07-.81,4.09-1.64,6.02-2.5.98-.43,1.93-.86,2.86-1.29.93-.43,1.83-.86,2.71-1.29,1.31-.62,2.55-1.26,3.76-1.9.05-.02.1-.05.12-.07.86-.45,1.67-.9,2.48-1.36.69-.38,1.36-.76,2.02-1.17,5-2.95,9.09-6.02,12.24-9.17,2.45-2.45,4.33-4.98,5.57-7.52,1.21-2.5,1.83-5.02,1.83-7.57,0-5.86-3.26-11.55-9.4-16.97h0Z"/>
      <path d="M162.18,378.1c1.27,2.56,3.17,5.13,5.67,7.66,2.75,2.75,6.25,5.47,10.38,8.06.52.33,1.05.67,1.62.99.72.45,1.53.93,2.46,1.43.98.57,1.83,1.03,2.65,1.45.62.35,1.26.66,1.71.88.86.46,1.82.94,2.92,1.45.88.43,1.94.94,3.04,1.41,1.12.52,2.23,1,3.17,1.39.74.32,1.72.74,2.73,1.13,10.36,4.27,22.97,8.32,37.49,12.04l.08.02c.9.23,1.81.46,2.72.69,1.75.45,3.2.81,4.57,1.12,4.65,1.11,9.47,2.19,14.34,3.22,1.96.4,3.95.8,5.95,1.2.13.04.26.06.38.07,1.98.4,3.52.7,4.98.96,1.49.29,3.07.59,5.12.95,1.81.35,3.53.65,5.27.93,1.73.3,3.52.62,5.3.9,2.49.42,4.97.81,7.28,1.17,1.39.23,2.82.45,4.2.65.61.09,1.23.18,1.84.28,5.17.76,10.67,1.52,16.83,2.31,3.25.41,6.71.85,10.22,1.24,4.04.47,8.17.93,12.3,1.36,3.65.39,7.21.72,11.51,1.12,2.52.23,5.13.48,7.72.69,5.38.47,10.93.9,16.49,1.29,10.33.73,20.41,1.31,29.97,1.74,2.77.13,5.26.24,7.77.33l3.71.14c2.35.1,4.76.17,6.89.24l2.35.07c2.65.09,5.36.17,8.06.21,3.5.1,7.04.17,10.53.21,6.64.11,13.62.17,21.32.17s14.71-.05,21.35-.17c3.49-.05,7.04-.12,10.53-.21,2.68-.05,5.38-.12,8.04-.21l1.13-.03,1.28-.04c2.24-.07,4.56-.14,6.84-.24l3.71-.14c2.51-.09,5.01-.21,7.77-.33,9.92-.44,20.08-1.03,30.18-1.76,1.83-.11,3.68-.25,5.48-.39.84-.06,1.67-.13,2.51-.19,3.31-.26,6.59-.54,9.93-.83,2.05-.17,4.07-.35,6.13-.55,2.11-.19,4.18-.38,6.21-.6,2.55-.23,5.14-.5,7.68-.79,1.83-.19,3.64-.38,5.47-.57,1.14-.14,2.32-.28,3.49-.4,3.81-.43,7.56-.89,11.14-1.36.83-.11,1.66-.22,2.48-.32.93-.12,1.87-.24,2.8-.36.07,0,.13-.02.18-.03,1.78-.23,3.62-.48,5.38-.74,4.26-.59,8.47-1.22,12.52-1.86,2.18-.34,4.49-.7,6.79-1.1,1.81-.29,3.64-.61,5.33-.91,1.76-.29,3.53-.6,5.23-.93,1.57-.28,3.39-.61,5.14-.95,1.69-.31,3.37-.64,4.99-.97.15-.01.28-.05.37-.07,1.77-.35,3.51-.71,5.23-1.06,1.98-.4,3.9-.83,5.53-1.19,1.8-.37,3.57-.77,5.39-1.22,1.64-.36,3.29-.74,4.87-1.15.88-.2,1.82-.42,2.75-.67,1.67-.4,3.44-.85,5.56-1.41,2.67-.69,5.34-1.41,8.13-2.22.9-.24,1.78-.51,2.61-.77.85-.24,1.72-.48,2.55-.74,1.29-.38,2.55-.78,3.56-1.12.69-.2,1.35-.42,1.97-.62,1.09-.33,2.13-.67,3.06-1,1.2-.39,2.37-.8,3.5-1.2.76-.26,1.54-.53,2.26-.81,1.1-.38,2.2-.79,3.26-1.19l.85-.32c.74-.29,1.48-.57,2.19-.86,2.24-.87,4.22-1.7,6.06-2.52.98-.43,1.94-.86,2.87-1.29.93-.43,1.85-.86,2.72-1.29,1.37-.65,2.63-1.31,3.78-1.91.05-.03.12-.06.2-.11.77-.39,1.55-.82,2.44-1.34.78-.43,1.43-.81,2.05-1.18,5.05-2.98,9.23-6.12,12.44-9.32,2.51-2.51,4.42-5.08,5.7-7.66v6.95c0,6.24-3.99,12.47-11.87,18.54-11.5,8.84-31.48,17.25-57.79,24.33-57.6,15.56-142.14,24.49-231.94,24.49s-174.33-8.93-231.91-24.49c-26.71-7.22-46.16-15.4-57.79-24.33-7.88-6.07-11.87-12.3-11.87-18.54v-6.95M766.35,369.95c0,2.55-.62,5.07-1.83,7.57-1.24,2.55-3.12,5.07-5.57,7.52-3.14,3.14-7.24,6.21-12.24,9.17-.67.4-1.33.79-2.02,1.17-.81.48-1.62.93-2.48,1.36-.02.02-.07.05-.12.07-1.21.64-2.45,1.29-3.76,1.9-.88.43-1.79.86-2.71,1.29-.93.43-1.88.86-2.86,1.29-1.93.86-3.95,1.69-6.02,2.5-.71.29-1.45.57-2.19.86-1.33.5-2.69,1.02-4.07,1.5-.74.29-1.5.55-2.26.81-1.14.4-2.29.81-3.48,1.19-1,.36-2.02.69-3.05,1-.64.21-1.29.43-1.95.62-1.17.38-2.36.76-3.57,1.12-.83.26-1.69.5-2.55.74-.86.26-1.71.52-2.6.76-2.64.76-5.33,1.5-8.12,2.21-1.81.48-3.67.95-5.55,1.4-.9.24-1.81.45-2.74.67-1.6.4-3.21.79-4.86,1.14-1.76.43-3.55.83-5.38,1.21-1.81.4-3.64.81-5.52,1.19-1.74.36-3.5.71-5.29,1.07-.07.02-.14.05-.24.05-1.67.33-3.33.67-5.05.98-1.69.33-3.4.64-5.14.95-1.71.33-3.45.64-5.21.93-1.76.31-3.55.62-5.33.9-2.24.38-4.5.74-6.79,1.1-4.07.64-8.24,1.26-12.5,1.86-1.76.26-3.57.5-5.38.74-.05,0-.1.02-.14.02-1.76.24-3.52.45-5.31.69-3.64.48-7.36.93-11.12,1.36-1.17.12-2.33.26-3.5.4-1.81.19-3.62.38-5.45.57-2.52.29-5.07.55-7.67.79-2.05.21-4.12.4-6.21.6-2.02.19-4.07.38-6.12.55-3.29.29-6.59.57-9.93.83-2.64.19-5.31.4-7.98.57-9.86.71-19.9,1.31-30.16,1.76-2.57.12-5.17.24-7.76.33-1.24.05-2.48.1-3.71.14-2.29.1-4.57.17-6.86.24-.79.02-1.6.05-2.38.07-2.67.1-5.33.17-8.02.21-3.5.1-7,.17-10.52.21-7.05.12-14.17.17-21.33.17s-14.26-.05-21.31-.17c-3.52-.05-7.02-.12-10.52-.21-2.69-.05-5.38-.12-8.05-.21-.79-.02-1.57-.05-2.36-.07-2.31-.07-4.59-.14-6.88-.24-1.24-.05-2.48-.1-3.71-.14-2.6-.1-5.19-.21-7.76-.33-10.17-.45-20.17-1.05-29.95-1.74-5.55-.38-11.05-.81-16.47-1.29-2.59-.21-5.17-.45-7.74-.69-3.86-.36-7.69-.71-11.48-1.12-4.14-.43-8.24-.88-12.28-1.36-3.45-.38-6.86-.81-10.21-1.24-5.74-.74-11.33-1.5-16.81-2.31-2.02-.31-4.05-.6-6.02-.93-2.45-.38-4.88-.76-7.29-1.17-1.79-.29-3.55-.6-5.31-.9-1.76-.29-3.5-.6-5.24-.93-1.74-.31-3.43-.62-5.12-.95-1.71-.31-3.4-.64-5.05-.98-.1,0-.19-.02-.26-.05-2.02-.4-4.02-.81-6-1.21-4.95-1.05-9.71-2.12-14.31-3.21-1.55-.36-3.07-.74-4.55-1.12-.95-.24-1.88-.48-2.81-.71-14.28-3.67-26.83-7.67-37.35-12-.93-.36-1.83-.74-2.71-1.12-1.07-.45-2.12-.9-3.14-1.38-1.05-.45-2.05-.93-3.02-1.4-.98-.45-1.95-.93-2.88-1.43-.6-.29-1.17-.57-1.71-.88-.9-.45-1.76-.93-2.62-1.43-.83-.45-1.67-.93-2.45-1.43-.55-.31-1.07-.64-1.6-.98-4.09-2.57-7.5-5.21-10.21-7.93-2.45-2.48-4.31-4.98-5.55-7.52-1.21-2.5-1.83-5.02-1.83-7.57v15.09c0,6.71,4.29,13.19,12.26,19.33,11.86,9.09,31.88,17.4,58.14,24.5,55.5,15,138.92,24.52,232.17,24.52s176.68-9.52,232.2-24.52c26.28-7.07,46.31-15.4,58.14-24.5,7.98-6.14,12.26-12.62,12.26-19.33v-15.09h0Z"/>
    </g>
    <g>
      <path d="M173.45,302.89c11.9,8.9,31.37,17.04,57.87,24.2,57.74,15.61,142.46,24.56,232.43,24.56s174.69-8.95,232.46-24.56c26.48-7.12,45.94-15.26,57.87-24.2,7.48,5.87,11.27,11.93,11.27,18.02,0,2.37-.58,4.77-1.73,7.13-1.18,2.42-2.99,4.86-5.38,7.25-1.25,1.25-2.59,2.43-4.01,3.54-.43.37-.9.72-1.39,1.08-.04.03-.08.06-.13.09-.08.05-.15.11-.2.14-.45.33-.92.66-1.39.99-1.53,1.1-3.28,2.22-5.35,3.43-.79.46-1.6.94-2.46,1.4-.54.31-1.04.58-1.52.82-7.63,4.05-16.96,7.92-27.73,11.48-.63.21-1.57.53-2.53.83-12.15,3.94-26.15,7.58-41.64,10.83-1.05.23-2.18.47-3.36.69-1.09.23-2.22.47-3.38.69-1.63.33-3.32.66-5.04.98-1.75.35-3.56.67-5.14.95-1.7.33-3.44.64-5.2.93-1.7.3-3.52.62-5.33.9-2.3.39-4.61.75-6.77,1.09-11.93,1.87-24.33,3.53-36.86,4.95-2.07.23-4.28.47-6.5.69-2.54.29-5.11.55-7.66.78-2.03.21-4.09.4-6.2.59-2.05.19-4.07.38-6.11.55-3.34.29-6.62.57-9.91.83-.83.06-1.67.12-2.51.19-1.81.14-3.64.27-5.46.39h-.13s-.04.02-.04.02h-.05c-2.72.2-5.38.39-8.04.55-7.69.48-14.84.87-21.89,1.19-2.75.13-5.24.24-7.75.33l-1.84.07-1.87.07c-2.27.09-4.59.17-6.85.24l-1.04.03-1.34.04c-2.66.09-5.35.17-8.01.21-3.5.1-7.03.17-10.51.21-6.64.11-13.61.17-21.31.17s-14.65-.05-21.29-.17c-3.48-.05-7.01-.12-10.52-.21-2.69-.05-5.39-.12-8.03-.21h-.07s-2.29-.07-2.29-.07c-2.12-.07-4.53-.14-6.87-.24l-1.84-.07-1.87-.07c-2.52-.09-5-.21-7.75-.33-6.63-.29-13.43-.66-20.81-1.12-3.01-.19-6.03-.4-9.11-.62-5.55-.38-11.08-.81-16.46-1.28-2.61-.22-5.21-.46-7.73-.69-3.35-.31-7.52-.7-11.46-1.12-4.12-.43-8.25-.88-12.27-1.36-3.28-.38-6.78-.8-10.2-1.24-10.22-1.3-20.34-2.78-30.09-4.4-1.77-.28-3.55-.6-5.31-.9-1.72-.28-3.42-.58-5.22-.93-2.06-.37-3.63-.66-5.12-.95-1.48-.27-3.03-.57-5.03-.97-1.21-.24-2.42-.48-3.6-.71-1.12-.22-2.23-.46-3.27-.69-1.16-.24-2.28-.48-3.38-.71-.56-.13-1.12-.25-1.68-.38-.67-.15-1.34-.3-2.02-.46-2.19-.47-4.25-.95-6.16-1.43-1.4-.31-2.83-.66-4.4-1.07-1.42-.35-2.88-.71-4.31-1.09-1.03-.26-2.07-.55-3.08-.83-5.71-1.51-11.1-3.09-16.06-4.7-1.15-.35-2.29-.73-3.43-1.11-1.74-.58-3.18-1.07-4.58-1.59-1.57-.56-2.91-1.05-4.1-1.49-5.31-1.99-10.26-4.1-14.71-6.28-.89-.42-1.74-.84-2.61-1.31-.53-.26-1.11-.56-1.83-.96-.53-.28-1.1-.59-1.75-.97-.51-.27-1.06-.59-1.67-.96-2.64-1.53-4.99-3.07-6.99-4.59-.41-.29-.83-.6-1.23-.93-1.54-1.2-2.98-2.46-4.26-3.75-2.39-2.41-4.19-4.85-5.36-7.26-1.15-2.37-1.73-4.77-1.73-7.13,0-6.09,3.79-12.15,11.27-18.02M754.09,301.63c-11.83,9.09-31.85,17.43-58.14,24.5-55.52,15-138.92,24.52-232.2,24.52s-176.68-9.52-232.17-24.52c-26.26-7.09-46.28-15.4-58.14-24.5-7.98,6.09-12.26,12.57-12.26,19.28,0,2.55.62,5.07,1.83,7.57,1.24,2.55,3.09,5.05,5.55,7.52,1.29,1.29,2.74,2.57,4.36,3.83.4.33.83.64,1.26.95,2.1,1.6,4.48,3.14,7.07,4.64.55.33,1.12.67,1.69.98.57.33,1.17.67,1.76.98.6.33,1.21.67,1.86.98.86.45,1.71.88,2.62,1.31,4.43,2.17,9.38,4.29,14.78,6.31,1.33.5,2.71,1,4.12,1.5,1.48.55,3.02,1.07,4.59,1.6,1.14.38,2.29.76,3.45,1.12,5.05,1.64,10.43,3.21,16.09,4.71,1.02.29,2.05.57,3.09.83,1.43.38,2.88.74,4.33,1.1,1.45.38,2.9.74,4.4,1.07,2,.5,4.07.98,6.17,1.43,1.21.29,2.45.55,3.69.83,1.12.24,2.24.48,3.4.71,1.07.24,2.17.48,3.29.69,1.17.24,2.38.48,3.6.71,1.64.33,3.33.67,5.05.98,1.69.33,3.38.64,5.12.95,1.74.33,3.48.64,5.24.93,1.76.31,3.52.62,5.31.9,9.62,1.6,19.67,3.07,30.12,4.4,3.36.43,6.76.83,10.21,1.24,4.05.48,8.14.93,12.28,1.36,3.79.4,7.62.76,11.48,1.12,2.57.24,5.14.48,7.74.69,5.43.48,10.93.9,16.47,1.29,3.02.21,6.07.43,9.12.62,6.86.43,13.78.81,20.83,1.12,2.57.12,5.17.24,7.76.33,1.24.05,2.48.1,3.71.14,2.29.1,4.57.17,6.88.24.79.02,1.57.05,2.36.07,2.67.1,5.36.17,8.05.21,3.5.1,7,.17,10.52.21,7.05.12,14.14.17,21.31.17s14.28-.05,21.33-.17c3.52-.05,7.02-.12,10.52-.21,2.69-.05,5.36-.12,8.02-.21.79-.02,1.6-.05,2.38-.07,2.29-.07,4.57-.14,6.86-.24,1.24-.05,2.48-.1,3.71-.14,2.59-.1,5.19-.21,7.76-.33,7.4-.33,14.71-.74,21.9-1.19,2.69-.17,5.38-.36,8.05-.55.07,0,.14,0,.21-.02,2.67-.17,5.33-.38,7.98-.57,3.33-.26,6.64-.55,9.93-.83,2.05-.17,4.09-.36,6.12-.55,2.1-.19,4.17-.38,6.21-.6,2.59-.24,5.14-.5,7.67-.79,2.19-.21,4.36-.45,6.5-.69,12.86-1.45,25.19-3.12,36.9-4.95,2.29-.36,4.55-.71,6.79-1.1,1.79-.29,3.57-.6,5.33-.9,1.76-.29,3.5-.6,5.21-.93,1.74-.31,3.45-.62,5.14-.95,1.71-.31,3.38-.64,5.05-.98,1.17-.21,2.29-.45,3.4-.69,1.14-.21,2.26-.45,3.36-.69,15.55-3.26,29.55-6.9,41.73-10.86.86-.26,1.71-.55,2.55-.83,10.86-3.6,20.21-7.48,27.88-11.55.52-.26,1.05-.55,1.55-.83.86-.45,1.67-.93,2.48-1.4,1.95-1.14,3.76-2.29,5.43-3.48.48-.33.95-.67,1.4-1,.12-.1.24-.17.36-.26.48-.36.95-.71,1.4-1.1,1.5-1.17,2.86-2.38,4.07-3.59,2.45-2.45,4.33-4.98,5.57-7.52,1.21-2.5,1.83-5.02,1.83-7.57,0-6.71-4.29-13.19-12.26-19.28h0Z"/>
      <path d="M162.18,329.05c1.27,2.56,3.17,5.13,5.67,7.66,1.35,1.35,2.84,2.66,4.43,3.9.43.35.88.68,1.29.98,2.04,1.56,4.46,3.14,7.16,4.7.62.37,1.2.71,1.71.99.65.38,1.24.71,1.78.99.73.41,1.34.73,1.88.99.87.46,1.74.89,2.65,1.32,4.5,2.2,9.5,4.34,14.87,6.35,1.2.45,2.56.94,4.12,1.5,1.41.52,2.87,1.02,4.65,1.61,1.12.37,2.28.76,3.43,1.11,4.97,1.62,10.41,3.21,16.13,4.73,1.01.28,2.06.57,3.11.84,1.44.38,2.92.75,4.34,1.1,1.57.41,3.02.76,4.42,1.07,1.9.48,3.99.96,6.18,1.43.67.16,1.35.31,2.03.46.55.12,1.11.25,1.68.38,1.12.24,2.24.48,3.4.71,1.04.23,2.16.48,3.3.69,1.17.24,2.39.48,3.6.71,2.02.41,3.58.71,5.05.98,1.48.29,3.07.59,5.12.95,1.81.35,3.53.65,5.26.93,1.74.3,3.53.62,5.32.91,9.77,1.62,19.91,3.1,30.15,4.41,3.25.42,6.72.85,10.22,1.24,4.03.47,8.17.93,12.3,1.36,3.66.39,7.37.74,11.49,1.12,2.53.23,5.14.48,7.74.69,5.39.47,10.94.91,16.49,1.29,3.08.22,6.1.43,9.13.62,7.4.46,14.22.83,20.85,1.12,2.76.13,5.25.24,7.77.33l1.24.05,2.47.1c2.34.1,4.76.17,6.89.24l1.56.05.8.02c2.65.09,5.37.17,8.06.21,3.51.1,7.05.17,10.53.21,6.65.11,13.62.17,21.32.17s14.7-.05,21.35-.17c3.48-.05,7.03-.12,10.53-.21,2.67-.05,5.37-.12,8.04-.21l1.27-.04,1.11-.03h.06c2.23-.07,4.53-.14,6.8-.24l2.53-.1,1.19-.05c2.53-.09,5.01-.21,7.77-.33,7.05-.32,14.22-.71,21.92-1.19,2.73-.17,5.42-.36,8.02-.55.08,0,.2,0,.33-.03,1.8-.11,3.62-.25,5.39-.38.84-.06,1.67-.13,2.51-.19,3.31-.26,6.59-.54,9.93-.83,2.06-.17,4.07-.36,6.13-.55,2.11-.19,4.17-.38,6.21-.6,2.55-.23,5.14-.5,7.67-.79,2.22-.22,4.43-.46,6.51-.69,12.56-1.42,24.99-3.09,36.94-4.96,2.17-.34,4.48-.7,6.79-1.1,1.81-.29,3.64-.61,5.33-.91,1.76-.29,3.53-.6,5.23-.93,1.57-.28,3.39-.61,5.14-.95,1.72-.31,3.41-.65,5.05-.98,1.18-.22,2.32-.46,3.41-.69,1.18-.22,2.32-.47,3.38-.69,15.55-3.26,29.62-6.92,41.82-10.88.75-.23,1.55-.49,2.57-.84,10.87-3.6,20.3-7.51,28.01-11.6.5-.25,1.02-.53,1.57-.84.88-.46,1.71-.95,2.51-1.43,2.12-1.24,3.92-2.39,5.5-3.52.48-.34.97-.68,1.46-1.04.04-.03.08-.06.13-.09.08-.05.15-.11.21-.15.48-.36.97-.73,1.42-1.11,1.45-1.13,2.86-2.37,4.16-3.68,2.51-2.51,4.42-5.08,5.7-7.66v6.95c0,5.45-3.05,10.91-9.07,16.23-10.96,9.69-31.91,18.91-60.59,26.64-57.6,15.56-142.14,24.49-231.94,24.49s-174.33-8.93-231.91-24.49c-28.69-7.74-49.64-16.95-60.59-26.64-6.02-5.32-9.07-10.78-9.07-16.23v-6.95M766.35,320.91c0,2.55-.62,5.07-1.83,7.57-1.24,2.55-3.12,5.07-5.57,7.52-1.21,1.21-2.57,2.43-4.07,3.6-.45.38-.93.74-1.4,1.1-.12.1-.24.17-.36.26-.45.33-.93.67-1.4,1-1.67,1.19-3.48,2.33-5.43,3.48-.81.48-1.62.95-2.48,1.4-.5.29-1.02.57-1.55.83-7.67,4.07-17.02,7.95-27.88,11.55-.83.29-1.69.57-2.55.83-12.19,3.95-26.19,7.59-41.73,10.86-1.1.24-2.21.48-3.36.69-1.12.24-2.24.48-3.4.69-1.67.33-3.33.67-5.05.98-1.69.33-3.4.64-5.14.95-1.71.33-3.45.64-5.21.93-1.76.31-3.55.62-5.33.9-2.24.38-4.5.74-6.79,1.1-11.71,1.83-24.05,3.5-36.9,4.95-2.14.24-4.31.48-6.5.69-2.52.29-5.07.55-7.67.79-2.05.21-4.12.4-6.21.6-2.02.19-4.07.38-6.12.55-3.29.29-6.59.57-9.93.83-2.64.19-5.31.4-7.98.57-.07.02-.14.02-.21.02-2.67.19-5.33.38-8.05.55-7.19.45-14.5.86-21.9,1.19-2.57.12-5.17.24-7.76.33-1.24.05-2.48.1-3.71.14-2.29.1-4.57.17-6.86.24-.79.02-1.6.05-2.38.07-2.67.1-5.33.17-8.02.21-3.5.1-7,.17-10.52.21-7.05.12-14.17.17-21.33.17s-14.26-.05-21.31-.17c-3.52-.05-7.02-.12-10.52-.21-2.69-.05-5.38-.12-8.05-.21-.79-.02-1.57-.05-2.36-.07-2.31-.07-4.59-.14-6.88-.24-1.24-.05-2.48-.1-3.71-.14-2.6-.1-5.19-.21-7.76-.33-7.05-.31-13.98-.69-20.83-1.12-3.05-.19-6.09-.4-9.12-.62-5.55-.38-11.05-.81-16.47-1.29-2.59-.21-5.17-.45-7.74-.69-3.86-.36-7.69-.71-11.48-1.12-4.14-.43-8.24-.88-12.28-1.36-3.45-.38-6.86-.81-10.21-1.24-10.45-1.33-20.5-2.81-30.12-4.4-1.79-.29-3.55-.6-5.31-.9-1.76-.29-3.5-.6-5.24-.93-1.74-.31-3.43-.62-5.12-.95-1.71-.31-3.4-.64-5.05-.98-1.21-.24-2.43-.48-3.6-.71-1.12-.21-2.21-.45-3.29-.69-1.17-.24-2.29-.48-3.4-.71-1.24-.29-2.48-.55-3.69-.83-2.1-.45-4.17-.93-6.17-1.43-1.5-.33-2.95-.69-4.4-1.07-1.45-.36-2.9-.71-4.33-1.1-1.05-.26-2.07-.55-3.09-.83-5.67-1.5-11.05-3.07-16.09-4.71-1.17-.36-2.31-.74-3.45-1.12-1.57-.52-3.12-1.05-4.59-1.6-1.4-.5-2.79-1-4.12-1.5-5.4-2.02-10.36-4.14-14.78-6.31-.9-.43-1.76-.86-2.62-1.31-.64-.31-1.26-.64-1.86-.98-.6-.31-1.19-.64-1.76-.98-.57-.31-1.14-.64-1.69-.98-2.6-1.5-4.98-3.05-7.07-4.64-.43-.31-.86-.62-1.26-.95-1.62-1.26-3.07-2.55-4.36-3.83-2.45-2.48-4.31-4.98-5.55-7.52-1.21-2.5-1.83-5.02-1.83-7.57v15.09c0,5.86,3.26,11.55,9.4,16.97,11.33,10.02,32.5,19.17,61,26.85,55.5,15,138.92,24.52,232.17,24.52s176.68-9.52,232.2-24.52c28.52-7.69,49.66-16.83,61-26.85,6.14-5.43,9.4-11.12,9.4-16.97v-15.09h0Z"/>
    </g>
    <g>
      <path d="M463.76,199.85c80.75,0,156.66,7.1,213.75,20,27.7,6.26,49.43,13.54,64.6,21.63,15.43,8.24,23.25,16.89,23.25,25.72,0,2.37-.58,4.77-1.73,7.13-1.18,2.42-2.99,4.86-5.38,7.25-3.95,3.94-9.54,7.84-16.62,11.58-17.6,9.29-44.74,17.74-78.48,24.43-55.09,10.93-125.9,16.96-199.39,16.96s-144.27-6.02-199.36-16.96c-33.81-6.7-60.95-15.15-78.48-24.43-7.09-3.73-12.69-7.63-16.64-11.58-2.39-2.41-4.19-4.85-5.36-7.26-1.15-2.37-1.73-4.77-1.73-7.13,0-8.83,7.82-17.48,23.25-25.72,15.16-8.1,36.89-15.38,64.59-21.63,57.09-12.9,132.99-20,213.73-20M463.76,198.85c-167.11,0-302.57,30.62-302.57,68.35,0,2.55.62,5.07,1.83,7.57,1.24,2.55,3.09,5.05,5.55,7.52,4.07,4.07,9.74,8,16.88,11.76,17.9,9.48,45,17.83,78.76,24.52,53.26,10.57,123.11,16.97,199.56,16.97s146.32-6.4,199.58-16.97c33.76-6.69,60.85-15.07,78.76-24.52,7.12-3.76,12.78-7.69,16.86-11.76,2.45-2.45,4.33-4.98,5.57-7.52,1.21-2.5,1.83-5.02,1.83-7.57,0-37.74-135.47-68.35-302.6-68.35h0Z"/>
      <path d="M162.18,275.34c1.27,2.56,3.17,5.13,5.67,7.66,4.1,4.1,9.86,8.11,17.12,11.94,17.7,9.37,45.03,17.88,79.03,24.62,55.21,10.96,126.15,16.99,199.75,16.99s144.56-6.04,199.77-16.99c33.93-6.72,61.26-15.24,79.03-24.62,7.26-3.84,13.01-7.85,17.1-11.94,2.51-2.51,4.42-5.08,5.7-7.66v6.95c0,6.24-3.99,12.47-11.87,18.54-11.5,8.84-31.48,17.25-57.79,24.33-57.6,15.56-142.14,24.49-231.94,24.49s-174.33-8.93-231.91-24.49c-26.71-7.22-46.16-15.4-57.79-24.32-7.88-6.07-11.87-12.3-11.87-18.54v-6.95M766.35,267.2c0,2.55-.62,5.07-1.83,7.57-1.24,2.55-3.12,5.07-5.57,7.52-4.07,4.07-9.74,8-16.86,11.76-17.9,9.45-45,17.83-78.76,24.52-53.26,10.57-123.11,16.97-199.58,16.97s-146.3-6.4-199.56-16.97c-33.76-6.69-60.85-15.05-78.76-24.52-7.14-3.76-12.81-7.69-16.88-11.76-2.45-2.48-4.31-4.98-5.55-7.52-1.21-2.5-1.83-5.02-1.83-7.57v15.09c0,6.71,4.29,13.19,12.26,19.33,11.86,9.09,31.88,17.4,58.14,24.5,55.5,15,138.92,24.52,232.17,24.52s176.68-9.52,232.2-24.52c26.28-7.07,46.31-15.4,58.14-24.5,7.98-6.14,12.26-12.62,12.26-19.33v-15.09h0Z"/>
    </g>
    <g>
      <polygon class="cls-1" points="498.11 514 498.11 514.1 497.42 514.05 498.11 514"/>
      <path class="cls-1" d="M843.73,513.98v4.81c0-.81-.1-1.62-.31-2.4-.17.83-.48,1.62-.86,2.4-4.83,9.83-24.21,17.17-47.4,17.19-.9,0-1.86-.02-2.76-.05l-10.09-.74-221.03-16.4-31.69-2.36-31.47-2.33v-.1l284.19-21.19,10.07-.76c.93-.02,1.88-.05,2.79-.05,26.83,0,48.57,9.86,48.57,21.97Z"/>
      <path class="cls-1" d="M843.73,518.79c0,12.12-21.71,21.97-48.57,21.97-.9,0-1.86-.02-2.76-.02l-10.09-.76-284.88-21.14.69-.05v-4.69l31.47,2.33,31.69,2.36,221.03,16.4,10.09.74c.9.02,1.86.05,2.76.05,23.19-.02,42.57-7.36,47.4-17.19.38-.79.69-1.57.86-2.4.21.79.31,1.6.31,2.4Z"/>
    </g>
    <g>
      <polygon class="cls-1" points="498.46 565.33 498.46 565.43 497.77 565.38 498.46 565.33"/>
      <path class="cls-1" d="M844.07,565.31v4.81c0-.81-.1-1.62-.31-2.4-.17.83-.48,1.62-.86,2.4-4.83,9.83-24.21,17.17-47.4,17.19-.9,0-1.86-.02-2.76-.05l-10.09-.74-221.03-16.4-31.69-2.36-31.47-2.33v-.1l284.19-21.19,10.07-.76c.93-.02,1.88-.05,2.79-.05,26.83,0,48.57,9.86,48.57,21.97Z"/>
      <path class="cls-1" d="M844.07,570.12c0,12.12-21.71,21.97-48.57,21.97-.9,0-1.86-.02-2.76-.02l-10.09-.76-284.88-21.14.69-.05v-4.69l31.47,2.33,31.69,2.36,221.03,16.4,10.09.74c.9.02,1.86.05,2.76.05,23.19-.02,42.57-7.36,47.4-17.19.38-.79.69-1.57.86-2.4.21.79.31,1.6.31,2.4Z"/>
    </g>
    <g>
      <polygon class="cls-1" points="499.15 617.07 499.15 617.16 498.46 617.11 499.15 617.07"/>
      <path class="cls-1" d="M844.76,617.04v4.81c0-.81-.1-1.62-.31-2.4-.17.83-.48,1.62-.86,2.4-4.83,9.83-24.21,17.17-47.4,17.19-.9,0-1.86-.02-2.76-.05l-10.09-.74-221.03-16.4-31.69-2.36-31.47-2.33v-.1l284.19-21.19,10.07-.76c.93-.02,1.88-.05,2.79-.05,26.83,0,48.57,9.86,48.57,21.97Z"/>
      <path class="cls-1" d="M844.76,621.85c0,12.12-21.71,21.97-48.57,21.97-.9,0-1.86-.02-2.76-.02l-10.09-.76-284.88-21.14.69-.05v-4.69l31.47,2.33,31.69,2.36,221.03,16.4,10.09.74c.9.02,1.86.05,2.76.05,23.19-.02,42.57-7.36,47.4-17.19.38-.79.69-1.57.86-2.4.21.79.31,1.6.31,2.4Z"/>
    </g>
    <g>
      <polygon class="cls-1" points="499.49 668.4 499.49 668.49 498.8 668.44 499.49 668.4"/>
      <path class="cls-1" d="M845.11,668.37v4.81c0-.81-.1-1.62-.31-2.4-.17.83-.48,1.62-.86,2.4-4.83,9.83-24.21,17.17-47.4,17.19-.9,0-1.86-.02-2.76-.05l-10.09-.74-221.03-16.4-31.69-2.36-31.47-2.33v-.1l284.19-21.19,10.07-.76c.93-.02,1.88-.05,2.79-.05,26.83,0,48.57,9.86,48.57,21.97Z"/>
      <path class="cls-1" d="M845.11,673.18c0,12.12-21.71,21.97-48.57,21.97-.9,0-1.86-.02-2.76-.02l-10.09-.76-284.88-21.14.69-.05v-4.69l31.47,2.33,31.69,2.36,221.03,16.4,10.09.74c.9.02,1.86.05,2.76.05,23.19-.02,42.57-7.36,47.4-17.19.38-.79.69-1.57.86-2.4.21.79.31,1.6.31,2.4Z"/>
    </g>
    <g>
      <polygon class="cls-1" points="499.49 359.61 499.49 359.71 498.8 359.66 499.49 359.61"/>
      <path class="cls-1" d="M845.11,359.59v4.81c0-.81-.1-1.62-.31-2.4-.17.83-.48,1.62-.86,2.4-4.83,9.83-24.21,17.17-47.4,17.19-.9,0-1.86-.02-2.76-.05l-10.09-.74-221.03-16.4-31.69-2.36-31.47-2.33v-.1l284.19-21.19,10.07-.76c.93-.02,1.88-.05,2.79-.05,26.83,0,48.57,9.86,48.57,21.97Z"/>
      <path class="cls-1" d="M845.11,364.4c0,12.12-21.71,21.97-48.57,21.97-.9,0-1.86-.02-2.76-.02l-10.09-.76-284.88-21.14.69-.05v-4.69l31.47,2.33,31.69,2.36,221.03,16.4,10.09.74c.9.02,1.86.05,2.76.05,23.19-.02,42.57-7.36,47.4-17.19.38-.79.69-1.57.86-2.4.21.79.31,1.6.31,2.4Z"/>
    </g>
    <g>
      <polygon class="cls-1" points="500.18 411.34 500.18 411.44 499.49 411.39 500.18 411.34"/>
      <path class="cls-1" d="M845.8,411.32v4.81c0-.81-.1-1.62-.31-2.4-.17.83-.48,1.62-.86,2.4-4.83,9.83-24.21,17.17-47.4,17.19-.9,0-1.86-.02-2.76-.05l-10.09-.74-221.03-16.4-31.69-2.36-31.47-2.33v-.1l284.19-21.19,10.07-.76c.93-.02,1.88-.05,2.79-.05,26.83,0,48.57,9.86,48.57,21.97Z"/>
      <path class="cls-1" d="M845.8,416.13c0,12.12-21.71,21.97-48.57,21.97-.9,0-1.86-.02-2.76-.02l-10.09-.76-284.88-21.14.69-.05v-4.69l31.47,2.33,31.69,2.36,221.03,16.4,10.09.74c.9.02,1.86.05,2.76.05,23.19-.02,42.57-7.36,47.4-17.19.38-.79.69-1.57.86-2.4.21.79.31,1.6.31,2.4Z"/>
    </g>
    <g>
      <polygon class="cls-1" points="500.53 462.67 500.53 462.77 499.84 462.72 500.53 462.67"/>
      <path class="cls-1" d="M846.14,462.65v4.81c0-.81-.1-1.62-.31-2.4-.17.83-.48,1.62-.86,2.4-4.83,9.83-24.21,17.17-47.4,17.19-.9,0-1.86-.02-2.76-.05l-10.09-.74-221.03-16.4-31.69-2.36-31.47-2.33v-.1l284.19-21.19,10.07-.76c.93-.02,1.88-.05,2.79-.05,26.83,0,48.57,9.86,48.57,21.97Z"/>
      <path class="cls-1" d="M846.14,467.46c0,12.12-21.71,21.97-48.57,21.97-.9,0-1.86-.02-2.76-.02l-10.09-.76-284.88-21.14.69-.05v-4.69l31.47,2.33,31.69,2.36,221.03,16.4,10.09.74c.9.02,1.86.05,2.76.05,23.19-.02,42.57-7.36,47.4-17.19.38-.79.69-1.57.86-2.4.21.79.31,1.6.31,2.4Z"/>
    </g>
    <g>
      <path d="M463.76,205.91c36.14,0,71.16,1.56,104.09,4.64,33.18,3.08,62.92,7.56,88.39,13.3,25.47,5.73,45.34,12.41,59.05,19.86,13.64,7.38,20.56,15.2,20.56,23.23s-6.94,15.87-20.63,23.28c-13.62,7.41-33.47,14.08-58.98,19.83-25.65,5.76-55.41,10.24-88.44,13.3-32.92,3.08-67.93,4.64-104.04,4.64s-71.18-1.57-104.35-4.67c-33.11-3.1-62.77-7.58-88.18-13.3-25.5-5.73-45.35-12.41-59-19.86-13.63-7.37-20.53-15.19-20.53-23.23s6.87-15.79,20.42-23.15l27.87,2.59,27.95,2.62,27.95,2.6,27.95,2.62,27.97,2.6,27.97,2.62,27.18,2.52c-2.64,1.57-3.98,3.24-3.98,4.99,0,1.92,1.59,3.75,4.72,5.43,3.05,1.67,7.48,3.17,13.16,4.45,5.73,1.28,12.49,2.29,19.55,2.93,7.22.7,15.07,1.05,23.33,1.05s15.67-.34,23-1c7.39-.68,14.06-1.69,19.82-2.98,5.54-1.24,10.08-2.76,13.13-4.4,3.2-1.71,4.82-3.56,4.82-5.48s-1.6-3.72-4.75-5.43c-3.09-1.68-7.54-3.17-13.21-4.43-5.74-1.29-12.39-2.3-19.77-2.98-7.5-.68-15.26-1.02-23.04-1.02s-15.85.35-23.36,1.05c-7.08.67-13.82,1.69-19.47,2.94l-21.32-4.8-21.4-4.81-21.4-4.83-21.4-4.81-21.38-4.81-21.4-4.81-20.29-4.56c25.13-5.6,54.4-10,87.04-13.06,33.19-3.1,68.32-4.67,104.4-4.67M463.76,205.66c-37,0-72.26,1.67-104.42,4.67-33.24,3.12-63.14,7.67-88.16,13.31l21.38,4.81,21.4,4.81,21.38,4.81,21.4,4.81,21.4,4.83,21.4,4.81,21.38,4.81c5.55-1.24,12.17-2.26,19.5-2.95,7.19-.67,15.07-1.05,23.33-1.05s15.93.38,23.02,1.02c7.45.69,14.14,1.71,19.74,2.98,5.57,1.24,10.07,2.74,13.14,4.4,2.98,1.62,4.62,3.38,4.62,5.21s-1.67,3.64-4.69,5.26c-3.05,1.64-7.52,3.14-13.07,4.38-5.62,1.26-12.33,2.29-19.78,2.98-7.09.64-14.83,1-22.97,1s-16.14-.36-23.31-1.05c-7.36-.67-13.98-1.69-19.52-2.93-5.57-1.26-10.05-2.76-13.09-4.43-2.98-1.6-4.59-3.36-4.59-5.21s1.6-3.57,4.55-5.17l-27.97-2.6-27.97-2.62-27.97-2.6-27.95-2.62-27.95-2.6-27.95-2.62-27.95-2.6c-13.31,7.21-20.62,15.12-20.62,23.4s7.33,16.24,20.67,23.45c13.76,7.5,33.97,14.24,59.07,19.88,25.05,5.64,54.95,10.19,88.21,13.31,32.14,3,67.4,4.67,104.37,4.67s71.99-1.64,104.06-4.64c33.35-3.09,63.35-7.67,88.47-13.31,25.05-5.64,45.26-12.36,59.04-19.86,13.38-7.24,20.76-15.17,20.76-23.5s-7.36-16.24-20.69-23.45c-13.81-7.5-34.02-14.24-59.11-19.88-25.12-5.67-55.09-10.21-88.42-13.31-32.07-3-67.23-4.64-104.11-4.64h0Z"/>
      <g>
        <path class="cls-8" d="M161.31,266.81c.07-8.91,7.75-17.58,22.81-25.79l27.52,2.59c-13.42,7.34-20.25,15.15-20.32,23.19h-30.01Z"/>
        <path d="M184.12,241.17l27.11,2.54c-13.16,7.27-19.89,15-20.03,22.98h-29.76c.14-8.8,7.77-17.39,22.68-25.52M184.06,240.92c-14.74,8.02-22.88,16.81-22.88,26.02h30.26c0-8.29,7.31-16.19,20.62-23.4l-28-2.62h0Z"/>
      </g>
      <g>
        <path class="cls-8" d="M184.16,292.88c-15.09-8.2-22.78-16.88-22.85-25.82h30.01c.07,8.07,6.92,15.89,20.37,23.24l-27.53,2.58Z"/>
        <path d="M191.2,267.19c.14,8.01,6.89,15.75,20.08,23.03l-27.08,2.54c-14.96-8.13-22.61-16.73-22.75-25.56h29.76M191.44,266.94h-30.26c0,9.24,8.17,18.05,22.95,26.07l27.97-2.62c-13.33-7.21-20.67-15.14-20.67-23.45h0Z"/>
      </g>
      <g>
        <path class="cls-8" d="M249.77,314.95c-27.98-6.29-49.92-13.64-65.22-21.86l27.56-2.58c13.52,7.39,33.22,14.04,58.49,19.75l-20.83,4.68Z"/>
        <path d="M212.06,290.65c13.5,7.34,33,13.94,57.98,19.62l-20.27,4.55c-27.74-6.23-49.53-13.51-64.79-21.64l27.07-2.53M212.11,290.39l-27.97,2.62c15.33,8.31,37.76,15.81,65.64,22.07l21.4-4.81c-25.09-5.64-45.31-12.38-59.07-19.88h0Z"/>
      </g>
      <g>
        <path class="cls-8" d="M463.63,334.93c-80.51,0-156.22-7.05-213.29-19.85l20.86-4.69c25.37,5.73,55.05,10.21,88.17,13.31,33.15,3.09,68.22,4.66,104.26,4.67v6.56Z"/>
        <path d="M271.18,310.52c25.41,5.72,55.08,10.2,88.18,13.3,33.11,3.09,68.15,4.66,104.15,4.67v6.31c-80.2-.01-155.63-7.02-212.59-19.72l20.26-4.55M271.18,310.27l-21.4,4.81c54.73,12.33,130.39,19.97,213.98,19.97v-6.81c-36.97,0-72.23-1.67-104.37-4.67-33.26-3.12-63.16-7.67-88.21-13.31h0Z"/>
      </g>
      <g>
        <path class="cls-8" d="M463.88,328.37c36.07,0,71.05-1.57,103.95-4.64,33.05-3.07,62.82-7.55,88.49-13.31,25.55-5.76,45.42-12.44,59.08-19.87,13.82-7.48,20.83-15.42,20.83-23.61s-6.98-16.11-20.75-23.56c-13.74-7.46-33.64-14.16-59.15-19.89-25.49-5.75-55.25-10.23-88.44-13.31-32.9-3.08-67.89-4.64-104-4.64v-6.56c166.73.02,302.35,30.5,302.35,67.96s-135.62,67.97-302.35,67.99v-6.56Z"/>
        <path d="M464.01,199.1c166.6.03,302.1,30.45,302.1,67.84s-135.49,67.83-302.1,67.86v-6.31c36.04,0,70.97-1.57,103.84-4.64,33.05-3.07,62.83-7.55,88.5-13.31,25.56-5.76,45.44-12.45,59.11-19.88,13.86-7.5,20.89-15.48,20.89-23.72s-7-16.2-20.82-23.67c-13.75-7.47-33.66-14.17-59.18-19.9-25.49-5.75-55.25-10.23-88.45-13.31-32.86-3.07-67.81-4.64-103.88-4.64v-6.31M463.76,198.85v6.81c36.88,0,72.04,1.64,104.11,4.64,33.33,3.1,63.3,7.64,88.42,13.31,25.09,5.64,45.31,12.38,59.11,19.88,13.33,7.21,20.69,15.14,20.69,23.45s-7.38,16.26-20.76,23.5c-13.78,7.5-34,14.21-59.04,19.86-25.12,5.64-55.11,10.21-88.47,13.31-32.07,3-67.21,4.64-104.06,4.64v6.81c167.13,0,302.6-30.5,302.6-68.11s-135.47-68.09-302.6-68.09h0Z"/>
      </g>
      <g>
        <path class="cls-8" d="M348.19,204.12c36.45-3.41,75.29-5.15,115.45-5.15v6.56c-36.03,0-71.11,1.57-104.27,4.66l-11.18-6.07Z"/>
        <path d="M463.51,199.1v6.31c-35.98,0-71.01,1.57-104.12,4.66l-10.78-5.86c36.29-3.39,74.94-5.11,114.9-5.11M463.76,198.85c-41.12,0-80.3,1.83-115.99,5.19l11.57,6.29c32.16-3,67.42-4.67,104.42-4.67v-6.81h0Z"/>
      </g>
      <g>
        <path class="cls-8" d="M250.34,218.8c28.15-6.3,60.93-11.23,97.43-14.64l11.14,6.07c-32.95,3.11-62.47,7.57-87.74,13.27l-20.83-4.7Z"/>
        <path d="M347.71,204.29l10.78,5.86c-32.78,3.1-62.15,7.55-87.32,13.22l-20.26-4.58c28-6.24,60.56-11.12,96.8-14.51M347.76,204.04c-36.95,3.45-70.16,8.5-97.99,14.76l21.4,4.83c25.02-5.64,54.92-10.19,88.16-13.31l-11.57-6.29h0Z"/>
      </g>
      <g>
        <path class="cls-4" d="M184.49,240.83c15.28-8.22,37.23-15.59,65.27-21.91l20.85,4.71c-25.22,5.69-44.92,12.34-58.57,19.78l-27.55-2.58Z"/>
        <path d="M249.75,219.05l20.29,4.58c-24.95,5.66-44.47,12.27-58.03,19.65l-27.1-2.53c15.24-8.13,37.05-15.43,64.84-21.69M249.77,218.8h-.05c-27.88,6.29-50.31,13.78-65.66,22.12l28,2.62c13.76-7.5,33.97-14.26,59.11-19.9l-21.4-4.83h0Z"/>
      </g>
      <path d="M463.76,205.91c36.14,0,71.16,1.56,104.09,4.64,33.18,3.08,62.92,7.56,88.39,13.3,25.47,5.73,45.34,12.41,59.05,19.86,13.64,7.38,20.56,15.2,20.56,23.23s-6.94,15.87-20.63,23.28c-13.62,7.41-33.47,14.08-58.98,19.83-25.65,5.76-55.41,10.24-88.44,13.3-32.92,3.08-67.93,4.64-104.04,4.64s-71.18-1.57-104.35-4.67c-33.11-3.1-62.77-7.58-88.18-13.3-25.5-5.73-45.35-12.41-59-19.86-13.63-7.37-20.53-15.19-20.53-23.23s6.87-15.79,20.42-23.15l27.87,2.59,27.95,2.62,27.95,2.6,27.95,2.62,27.97,2.6,27.97,2.62,27.18,2.52c-2.64,1.57-3.98,3.24-3.98,4.99,0,1.92,1.59,3.75,4.72,5.43,3.05,1.67,7.48,3.17,13.16,4.45,5.73,1.28,12.49,2.29,19.55,2.93,7.22.7,15.07,1.05,23.33,1.05s15.67-.34,23-1c7.39-.68,14.06-1.69,19.82-2.98,5.54-1.24,10.08-2.76,13.13-4.4,3.2-1.71,4.82-3.56,4.82-5.48s-1.6-3.72-4.75-5.43c-3.09-1.68-7.54-3.17-13.21-4.43-5.74-1.29-12.39-2.3-19.77-2.98-7.5-.68-15.26-1.02-23.04-1.02s-15.85.35-23.36,1.05c-7.08.67-13.82,1.69-19.47,2.94l-21.32-4.8-21.4-4.81-21.4-4.83-21.4-4.81-21.38-4.81-21.4-4.81-20.29-4.56c25.13-5.6,54.4-10,87.04-13.06,33.19-3.1,68.32-4.67,104.4-4.67M463.76,205.66c-37,0-72.26,1.67-104.42,4.67-33.24,3.12-63.14,7.67-88.16,13.31l21.38,4.81,21.4,4.81,21.38,4.81,21.4,4.81,21.4,4.83,21.4,4.81,21.38,4.81c5.55-1.24,12.17-2.26,19.5-2.95,7.19-.67,15.07-1.05,23.33-1.05s15.93.38,23.02,1.02c7.45.69,14.14,1.71,19.74,2.98,5.57,1.24,10.07,2.74,13.14,4.4,2.98,1.62,4.62,3.38,4.62,5.21s-1.67,3.64-4.69,5.26c-3.05,1.64-7.52,3.14-13.07,4.38-5.62,1.26-12.33,2.29-19.78,2.98-7.09.64-14.83,1-22.97,1s-16.14-.36-23.31-1.05c-7.36-.67-13.98-1.69-19.52-2.93-5.57-1.26-10.05-2.76-13.09-4.43-2.98-1.6-4.59-3.36-4.59-5.21s1.6-3.57,4.55-5.17l-27.97-2.6-27.97-2.62-27.97-2.6-27.95-2.62-27.95-2.6-27.95-2.62-27.95-2.6c-13.31,7.21-20.62,15.12-20.62,23.4s7.33,16.24,20.67,23.45c13.76,7.5,33.97,14.24,59.07,19.88,25.05,5.64,54.95,10.19,88.21,13.31,32.14,3,67.4,4.67,104.37,4.67s71.99-1.64,104.06-4.64c33.35-3.09,63.35-7.67,88.47-13.31,25.05-5.64,45.26-12.36,59.04-19.86,13.38-7.24,20.76-15.17,20.76-23.5s-7.36-16.24-20.69-23.45c-13.81-7.5-34.02-14.24-59.11-19.88-25.12-5.67-55.09-10.21-88.42-13.31-32.07-3-67.23-4.64-104.11-4.64h0Z"/>
      <path d="M463.76,212.72c31.91,0,63.03,1.39,92.49,4.12,29.45,2.74,55.89,6.72,78.58,11.83,22.6,5.09,40.27,11.02,52.5,17.64,12.11,6.57,18.25,13.51,18.25,20.64s-6.16,14.11-18.32,20.68c-12.19,6.59-29.83,12.52-52.43,17.62-22.68,5.1-49.12,9.08-78.61,11.83-29.47,2.73-60.58,4.12-92.47,4.12s-63.43-1.4-92.78-4.17c-29.52-2.76-55.89-6.73-78.37-11.8-22.65-5.11-40.29-11.04-52.43-17.64-12.09-6.57-18.22-13.51-18.22-20.64s6.09-14,18.11-20.55l27.87,2.61,27.95,2.6,27.95,2.62,27.97,2.6,27.97,2.62,27.18,2.52c-2.64,1.57-3.98,3.24-3.98,4.99,0,1.92,1.59,3.75,4.72,5.43,3.05,1.67,7.48,3.17,13.16,4.45,5.73,1.28,12.49,2.29,19.55,2.93,7.22.7,15.07,1.05,23.33,1.05s15.67-.34,23-1c7.39-.68,14.06-1.69,19.82-2.98,5.54-1.24,10.08-2.76,13.13-4.4,3.2-1.71,4.82-3.56,4.82-5.48s-1.6-3.72-4.75-5.43c-3.09-1.68-7.54-3.17-13.21-4.43-5.74-1.29-12.39-2.3-19.77-2.98-7.5-.68-15.26-1.02-23.04-1.02s-15.85.35-23.36,1.05c-7.08.67-13.82,1.68-19.47,2.94l-21.32-4.8-21.4-4.81-21.4-4.83-21.4-4.81-21.38-4.81-20.32-4.57c22.35-4.98,48.33-8.88,77.26-11.58,29.47-2.75,60.69-4.14,92.8-4.14M463.76,212.47c-32.88,0-64.23,1.48-92.83,4.14-29.52,2.76-56.11,6.81-78.37,11.83l21.4,4.81,21.38,4.81,21.4,4.81,21.4,4.83,21.4,4.81,21.38,4.81c5.55-1.24,12.17-2.26,19.5-2.95,7.19-.67,15.07-1.05,23.33-1.05s15.93.38,23.02,1.02c7.45.69,14.14,1.71,19.74,2.98,5.57,1.24,10.07,2.74,13.14,4.4,2.98,1.62,4.62,3.38,4.62,5.21s-1.67,3.64-4.69,5.26c-3.05,1.64-7.52,3.14-13.07,4.38-5.62,1.26-12.33,2.29-19.78,2.98-7.09.64-14.83,1-22.97,1s-16.14-.36-23.31-1.05c-7.36-.67-13.98-1.69-19.52-2.93-5.57-1.26-10.05-2.76-13.09-4.43-2.98-1.6-4.59-3.36-4.59-5.21s1.6-3.57,4.55-5.17l-27.97-2.6-27.97-2.62-27.97-2.6-27.95-2.62-27.95-2.6-27.95-2.62c-11.81,6.43-18.31,13.45-18.31,20.81s6.52,14.43,18.36,20.86c12.26,6.67,30.21,12.64,52.5,17.67,22.26,5.02,48.85,9.05,78.4,11.81,28.57,2.69,59.92,4.17,92.8,4.17s64-1.48,92.49-4.12c29.64-2.76,56.31-6.81,78.64-11.83,22.26-5.02,40.21-11,52.5-17.64,11.88-6.43,18.45-13.5,18.45-20.9s-6.52-14.43-18.38-20.86c-12.28-6.64-30.26-12.64-52.57-17.67-22.33-5.02-48.97-9.07-78.61-11.83-28.5-2.64-59.76-4.12-92.52-4.12h0Z"/>
      <path d="M463.76,219.53c28.05,0,55.28,1.22,80.92,3.62,25.7,2.38,48.83,5.86,68.75,10.33,19.77,4.44,35.23,9.64,45.93,15.45,10.59,5.73,15.96,11.8,15.96,18.02s-5.39,12.33-16.03,18.06c-10.66,5.8-26.09,10.98-45.86,15.4-19.89,4.48-43.03,7.96-68.8,10.35-25.65,2.4-52.86,3.62-80.88,3.62s-55.27-1.23-81.18-3.64c-25.62-2.38-48.69-5.86-68.56-10.33-19.83-4.48-35.26-9.68-45.86-15.45-10.58-5.74-15.94-11.8-15.94-18.02s5.32-12.23,15.8-17.93l27.87,2.59,27.95,2.62,27.97,2.6,27.97,2.62,27.18,2.52c-2.64,1.57-3.98,3.24-3.98,4.99,0,1.92,1.59,3.75,4.72,5.43,3.05,1.67,7.48,3.17,13.16,4.45,5.73,1.28,12.49,2.29,19.55,2.93,7.22.7,15.07,1.05,23.33,1.05s15.67-.34,23-1c7.39-.68,14.06-1.69,19.82-2.98,5.54-1.24,10.08-2.76,13.13-4.4,3.2-1.71,4.82-3.56,4.82-5.48s-1.6-3.72-4.75-5.43c-3.09-1.68-7.54-3.17-13.21-4.43-5.74-1.29-12.39-2.3-19.77-2.98-7.5-.68-15.26-1.02-23.04-1.02s-15.85.35-23.35,1.05c-7.08.67-13.82,1.68-19.47,2.94l-21.32-4.8-21.4-4.81-21.4-4.83-21.4-4.81-20.29-4.56c19.59-4.35,42.27-7.74,67.42-10.08,25.65-2.42,52.98-3.64,81.23-3.64M463.76,219.28c-28.78,0-56.23,1.29-81.26,3.64-25.83,2.4-49.09,5.95-68.54,10.33l21.38,4.81,21.4,4.81,21.4,4.83,21.4,4.81,21.38,4.81c5.55-1.24,12.17-2.26,19.5-2.95,7.19-.67,15.07-1.05,23.33-1.05s15.93.38,23.02,1.02c7.45.69,14.14,1.71,19.74,2.98,5.57,1.24,10.07,2.74,13.14,4.4,2.98,1.62,4.62,3.38,4.62,5.21s-1.67,3.64-4.69,5.26c-3.05,1.64-7.52,3.14-13.07,4.38-5.62,1.26-12.33,2.29-19.78,2.98-7.09.64-14.83,1-22.97,1s-16.14-.36-23.31-1.05c-7.36-.67-13.98-1.69-19.52-2.93-5.57-1.26-10.05-2.76-13.09-4.43-2.98-1.6-4.59-3.36-4.59-5.21s1.6-3.57,4.55-5.17l-27.97-2.6-27.97-2.62-27.97-2.6-27.95-2.62-27.95-2.6c-10.31,5.59-16,11.74-16,18.19s5.71,12.62,16.07,18.24c10.71,5.83,26.43,11.07,45.93,15.47,19.47,4.38,42.73,7.93,68.59,10.33,25.02,2.33,52.45,3.64,81.21,3.64s55.97-1.29,80.9-3.62c25.95-2.4,49.28-5.95,68.83-10.36,19.5-4.36,35.21-9.59,45.92-15.43,10.43-5.62,16.17-11.81,16.17-18.28s-5.71-12.62-16.09-18.24c-10.74-5.83-26.47-11.09-46-15.48-19.52-4.38-42.85-7.93-68.78-10.33-24.93-2.33-52.28-3.62-80.95-3.62h0Z"/>
      <path d="M463.76,226.33c24.08,0,47.41,1.04,69.33,3.09,22.15,2.06,41.99,5.04,58.96,8.85,17.08,3.86,30.32,8.32,39.34,13.24,9.08,4.93,13.68,10.11,13.68,15.42s-4.62,10.54-13.73,15.47c-9.19,4.98-22.41,9.41-39.29,13.19-16.92,3.82-36.77,6.81-58.99,8.88-22.19,2.05-45.5,3.09-69.3,3.09s-47.45-1.05-69.61-3.12c-21.89-2.05-41.66-5.02-58.75-8.85-17.05-3.86-30.27-8.31-39.29-13.24-9.06-4.91-13.65-10.1-13.65-15.42s4.55-10.44,13.52-15.34l27.87,2.61,27.97,2.6,27.97,2.62,27.18,2.52c-2.64,1.57-3.98,3.24-3.98,4.99,0,1.92,1.59,3.75,4.72,5.43,3.05,1.67,7.48,3.17,13.16,4.45,5.73,1.28,12.49,2.29,19.55,2.93,7.22.7,15.07,1.05,23.33,1.05s15.67-.34,23-1c7.39-.68,14.06-1.69,19.82-2.98,5.54-1.24,10.08-2.76,13.13-4.4,3.2-1.71,4.82-3.56,4.82-5.48s-1.6-3.72-4.75-5.43c-3.09-1.68-7.54-3.17-13.21-4.43-5.74-1.29-12.39-2.3-19.77-2.98-7.5-.68-15.26-1.02-23.04-1.02s-15.85.35-23.36,1.05c-7.08.67-13.82,1.69-19.47,2.94l-21.32-4.8-21.4-4.81-21.4-4.83-20.31-4.56c16.66-3.69,36.04-6.59,57.64-8.61,22.19-2.07,45.62-3.12,69.64-3.12M463.76,226.08c-24.69,0-48.21,1.12-69.66,3.12-22.14,2.07-42.07,5.09-58.76,8.86l21.4,4.81,21.4,4.83,21.4,4.81,21.38,4.81c5.55-1.24,12.17-2.26,19.5-2.95,7.19-.67,15.07-1.05,23.33-1.05s15.93.38,23.02,1.02c7.45.69,14.14,1.71,19.74,2.98,5.57,1.24,10.07,2.74,13.14,4.4,2.98,1.62,4.62,3.38,4.62,5.21s-1.67,3.64-4.69,5.26c-3.05,1.64-7.52,3.14-13.07,4.38-5.62,1.26-12.33,2.29-19.78,2.98-7.09.64-14.83,1-22.97,1s-16.14-.36-23.31-1.05c-7.36-.67-13.98-1.69-19.52-2.93-5.57-1.26-10.05-2.76-13.09-4.43-2.98-1.6-4.59-3.36-4.59-5.21s1.6-3.57,4.55-5.17l-27.97-2.6-27.97-2.62-27.97-2.6-27.95-2.62c-8.83,4.81-13.71,10.07-13.71,15.59s4.9,10.83,13.78,15.64c9.17,5,22.64,9.48,39.35,13.26,16.69,3.74,36.62,6.79,58.78,8.86,21.43,2,44.95,3.12,69.64,3.12s47.97-1.12,69.33-3.09c22.26-2.07,42.26-5.09,59.02-8.88,16.71-3.74,30.16-8.24,39.35-13.21,8.93-4.83,13.86-10.12,13.86-15.69s-4.9-10.81-13.81-15.64c-9.17-5-22.66-9.48-39.4-13.26-16.76-3.76-36.76-6.79-59-8.86-21.36-2-44.78-3.09-69.35-3.09h0Z"/>
      <path d="M463.76,233.14c19.84,0,39.27.86,57.76,2.57,18.34,1.7,34.87,4.19,49.13,7.4,14.1,3.15,25.13,6.86,32.79,11.02,7.54,4.07,11.37,8.38,11.37,12.8s-3.84,8.75-11.42,12.85c-7.64,4.14-18.65,7.84-32.74,11-14.12,3.17-30.66,5.66-49.18,7.4-18.46,1.71-37.88,2.57-57.71,2.57s-39.65-.88-58.02-2.62c-18.38-1.71-34.84-4.19-48.94-7.38-13.9-3.11-25.23-6.93-32.74-11.02-7.53-4.07-11.34-8.37-11.34-12.8s3.77-8.66,11.21-12.72l27.9,2.59,27.97,2.62,27.18,2.52c-2.64,1.57-3.98,3.24-3.98,4.99,0,1.92,1.59,3.75,4.72,5.43,3.05,1.67,7.48,3.17,13.16,4.45,5.73,1.28,12.49,2.29,19.55,2.93,7.22.7,15.07,1.05,23.33,1.05s15.67-.34,23-1c7.39-.68,14.06-1.69,19.82-2.98,5.54-1.24,10.08-2.76,13.13-4.4,3.2-1.71,4.82-3.56,4.82-5.48s-1.6-3.72-4.75-5.43c-3.09-1.68-7.54-3.17-13.21-4.43-5.74-1.29-12.39-2.3-19.77-2.98-7.5-.68-15.26-1.02-23.04-1.02s-15.85.35-23.35,1.05c-7.08.67-13.82,1.69-19.47,2.94l-21.32-4.8-21.4-4.81-20.32-4.59c13.9-3.06,29.97-5.45,47.81-7.11,18.37-1.74,37.91-2.62,58.07-2.62M463.76,232.89c-20.57,0-40.21.93-58.09,2.62-18.45,1.71-35.04,4.24-48.92,7.36l21.4,4.83,21.4,4.81,21.38,4.81c5.55-1.24,12.17-2.26,19.5-2.95,7.19-.67,15.07-1.05,23.33-1.05s15.93.38,23.02,1.02c7.45.69,14.14,1.71,19.74,2.98,5.57,1.24,10.07,2.74,13.14,4.4,2.98,1.62,4.62,3.38,4.62,5.21s-1.67,3.64-4.69,5.26c-3.05,1.64-7.52,3.14-13.07,4.38-5.62,1.26-12.33,2.29-19.78,2.98-7.09.64-14.83,1-22.97,1s-16.14-.36-23.31-1.05c-7.36-.67-13.98-1.69-19.52-2.93-5.57-1.26-10.05-2.76-13.09-4.43-2.98-1.6-4.59-3.36-4.59-5.21s1.6-3.57,4.55-5.17l-27.97-2.6-27.97-2.62-27.97-2.6c-7.36,4-11.4,8.38-11.4,12.98s4.07,9.02,11.48,13.02c7.64,4.17,18.88,7.93,32.81,11.05,13.9,3.14,30.52,5.67,48.97,7.38,17.88,1.69,37.47,2.62,58.04,2.62s39.95-.93,57.73-2.57c18.55-1.74,35.24-4.26,49.21-7.4,13.9-3.12,25.12-6.86,32.81-11.02,7.43-4.02,11.55-8.43,11.55-13.07s-4.09-9.02-11.5-13.02c-7.67-4.17-18.9-7.93-32.85-11.05-13.95-3.14-30.64-5.69-49.16-7.4-17.81-1.64-37.31-2.57-57.78-2.57h0Z"/>
      <path d="M463.76,239.95c15.87,0,31.4.69,46.16,2.05,14.8,1.38,28.03,3.37,39.32,5.92,11.32,2.53,20.14,5.5,26.22,8.81,6.03,3.25,9.08,6.69,9.08,10.21s-3.08,7-9.15,10.26c-6.01,3.25-15.06,6.29-26.15,8.78-11.4,2.55-24.64,4.53-39.35,5.9-14.64,1.37-30.17,2.07-46.14,2.07s-31.54-.7-46.45-2.09c-14.67-1.37-27.82-3.36-39.11-5.9-11.31-2.53-20.11-5.49-26.17-8.81-6.01-3.26-9.06-6.69-9.06-10.21s3-6.88,8.92-10.12l27.9,2.61,27.18,2.52c-2.64,1.57-3.98,3.24-3.98,4.99,0,1.92,1.59,3.75,4.72,5.43,3.05,1.67,7.48,3.17,13.16,4.45,5.73,1.28,12.49,2.29,19.55,2.93,7.22.7,15.07,1.05,23.33,1.05s15.67-.34,23-1c7.39-.68,14.06-1.69,19.82-2.98,5.54-1.24,10.08-2.76,13.13-4.4,3.2-1.71,4.82-3.56,4.82-5.48s-1.6-3.72-4.75-5.43c-3.09-1.68-7.54-3.17-13.21-4.43-5.74-1.29-12.39-2.3-19.77-2.98-7.5-.68-15.26-1.02-23.04-1.02s-15.85.35-23.35,1.05c-7.08.67-13.82,1.69-19.47,2.94l-21.32-4.8-20.31-4.56c11.04-2.43,23.81-4.33,37.97-5.66,14.65-1.39,30.29-2.09,46.5-2.09M463.76,239.7c-16.47,0-32.21.74-46.52,2.1-14.74,1.38-28,3.4-39.09,5.9l21.4,4.81,21.38,4.81c5.55-1.24,12.17-2.26,19.5-2.95,7.19-.67,15.07-1.05,23.33-1.05s15.93.38,23.02,1.02c7.45.69,14.14,1.71,19.74,2.98,5.57,1.24,10.07,2.74,13.14,4.4,2.98,1.62,4.62,3.38,4.62,5.21s-1.67,3.64-4.69,5.26c-3.05,1.64-7.52,3.14-13.07,4.38-5.62,1.26-12.33,2.29-19.78,2.98-7.09.64-14.83,1-22.97,1s-16.14-.36-23.31-1.05c-7.36-.67-13.98-1.69-19.52-2.93-5.57-1.26-10.05-2.76-13.09-4.43-2.98-1.6-4.59-3.36-4.59-5.21s1.6-3.57,4.55-5.17l-27.97-2.6-27.97-2.62c-5.88,3.21-9.12,6.71-9.12,10.38s3.26,7.21,9.19,10.43c6.09,3.33,15.07,6.33,26.24,8.83,11.09,2.5,24.38,4.52,39.14,5.9,14.31,1.33,30,2.1,46.47,2.1s31.95-.74,46.16-2.07c14.86-1.38,28.19-3.4,39.38-5.9,11.12-2.5,20.09-5.5,26.21-8.81,6-3.21,9.29-6.76,9.29-10.48s-3.26-7.21-9.21-10.43c-6.12-3.33-15.12-6.33-26.28-8.83-11.17-2.52-24.52-4.55-39.35-5.93-14.24-1.31-29.83-2.05-46.19-2.05h0Z"/>
      <path d="M463.76,246.76c11.99,0,23.62.52,34.57,1.55,11.02,1.01,20.95,2.5,29.51,4.42,8.53,1.91,15.14,4.14,19.65,6.62,4.51,2.42,6.8,4.98,6.8,7.59s-2.3,5.21-6.84,7.66c-4.51,2.43-11.29,4.69-19.6,6.55-8.53,1.93-18.47,3.43-29.54,4.45-10.75,1.01-22.38,1.52-34.55,1.52s-23.84-.52-34.85-1.55c-11.13-1.05-20.98-2.54-29.3-4.42-8.43-1.89-15.03-4.12-19.62-6.62-4.48-2.43-6.75-4.99-6.75-7.59s2.29-5.15,6.64-7.51l27.1,2.51c-2.64,1.57-3.98,3.24-3.98,4.99,0,1.92,1.59,3.75,4.72,5.43,3.05,1.67,7.48,3.17,13.16,4.45,5.73,1.28,12.49,2.29,19.55,2.93,7.22.7,15.07,1.05,23.33,1.05s15.67-.34,23-1c7.39-.68,14.06-1.69,19.82-2.98,5.54-1.24,10.08-2.76,13.13-4.4,3.2-1.71,4.82-3.56,4.82-5.48s-1.6-3.72-4.75-5.43c-3.09-1.68-7.54-3.17-13.21-4.43-5.74-1.29-12.39-2.3-19.77-2.98-7.5-.68-15.26-1.02-23.04-1.02s-15.85.35-23.35,1.05c-7.08.67-13.82,1.69-19.47,2.94l-20.24-4.55c8.05-1.77,17.52-3.17,28.16-4.18,11.19-1.04,22.93-1.57,34.9-1.57M463.76,246.51c-12.38,0-24.19.57-34.93,1.57-11.05,1.05-21,2.55-29.28,4.43l21.38,4.81c5.55-1.24,12.17-2.26,19.5-2.95,7.19-.67,15.07-1.05,23.33-1.05s15.93.38,23.02,1.02c7.45.69,14.14,1.71,19.74,2.98,5.57,1.24,10.07,2.74,13.14,4.4,2.98,1.62,4.62,3.38,4.62,5.21s-1.67,3.64-4.69,5.26c-3.05,1.64-7.52,3.14-13.07,4.38-5.62,1.26-12.33,2.29-19.78,2.98-7.09.64-14.83,1-22.97,1s-16.14-.36-23.31-1.05c-7.36-.67-13.98-1.69-19.52-2.93-5.57-1.26-10.05-2.76-13.09-4.43-2.98-1.6-4.59-3.36-4.59-5.21s1.6-3.57,4.55-5.17l-27.97-2.6c-4.4,2.38-6.83,5.02-6.83,7.76s2.45,5.4,6.88,7.81c4.59,2.5,11.31,4.76,19.69,6.64,8.31,1.88,18.26,3.38,29.33,4.43,10.74,1,22.52,1.55,34.88,1.55s23.93-.52,34.57-1.52c11.14-1.02,21.16-2.55,29.57-4.45,8.33-1.86,15.07-4.09,19.67-6.57,4.5-2.43,6.98-5.09,6.98-7.88s-2.45-5.4-6.93-7.81c-4.59-2.52-11.33-4.76-19.71-6.64-8.38-1.88-18.4-3.4-29.55-4.43-10.67-1-22.33-1.55-34.59-1.55h0Z"/>
      <path d="M463.76,253.57c7.77,0,15.51.34,23,1.02,7.36.68,13.99,1.68,19.71,2.97,5.55,1.23,10.07,2.75,13.08,4.38,2.98,1.62,4.49,3.3,4.49,4.99s-1.53,3.42-4.56,5.04c-3.01,1.62-7.51,3.13-13.01,4.36-5.74,1.29-12.38,2.29-19.75,2.97-7.32.66-15.04,1-22.95,1s-16.08-.35-23.29-1.05c-7.04-.64-13.78-1.65-19.49-2.92-5.64-1.28-10.02-2.76-13.03-4.4-2.96-1.59-4.46-3.27-4.46-4.99s1.49-3.36,4.42-4.95c2.99-1.65,7.51-3.18,13.08-4.43,5.65-1.26,12.38-2.28,19.47-2.95,7.49-.69,15.33-1.05,23.31-1.05M463.76,253.32c-8.26,0-16.14.38-23.33,1.05-7.33.69-13.95,1.71-19.5,2.95-5.62,1.26-10.12,2.79-13.14,4.45-2.95,1.6-4.55,3.33-4.55,5.17s1.62,3.62,4.59,5.21c3.05,1.67,7.52,3.17,13.09,4.43,5.55,1.24,12.17,2.26,19.52,2.93,7.17.69,15.05,1.05,23.31,1.05s15.88-.36,22.97-1c7.45-.69,14.17-1.71,19.78-2.98,5.55-1.24,10.02-2.74,13.07-4.38,3.02-1.62,4.69-3.38,4.69-5.26s-1.64-3.59-4.62-5.21c-3.07-1.67-7.57-3.17-13.14-4.4-5.59-1.26-12.28-2.29-19.74-2.98-7.09-.64-14.88-1.02-23.02-1.02h0Z"/>
      <polyline class="cls-2" points="463.76 280.56 463.76 287.37 463.76 294.2 463.76 301.01 463.76 307.82 463.76 314.63 463.76 321.43 463.76 328.24"/>
      <polyline class="cls-2" points="463.76 205.66 463.76 212.47 463.76 219.28 463.76 226.08 463.76 232.89 463.76 239.7 463.76 246.51 463.76 253.32"/>
      <polyline class="cls-2" points="766.19 266.95 736.09 266.95 705.83 266.95 675.57 266.95 645.31 266.95 615.05 266.95 584.79 266.95 554.53 266.95 524.28 266.95"/>
      <polyline class="cls-2" points="191.44 266.94 221.7 266.94 251.96 266.94 282.2 266.94 312.46 266.94 342.72 266.94 372.98 266.94 403.24 266.94"/>
      <polyline class="cls-2" points="677.64 315.1 656.29 310.29 634.89 305.48 613.48 300.66 592.1 295.85 570.7 291.03 549.3 286.21 527.89 281.4 506.51 276.59"/>
      <g>
        <path class="cls-2" d="M292.55,228.44c-22.33,5.02-40.31,11.02-52.54,17.69l-27.95-2.6c13.76-7.5,33.97-14.26,59.11-19.9l21.38,4.81Z"/>
        <path class="cls-7" d="M292.55,228.44c-22.33,5.02-40.31,11.02-52.54,17.69l-27.95-2.6c13.76-7.5,33.97-14.26,59.11-19.9l21.38,4.81Z"/>
      </g>
      <g>
        <path class="cls-2" d="M313.96,233.25c-19.52,4.4-35.26,9.64-46,15.5l-27.95-2.62c12.24-6.67,30.21-12.67,52.54-17.69l21.4,4.81Z"/>
        <path class="cls-7" d="M313.96,233.25c-19.52,4.4-35.26,9.64-46,15.5l-27.95-2.62c12.24-6.67,30.21-12.67,52.54-17.69l21.4,4.81Z"/>
      </g>
      <g>
        <path class="cls-2" d="M335.34,238.06c-16.74,3.79-30.24,8.29-39.43,13.28l-27.95-2.6c10.74-5.86,26.47-11.09,46-15.5l21.38,4.81Z"/>
        <path class="cls-7" d="M335.34,238.06c-16.74,3.79-30.24,8.29-39.43,13.28l-27.95-2.6c10.74-5.86,26.47-11.09,46-15.5l21.38,4.81Z"/>
      </g>
      <g>
        <path class="cls-2" d="M356.74,242.87c-13.98,3.17-25.21,6.9-32.88,11.09l-27.95-2.62c9.19-5,22.69-9.5,39.43-13.28l21.4,4.81Z"/>
        <path class="cls-7" d="M356.74,242.87c-13.98,3.17-25.21,6.9-32.88,11.09l-27.95-2.62c9.19-5,22.69-9.5,39.43-13.28l21.4,4.81Z"/>
      </g>
      <g>
        <path class="cls-2" d="M378.14,247.7c-11.19,2.52-20.19,5.52-26.31,8.86l-27.97-2.6c7.67-4.19,18.9-7.93,32.88-11.09l21.4,4.83Z"/>
        <path class="cls-7" d="M378.14,247.7c-11.19,2.52-20.19,5.52-26.31,8.86l-27.97-2.6c7.67-4.19,18.9-7.93,32.88-11.09l21.4,4.83Z"/>
      </g>
      <g>
        <path class="cls-2" d="M399.55,252.51c-8.4,1.9-15.17,4.14-19.74,6.67l-27.97-2.62c6.12-3.33,15.12-6.33,26.31-8.86l21.4,4.81Z"/>
        <path class="cls-7" d="M399.55,252.51c-8.4,1.9-15.17,4.14-19.74,6.67l-27.97-2.62c6.12-3.33,15.12-6.33,26.31-8.86l21.4,4.81Z"/>
      </g>
      <g>
        <path class="cls-2" d="M420.93,257.32c-5.62,1.26-10.12,2.79-13.14,4.45l-27.97-2.6c4.57-2.52,11.33-4.76,19.74-6.67l21.38,4.81Z"/>
        <path class="cls-7" d="M420.93,257.32c-5.62,1.26-10.12,2.79-13.14,4.45l-27.97-2.6c4.57-2.52,11.33-4.76,19.74-6.67l21.38,4.81Z"/>
      </g>
      <polyline class="cls-2" points="677.53 218.82 656.29 223.6 634.89 228.42 613.48 233.24 592.1 238.05 570.7 242.86 549.3 247.68 527.89 252.5 506.51 257.31"/>
      <line class="cls-2" x1="249.77" y1="315.08" x2="249.72" y2="315.1"/>
      <polyline class="cls-2" points="271.18 310.27 292.55 305.46 313.96 300.65 335.34 295.84 356.74 291.01 378.14 286.2 399.55 281.39 420.93 276.58"/>
      <line class="cls-2" x1="184.06" y1="240.92" x2="183.99" y2="240.92"/>
      <polyline class="cls-2" points="519.58 272.2 547.56 274.81 575.51 277.41 603.51 280.02 631.46 282.62 659.41 285.23 687.38 287.84 715.33 290.45 743.09 293.03"/>
      <polyline class="cls-2" points="347.81 329.85 359.38 323.57 370.95 317.28 382.55 310.98 394.12 304.69 405.71 298.4 417.28 292.11 428.88 285.81 440.45 279.52"/>
      <polyline class="cls-2" points="486.78 254.35 498.35 248.06 509.94 241.76 521.54 235.47 533.11 229.18 544.7 222.88 556.27 216.59 567.87 210.3 579.34 204.06"/>
      <polyline class="cls-2" points="407.83 272.15 379.86 274.75 351.91 277.37 323.93 279.96 295.98 282.58 268.03 285.18 240.06 287.79 212.11 290.39"/>
      <line class="cls-2" x1="184.13" y1="293.01" x2="184.02" y2="293.01"/>
      <polyline class="cls-2" points="519.66 261.73 547.61 259.12 575.58 256.52 603.55 253.91 631.5 251.3 659.48 248.69 687.45 246.09 715.4 243.48 743.12 240.9"/>
      <polyline class="cls-2" points="579.29 329.83 567.82 323.6 556.25 317.31 544.65 311.01 533.08 304.72 521.49 298.43 509.92 292.13 498.32 285.84 486.73 279.55"/>
      <polyline class="cls-2" points="359.34 210.32 370.93 216.61 382.5 222.92 394.09 229.2 405.67 235.51 417.24 241.8 428.83 248.08 440.42 254.37"/>
    </g>
    <g>
      <polygon class="cls-1" points="499.15 308.28 499.15 308.38 498.46 308.33 499.15 308.28"/>
      <path class="cls-1" d="M844.76,308.26v4.81c0-.81-.1-1.62-.31-2.4-.17.83-.48,1.62-.86,2.4-4.83,9.83-24.21,17.17-47.4,17.19-.9,0-1.86-.02-2.76-.05l-10.09-.74-221.03-16.4-31.69-2.36-31.47-2.33v-.1l284.19-21.19,10.07-.76c.93-.02,1.88-.05,2.79-.05,26.83,0,48.57,9.86,48.57,21.97Z"/>
      <path class="cls-1" d="M844.76,313.07c0,12.12-21.71,21.97-48.57,21.97-.9,0-1.86-.02-2.76-.02l-10.09-.76-284.88-21.14.69-.05v-4.69l31.47,2.33,31.69,2.36,221.03,16.4,10.09.74c.9.02,1.86.05,2.76.05,23.19-.02,42.57-7.36,47.4-17.19.38-.79.69-1.57.86-2.4.21.79.31,1.6.31,2.4Z"/>
    </g>
    <line class="cls-2" x1="803.25" y1="304.69" x2="880.24" y2="227.71"/>
    <line class="cls-2" x1="880.24" y1="227.71" x2="944.53" y2="227.71"/>
    <line class="cls-2" x1="705.83" y1="229.49" x2="773.35" y2="161.97"/>
    <line class="cls-2" x1="773.35" y1="161.97" x2="944.53" y2="161.97"/>
    <line class="cls-2" x1="301.65" y1="242.3" x2="436.08" y2="107.87"/>
    <line class="cls-2" x1="436.08" y1="107.87" x2="511.42" y2="107.87"/>
    <line class="cls-2" x1="221.7" y1="228.44" x2="424.24" y2="25.9"/>
    <line class="cls-2" x1="424.56" y1="25.9" x2="540.84" y2="25.9"/>
    <line class="cls-2" x1="178.87" y1="329.83" x2="79.25" y2="230.21"/>
    <line class="cls-2" x1="79.25" y1="230.21" x2="2.26" y2="230.21"/>
    <text class="cls-3" transform="translate(880.24 223.63)"><tspan x="0" y="0">Head</tspan></text>
    <text class="cls-3" transform="translate(773.35 157.5)"><tspan class="cls-6" x="0" y="0">T</tspan><tspan class="cls-5" x="14.24" y="0">rack/Cylinder</tspan></text>
    <text class="cls-3" transform="translate(436.08 104.68)"><tspan x="0" y="0">Sector</tspan></text>
    <text class="cls-3" transform="translate(424.24 23.21)"><tspan x="0" y="0">CHS: 0,0,0</tspan></text>
    <text class="cls-3" transform="translate(0 226.08)"><tspan x="0" y="0">Platter</tspan></text>
  </g>
</svg>