<svg width="3946" height="1592" xmlns="http://www.w3.org/2000/svg" xmlns:xlink="http://www.w3.org/1999/xlink" overflow="hidden"><defs><clipPath id="clip0"><rect x="194" y="555" width="3946" height="1592"/></clipPath><clipPath id="clip1"><rect x="3655" y="1697" width="220" height="246"/></clipPath><clipPath id="clip2"><rect x="3655" y="1697" width="220" height="246"/></clipPath><clipPath id="clip3"><rect x="3655" y="1697" width="220" height="246"/></clipPath></defs><g clip-path="url(#clip0)" transform="translate(-194 -555)"><rect x="3606.5" y="1640.5" width="532" height="366" stroke="#000000" stroke-width="3.4375" stroke-linejoin="round" stroke-miterlimit="10" fill="none"/><text font-family="Calibri,Calibri_MSFontService,sans-serif" font-weight="400" font-size="55" transform="matrix(1 0 0 1 3899.32 1707)">Resource<tspan font-size="55" x="53.8084" y="66">Owner</tspan></text><rect x="2938.5" y="1406.5" width="524" height="100" stroke="#000000" stroke-width="3.4375" stroke-linejoin="round" stroke-miterlimit="10" fill="none"/><text font-family="Calibri,Calibri_MSFontService,sans-serif" font-weight="400" font-size="55" transform="matrix(1 0 0 1 2970.78 1474)">Protokoll<tspan font-size="55" x="213.285" y="0">Endpunkte</tspan></text><rect x="3606.5" y="1302.5" width="532" height="234" stroke="#000000" stroke-width="3.4375" stroke-linejoin="round" stroke-miterlimit="10" fill="none"/><text font-family="Arial,Arial_MSFontService,sans-serif" font-weight="400" font-size="55" transform="matrix(1 0 0 1 3639.17 1372)">Client</text><rect x="3641.5" y="1404.5" width="467" height="100" stroke="#000000" stroke-width="3.4375" stroke-linejoin="round" stroke-miterlimit="10" fill="none"/><text font-family="Arial,Arial_MSFontService,sans-serif" font-weight="400" font-size="55" transform="matrix(1 0 0 1 3673.96 1474)">Protocol <tspan font-size="55" x="0" y="66">Adapter</tspan></text><rect x="3606.5" y="907.5" width="532" height="234" stroke="#000000" stroke-width="3.4375" stroke-linejoin="round" stroke-miterlimit="10" fill="none"/><text font-family="Arial,Arial_MSFontService,sans-serif" font-weight="400" font-size="55" transform="matrix(1 0 0 1 3639.17 977)">Resource Server</text><rect x="3641.5" y="1009.5" width="467" height="100" stroke="#000000" stroke-width="3.4375" stroke-linejoin="round" stroke-miterlimit="10" fill="none"/><text font-family="Arial,Arial_MSFontService,sans-serif" font-weight="400" font-size="55" transform="matrix(1 0 0 1 3673.96 1079)">Policy Enforcer</text><path d="M1.14583-2.55664e-06 1.14614 138.828-1.14552 138.828-1.14583 2.55664e-06ZM13.7503 134.244 0.000360892 161.744-13.7497 134.244Z" transform="matrix(1 0 0 -1 3872 1302.74)"/><path d="M0.0135426-1.14575 155.594 0.693172 155.567 2.98468-0.0135426 1.14575ZM151.16-11.9643 178.495 2.10978 150.835 15.5338Z" transform="matrix(-1 0 0 1 3640.5 1454)"/><rect x="2886.5" y="1011.5" width="629" height="99.9997" stroke="#000000" stroke-width="3.4375" stroke-linejoin="round" stroke-miterlimit="10" fill="none"/><text font-family="Calibri,Calibri_MSFontService,sans-serif" font-weight="400" font-size="55" transform="matrix(1 0 0 1 2918.64 1079)">Authorization <tspan font-size="55" x="316.548" y="0">Endpunkte</tspan></text><path d="M2884.19 1062.25 2742.47 842.871 2744.4 841.628 2886.12 1061.01ZM2734.37 853.56 2731 823 2757.47 838.638Z"/><path d="M0.612426-0.968436 352.603 221.626 351.378 223.563-0.612426 0.968436ZM355.466 208.523 371.359 234.843 340.768 231.766Z" transform="matrix(-1 0 0 1 2937.36 1456)"/><rect x="912.5" y="556.5" width="2661" height="1400" stroke="#000000" stroke-width="3.4375" stroke-linejoin="round" stroke-miterlimit="10" fill="none"/><text font-family="Calibri,Calibri_MSFontService,sans-serif" font-weight="400" font-size="55" transform="matrix(1 0 0 1 945.215 624)">Keycloak</text><rect x="1533.5" y="711.5" width="1263" height="1100" stroke="#000000" stroke-width="3.4375" stroke-linejoin="round" stroke-miterlimit="10" fill="none"/><text font-family="Calibri,Calibri_MSFontService,sans-serif" font-weight="400" font-size="55" transform="matrix(1 0 0 1 1566.11 778)">Realm</text><rect x="1569.5" y="814.5" width="209" height="100" stroke="#000000" stroke-width="3.4375" stroke-linejoin="round" stroke-miterlimit="10" fill="none"/><text font-family="Calibri,Calibri_MSFontService,sans-serif" font-weight="400" font-size="55" transform="matrix(1 0 0 1 1601.53 881)">Config</text><rect x="2586.5" y="581.5" width="210" height="100" stroke="#000000" stroke-width="3.4375" stroke-linejoin="round" stroke-miterlimit="10" fill="none"/><text font-family="Calibri,Calibri_MSFontService,sans-serif" font-weight="400" font-size="55" transform="matrix(1 0 0 1 2618.93 648)">Config</text><rect x="2165.5" y="1608.5" width="401" height="166" stroke="#000000" stroke-width="3.4375" stroke-linejoin="round" stroke-miterlimit="10" fill="none"/><text font-family="Calibri,Calibri_MSFontService,sans-serif" font-weight="400" font-size="55" transform="matrix(1 0 0 1 2197.56 1675)">Authentication<tspan font-size="55" x="0" y="66">Engine</tspan></text><rect x="2358.5" y="739.5" width="373" height="167" stroke="#000000" stroke-width="3.4375" stroke-linejoin="round" stroke-miterlimit="10" fill="none"/><text font-family="Calibri,Calibri_MSFontService,sans-serif" font-weight="400" font-size="55" transform="matrix(1 0 0 1 2390.93 807)">Authorization<tspan font-size="55" x="0" y="66">Engine</tspan></text><rect x="1569.5" y="1608.5" width="401" height="166" stroke="#000000" stroke-width="3.4375" stroke-linejoin="round" stroke-miterlimit="10" fill="none"/><text font-family="Calibri,Calibri_MSFontService,sans-serif" font-weight="400" font-size="55" transform="matrix(1 0 0 1 1601.53 1675)">Authentication<tspan font-size="55" x="0" y="66">Flows</tspan></text><rect x="2061.5" y="938.5" width="670" height="633" stroke="#000000" stroke-width="3.4375" stroke-linejoin="round" stroke-miterlimit="10" fill="none"/><text font-family="Arial,Arial_MSFontService,sans-serif" font-weight="400" font-size="55" transform="matrix(1 0 0 1 2312.23 1008)">Clients</text><rect x="2097.5" y="1047.5" width="210" height="100" stroke="#000000" stroke-width="3.4375" stroke-linejoin="round" stroke-miterlimit="10" fill="none"/><text font-family="Arial,Arial_MSFontService,sans-serif" font-weight="400" font-size="55" transform="matrix(1 0 0 1 2129.88 1117)">Rolle<tspan font-size="55" x="0" y="66">n</tspan></text><rect x="2090.5" y="1440.5" width="210" height="99.9996" stroke="#000000" stroke-width="3.4375" stroke-linejoin="round" stroke-miterlimit="10" fill="none"/><text font-family="Arial,Arial_MSFontService,sans-serif" font-weight="400" font-size="55" transform="matrix(1 0 0 1 2122.92 1509)">Config</text><rect x="2351.5" y="1135.5" width="335" height="100" stroke="#000000" stroke-width="3.4375" stroke-linejoin="round" stroke-miterlimit="10" fill="none"/><text font-family="Arial,Arial_MSFontService,sans-serif" font-weight="400" font-size="55" transform="matrix(1 0 0 1 2383.68 1205)">Permissions</text><rect x="2351.5" y="1235.5" width="335" height="100" stroke="#000000" stroke-width="3.4375" stroke-linejoin="round" stroke-miterlimit="10" fill="none"/><text font-family="Arial,Arial_MSFontService,sans-serif" font-weight="400" font-size="55" transform="matrix(1 0 0 1 2383.68 1305)">Policies</text><rect x="2351.5" y="1335.5" width="335" height="100" stroke="#000000" stroke-width="3.4375" stroke-linejoin="round" stroke-miterlimit="10" fill="none"/><text font-family="Arial,Arial_MSFontService,sans-serif" font-weight="400" font-size="55" transform="matrix(1 0 0 1 2383.68 1405)">Scopes</text><rect x="2351.5" y="1435.5" width="335" height="100" stroke="#000000" stroke-width="3.4375" stroke-linejoin="round" stroke-miterlimit="10" fill="none"/><text font-family="Arial,Arial_MSFontService,sans-serif" font-weight="400" font-size="55" transform="matrix(1 0 0 1 2383.68 1505)">Resources</text><rect x="2329.5" y="1048.5" width="374" height="500" stroke="#000000" stroke-width="3.4375" stroke-linejoin="round" stroke-miterlimit="10" fill="none"/><text font-family="Arial,Arial_MSFontService,sans-serif" font-weight="400" font-size="55" transform="matrix(1 0 0 1 2361.95 1117)">Authorization</text><path d="M1.12267-0.229229 25.5174 119.246 23.272 119.705-1.12267 0.229229ZM36.9498 112.234 28.9793 141.929 10.0058 117.736Z" transform="matrix(-1 0 0 1 2544.98 906)"/><path d="M2.12962e-06-1.14583 171.26-1.14551 171.26 1.14615-2.12962e-06 1.14583ZM166.676-13.7497 194.176 0.000360892 166.676 13.7503Z" transform="matrix(-1 0 0 1 2164.18 1691)"/><rect x="1798.5" y="1379.5" width="171" height="100" stroke="#000000" stroke-width="3.4375" stroke-linejoin="round" stroke-miterlimit="10" fill="none"/><text font-family="Calibri,Calibri_MSFontService,sans-serif" font-weight="400" font-size="55" transform="matrix(1 0 0 1 1830.55 1446)">User</text><path d="M2163.65 1692.09 1900.61 1493.71 1901.99 1491.88 2165.03 1690.26ZM1896.68 1506.54 1883 1479 1913.24 1484.58Z"/><rect x="1750.5" y="1046.5" width="265" height="100" stroke="#000000" stroke-width="3.4375" stroke-linejoin="round" stroke-miterlimit="10" fill="none"/><text font-family="Calibri,Calibri_MSFontService,sans-serif" font-weight="400" font-size="55" transform="matrix(1 0 0 1 1783.5 1113)">Gruppen</text><rect x="1591.5" y="1193.5" width="207" height="100" stroke="#000000" stroke-width="3.4375" stroke-linejoin="round" stroke-miterlimit="10" fill="none"/><text font-family="Calibri,Calibri_MSFontService,sans-serif" font-weight="400" font-size="55" transform="matrix(1 0 0 1 1623.59 1260)">Rollen</text><path d="M1882.54 1380.25 1714.37 1303.55 1715.33 1301.47 1883.49 1378.17ZM1713.31 1316.92 1694 1293 1724.73 1291.9Z"/><path d="M1882.33 1379.16 1881.9 1168.92 1884.19 1168.91 1884.62 1379.16ZM1869.31 1173.53 1883 1146 1896.81 1173.47Z"/><path d="M0.681919-0.920826 294.202 216.446 292.838 218.287-0.681919 0.920826ZM298.02 203.589 311.937 231.005 281.654 225.689Z" transform="matrix(1 0 0 -1 1890 1378.01)"/><path d="M0.990967-0.575255 45.775 76.5721 43.793 77.7226-0.990967 0.575255ZM54.3746 66.2805 56.2891 96.9667 30.5914 80.0866Z" transform="matrix(-1 0 0 1 1750.29 1096)"/><path d="M2015.02 1094.85 2073.99 1095.77 2073.95 1098.06 2014.98 1097.15ZM2069.6 1083.09 2096.88 1097.27 2069.17 1110.59Z"/><rect x="943.5" y="1837.5" width="267" height="99" stroke="#000000" stroke-width="3.4375" stroke-linejoin="round" stroke-miterlimit="10" fill="none"/><text font-family="Calibri,Calibri_MSFontService,sans-serif" font-weight="400" font-size="55" transform="matrix(1 0 0 1 976.073 1904)">H2</text><rect x="1533.5" y="1837.5" width="1263" height="99" stroke="#000000" stroke-width="3.4375" stroke-linejoin="round" stroke-miterlimit="10" fill="none"/><text font-family="Calibri,Calibri_MSFontService,sans-serif" font-weight="400" font-size="55" transform="matrix(1 0 0 1 1983.7 1904)">Storage Adapter</text><rect x="1240.5" y="711.5" width="267" height="1100" stroke="#000000" stroke-width="3.4375" stroke-linejoin="round" stroke-miterlimit="10" fill="none"/><text font-family="Calibri,Calibri_MSFontService,sans-serif" font-weight="400" font-size="55" transform="matrix(1 0 0 1 1273.29 778)">Realm</text><rect x="943.5" y="711.5" width="267" height="1100" stroke="#000000" stroke-width="3.4375" stroke-linejoin="round" stroke-miterlimit="10" fill="none"/><text font-family="Calibri,Calibri_MSFontService,sans-serif" font-weight="400" font-size="55" transform="matrix(1 0 0 1 976.073 778)">Realm</text><rect x="1553.5" y="2031.5" width="258" height="100" stroke="#000000" stroke-width="3.4375" stroke-linejoin="round" stroke-miterlimit="10" fill="none"/><text font-family="Calibri,Calibri_MSFontService,sans-serif" font-weight="400" font-size="55" transform="matrix(1 0 0 1 1586.31 2098)">Postgres</text><rect x="1851.5" y="2030.5" width="264" height="100" stroke="#000000" stroke-width="3.4375" stroke-linejoin="round" stroke-miterlimit="10" fill="none"/><text font-family="Calibri,Calibri_MSFontService,sans-serif" font-weight="400" font-size="55" transform="matrix(1 0 0 1 1884.31 2097)">MariaDB</text><rect x="2156.5" y="2028.5" width="225" height="100" stroke="#000000" stroke-width="3.4375" stroke-linejoin="round" stroke-miterlimit="10" fill="none"/><text font-family="Calibri,Calibri_MSFontService,sans-serif" font-weight="400" font-size="55" transform="matrix(1 0 0 1 2189.08 2095)">MySQL</text><rect x="2419.5" y="2027.5" width="213" height="100" stroke="#000000" stroke-width="3.4375" stroke-linejoin="round" stroke-miterlimit="10" fill="none"/><text font-family="Calibri,Calibri_MSFontService,sans-serif" font-weight="400" font-size="55" transform="matrix(1 0 0 1 2452.42 2094)">Oracle</text><rect x="2670.5" y="2030.5" width="108" height="100" stroke="#000000" stroke-width="3.4375" stroke-linejoin="round" stroke-miterlimit="10" fill="none"/><text font-family="Calibri,Calibri_MSFontService,sans-serif" font-weight="400" font-size="55" transform="matrix(1 0 0 1 2703.05 2097)">…</text><path d="M1.28067e-06-1.14583 299.978-1.1455 299.978 1.14617-1.28067e-06 1.14583ZM295.394-13.7497 322.894 0.000360892 295.394 13.7503Z" transform="matrix(-1 0 0 1 1532.89 1886)"/><path d="M0.220098-1.1245 459.849 88.8389 459.409 91.0879-0.220098 1.1245ZM457.772 75.5891 482.119 94.3654 452.49 102.577Z" transform="matrix(-1 0 0 1 2164.12 1936)"/><path d="M0.524109-1.01894 161.581 81.8231 160.533 83.861-0.524109 1.01894ZM163.27 68.5183 181.436 93.3242 150.692 92.973Z" transform="matrix(-1 0 0 1 2164.44 1936)"/><path d="M2164.75 1935.14 2251.75 2011.29 2250.24 2013.01 2163.25 1936.86ZM2256.61 1998.78 2268.24 2027.24 2238.49 2019.48Z"/><path d="M2164.28 1934.89 2503.28 2019.81 2502.72 2022.03 2163.72 1937.11ZM2501.89 2006.47 2525.23 2026.49 2495.21 2033.14Z"/><path d="M2164.19 1934.87 2701.37 2024.43 2700.99 2026.69 2163.81 1937.13ZM2698.92 2011.24 2723.79 2029.32 2694.4 2038.36Z"/><g clip-path="url(#clip1)"><g clip-path="url(#clip2)"><g clip-path="url(#clip3)"><path d="M49.8612 180.533C69.2516 199.365 88.7417 209.887 108.391 210.485 128.081 211.083 148.189 201.677 168.795 180.652 165.805 179.955 162.617 179.277 159.249 178.6L159.249 178.619 158.771 178.52C152.872 177.344 142.09 175.172 135.295 171.047 131.429 168.695 129.237 166.403 129.296 163.255 124.195 166.304 118.834 168.257 113.334 169.034 104.944 170.23 96.3345 168.655 87.8848 164.052 88.3033 167.579 86.3503 170.05 82.6038 172.322 76.7846 175.849 67.4381 177.384 60.6027 178.5 59.0084 178.759 57.5536 178.998 56.1586 179.277 53.9665 179.656 51.874 180.074 49.8612 180.533L49.8612 180.533ZM75.848 51.7743C89.0207 74.7719 114.43 90.1367 161.64 91.8905 163.015 95.8961 162.577 100.101 161.64 104.326 142.27 170.489 92.6477 189.162 58.3507 121.664L53.2092 107.873C42.7068 86.4101 62.2767 95.1587 69.431 79.9533L72.4402 66.7407 75.848 51.7743 75.848 51.7743ZM168.795 116.98C186.85 46.8719 168.954 17.2183 136.052 11.6183 129.057 3.96578 116.024 0.498213 106.817 0 27.3021 4.02556 23.6751 88.7417 43.5837 144.542L63.1137 140.237C68.873 148.567 74.9313 155.004 81.129 159.667L81.3283 159.986C83.361 163.334 82.1454 165.606 79.4949 167.2 74.6921 170.13 65.9834 171.545 59.6062 172.581 57.7927 172.88 56.1387 173.139 54.9828 173.378 34.0977 177.464 20.4467 182.326 11.8176 192.51 3.22842 202.653 0 217.659 0 241.912 0 243.566 1.33521 244.882 2.96935 244.882L215.607 244.882C217.261 244.882 218.576 243.547 218.576 241.912 218.576 217.002 215.168 202.016 206.021 191.952 196.914 181.928 182.505 177.224 160.385 172.78L160.385 172.78 160.385 172.76 159.907 172.661C154.346 171.545 144.183 169.512 138.324 165.965 135.335 164.151 133.641 161.879 135.235 159.089 136.989 157.694 138.703 156.16 140.377 154.486 149.045 145.877 156.658 133.641 162.537 118.375L168.795 116.98 168.795 116.98ZM176.706 182.685C153.649 207.297 130.831 218.277 108.192 217.6 85.5532 216.922 63.4325 204.566 41.7702 182.525 30.1319 185.754 21.9015 189.859 16.3813 196.356 9.1472 204.885 6.2177 217.918 5.97856 238.923L212.617 238.923C212.358 217.38 209.309 204.387 201.637 195.937 196.117 189.839 188.006 185.913 176.706 182.685L176.706 182.685Z" fill-rule="evenodd" transform="matrix(1 0 0 1.00457 3655.21 1697)"/></g></g></g><path d="M3605.46 1419.01 3519.57 1083.49 3521.79 1082.92 3607.68 1418.44ZM3508.5 1091.05 3515 1061 3535.14 1084.23Z"/><path d="M1.14583-3.97107e-06 1.14611 81.217-1.14555 81.217-1.14583 3.97107e-06ZM13.7503 76.6337 0.000360892 104.134-13.7497 76.6337Z" transform="matrix(1 0 0 -1 3872 1640.13)"/><rect x="253.5" y="959.5" width="420" height="234" stroke="#000000" stroke-width="3.4375" stroke-linejoin="round" stroke-miterlimit="10" fill="none"/><text font-family="Calibri,Calibri_MSFontService,sans-serif" font-weight="400" font-size="55" transform="matrix(1 0 0 1 285.879 1027)">LDAP<tspan font-size="55" x="0" y="66">Kerberos</tspan><tspan font-size="55" x="0" y="132">AD</tspan></text><path d="M1750.8 1096.81 695.891 1077.56 695.933 1075.27 1750.84 1094.52ZM700.245 1090.25 673 1076 700.746 1062.75Z"/><path d="M1590.71 1243.74 695.342 1081.22 695.751 1078.96 1591.12 1241.48ZM697.602 1094.44 673 1076 702.514 1067.38Z"/><path d="M1797.53 1429.88 694.523 1083.95 695.209 1081.76 1798.22 1427.7ZM695.125 1097.35 673 1076 703.355 1071.11Z"/><rect x="241.5" y="1571.5" width="420" height="234" stroke="#000000" stroke-width="3.4375" stroke-linejoin="round" stroke-miterlimit="10" fill="none"/><text font-family="Calibri,Calibri_MSFontService,sans-serif" font-weight="400" font-size="55" transform="matrix(1 0 0 1 273.76 1639)">Google<tspan font-size="55" x="0" y="66">Keycloak</tspan><tspan font-size="55" x="0" y="132">…</tspan></text><path d="M1568.97 1692.12 683.912 1689.22 683.919 1686.93 1568.98 1689.83ZM688.455 1701.84 661 1688 688.545 1674.34Z"/><rect x="197.5" y="859.5" width="510" height="367" stroke="#000000" stroke-width="3.4375" stroke-linejoin="round" stroke-miterlimit="10" fill="none"/><text font-family="Calibri,Calibri_MSFontService,sans-serif" font-weight="400" font-size="55" transform="matrix(1 0 0 1 229.525 927)">Federated Identity</text><rect x="195.5" y="1463.5" width="510" height="367" stroke="#000000" stroke-width="3.4375" stroke-linejoin="round" stroke-miterlimit="10" fill="none"/><text font-family="Calibri,Calibri_MSFontService,sans-serif" font-weight="400" font-size="55" transform="matrix(1 0 0 1 227.519 1531)">Identity Provider</text></g></svg>