<svg width="3465" height="1592" xmlns="http://www.w3.org/2000/svg" xmlns:xlink="http://www.w3.org/1999/xlink" xml:space="preserve" overflow="hidden"><g transform="translate(-468 -555)"><rect x="3400.5" y="1640.5" width="531" height="366" stroke="#000000" stroke-width="3.4375" stroke-linejoin="round" stroke-miterlimit="10" fill="none"/><text font-family="Calibri,Calibri_MSFontService,sans-serif" font-weight="400" font-size="55" transform="matrix(1 0 0 1 3692.66 1707)">Resource</text><text font-family="Calibri,Calibri_MSFontService,sans-serif" font-weight="400" font-size="55" transform="matrix(1 0 0 1 3746.47 1773)">Owner</text><rect x="2494.5" y="1406.5" width="525" height="100" stroke="#000000" stroke-width="3.4375" stroke-linejoin="round" stroke-miterlimit="10" fill="none"/><text font-family="Calibri,Calibri_MSFontService,sans-serif" font-weight="400" font-size="55" transform="matrix(1 0 0 1 2527.45 1474)">Protokoll</text><text font-family="Calibri,Calibri_MSFontService,sans-serif" font-weight="400" font-size="55" transform="matrix(1 0 0 1 2740.73 1474)">Endpunkte</text><rect x="3400.5" y="1302.5" width="531" height="234" stroke="#000000" stroke-width="3.4375" stroke-linejoin="round" stroke-miterlimit="10" fill="none"/><text font-family="Calibri,Calibri_MSFontService,sans-serif" font-weight="400" font-size="55" transform="matrix(1 0 0 1 3432.51 1370)">Client</text><rect x="3434.5" y="1404.5" width="468" height="100" stroke="#000000" stroke-width="3.4375" stroke-linejoin="round" stroke-miterlimit="10" fill="none"/><text font-family="Calibri,Calibri_MSFontService,sans-serif" font-weight="400" font-size="55" transform="matrix(1 0 0 1 3467.3 1472)">Protocol Adapter</text><rect x="3400.5" y="907.5" width="531" height="234" stroke="#000000" stroke-width="3.4375" stroke-linejoin="round" stroke-miterlimit="10" fill="none"/><text font-family="Calibri,Calibri_MSFontService,sans-serif" font-weight="400" font-size="55" transform="matrix(1 0 0 1 3432.51 975)">Resource Server</text><rect x="3434.5" y="1009.5" width="468" height="100" stroke="#000000" stroke-width="3.4375" stroke-linejoin="round" stroke-miterlimit="10" fill="none"/><text font-family="Calibri,Calibri_MSFontService,sans-serif" font-weight="400" font-size="55" transform="matrix(1 0 0 1 3467.3 1077)">Policy Enforcer</text><path d="M1.14583-2.55664e-06 1.14614 138.828-1.14552 138.828-1.14583 2.55664e-06ZM13.7503 134.244 0.000360892 161.744-13.7497 134.244Z" transform="matrix(1 0 0 -1 3665 1302.74)"/><path d="M0.00582283-1.14582 392.252 0.847501 392.24 3.13914-0.00582283 1.14582ZM387.733-11.7798 415.163 2.10978 387.593 15.7199Z" transform="matrix(-1 0 0 1 3434.16 1454)"/><rect x="2442.5" y="1011.5" width="629" height="99.9997" stroke="#000000" stroke-width="3.4375" stroke-linejoin="round" stroke-miterlimit="10" fill="none"/><text font-family="Calibri,Calibri_MSFontService,sans-serif" font-weight="400" font-size="55" transform="matrix(1 0 0 1 2475.31 1079)">Authorization </text><text font-family="Calibri,Calibri_MSFontService,sans-serif" font-weight="400" font-size="55" transform="matrix(1 0 0 1 2791.86 1079)">Endpunkte</text><path d="M2441.19 1062.25 2299.47 842.871 2301.4 841.628 2443.12 1061.01ZM2291.37 853.56 2288 823 2314.47 838.638Z"/><path d="M0.612426-0.968436 352.603 221.626 351.378 223.563-0.612426 0.968436ZM355.466 208.523 371.359 234.843 340.768 231.766Z" transform="matrix(-1 0 0 1 2494.36 1456)"/><rect x="469.5" y="556.5" width="1916" height="1400" stroke="#000000" stroke-width="3.4375" stroke-linejoin="round" stroke-miterlimit="10" fill="none"/><text font-family="Calibri,Calibri_MSFontService,sans-serif" font-weight="400" font-size="55" transform="matrix(1 0 0 1 501.881 624)">Keycloak</text><rect x="1090.5" y="711.5" width="1262" height="1100" stroke="#000000" stroke-width="3.4375" stroke-linejoin="round" stroke-miterlimit="10" fill="none"/><text font-family="Calibri,Calibri_MSFontService,sans-serif" font-weight="400" font-size="55" transform="matrix(1 0 0 1 1122.77 778)">Realm</text><rect x="1125.5" y="814.5" width="210" height="100" stroke="#000000" stroke-width="3.4375" stroke-linejoin="round" stroke-miterlimit="10" fill="none"/><text font-family="Calibri,Calibri_MSFontService,sans-serif" font-weight="400" font-size="55" transform="matrix(1 0 0 1 1158.2 881)">Config</text><rect x="2143.5" y="581.5" width="209" height="100" stroke="#000000" stroke-width="3.4375" stroke-linejoin="round" stroke-miterlimit="10" fill="none"/><text font-family="Calibri,Calibri_MSFontService,sans-serif" font-weight="400" font-size="55" transform="matrix(1 0 0 1 2175.59 648)">Config</text><rect x="1721.5" y="1608.5" width="402" height="166" stroke="#000000" stroke-width="3.4375" stroke-linejoin="round" stroke-miterlimit="10" fill="none"/><text font-family="Calibri,Calibri_MSFontService,sans-serif" font-weight="400" font-size="55" transform="matrix(1 0 0 1 1754.23 1675)">Authentication</text><text font-family="Calibri,Calibri_MSFontService,sans-serif" font-weight="400" font-size="55" transform="matrix(1 0 0 1 1754.23 1741)">Engine</text><rect x="1915.5" y="739.5" width="373" height="167" stroke="#000000" stroke-width="3.4375" stroke-linejoin="round" stroke-miterlimit="10" fill="none"/><text font-family="Calibri,Calibri_MSFontService,sans-serif" font-weight="400" font-size="55" transform="matrix(1 0 0 1 1947.6 807)">Authorization</text><text font-family="Calibri,Calibri_MSFontService,sans-serif" font-weight="400" font-size="55" transform="matrix(1 0 0 1 1947.6 873)">Engine</text><rect x="1125.5" y="1608.5" width="402" height="166" stroke="#000000" stroke-width="3.4375" stroke-linejoin="round" stroke-miterlimit="10" fill="none"/><text font-family="Calibri,Calibri_MSFontService,sans-serif" font-weight="400" font-size="55" transform="matrix(1 0 0 1 1158.2 1675)">Authentication</text><text font-family="Calibri,Calibri_MSFontService,sans-serif" font-weight="400" font-size="55" transform="matrix(1 0 0 1 1158.2 1741)">Flows</text><rect x="1617.5" y="938.5" width="671" height="633" stroke="#000000" stroke-width="3.4375" stroke-linejoin="round" stroke-miterlimit="10" fill="none"/><text font-family="Calibri,Calibri_MSFontService,sans-serif" font-weight="400" font-size="55" transform="matrix(1 0 0 1 1877.47 1006)">Clients</text><rect x="1654.5" y="1047.5" width="209" height="100" stroke="#000000" stroke-width="3.4375" stroke-linejoin="round" stroke-miterlimit="10" fill="none"/><text font-family="Calibri,Calibri_MSFontService,sans-serif" font-weight="400" font-size="55" transform="matrix(1 0 0 1 1686.54 1115)">Rollen</text><rect x="1647.5" y="1440.5" width="209" height="99.9996" stroke="#000000" stroke-width="3.4375" stroke-linejoin="round" stroke-miterlimit="10" fill="none"/><text font-family="Calibri,Calibri_MSFontService,sans-serif" font-weight="400" font-size="55" transform="matrix(1 0 0 1 1679.59 1507)">Config</text><rect x="1907.5" y="1135.5" width="336" height="100" stroke="#000000" stroke-width="3.4375" stroke-linejoin="round" stroke-miterlimit="10" fill="none"/><text font-family="Calibri,Calibri_MSFontService,sans-serif" font-weight="400" font-size="55" transform="matrix(1 0 0 1 1940.34 1203)">Permissions</text><rect x="1907.5" y="1235.5" width="336" height="100" stroke="#000000" stroke-width="3.4375" stroke-linejoin="round" stroke-miterlimit="10" fill="none"/><text font-family="Calibri,Calibri_MSFontService,sans-serif" font-weight="400" font-size="55" transform="matrix(1 0 0 1 1940.34 1303)">Policies</text><rect x="1907.5" y="1335.5" width="336" height="100" stroke="#000000" stroke-width="3.4375" stroke-linejoin="round" stroke-miterlimit="10" fill="none"/><text font-family="Calibri,Calibri_MSFontService,sans-serif" font-weight="400" font-size="55" transform="matrix(1 0 0 1 1940.34 1403)">Scopes</text><rect x="1907.5" y="1435.5" width="336" height="100" stroke="#000000" stroke-width="3.4375" stroke-linejoin="round" stroke-miterlimit="10" fill="none"/><text font-family="Calibri,Calibri_MSFontService,sans-serif" font-weight="400" font-size="55" transform="matrix(1 0 0 1 1940.34 1503)">Resources</text><rect x="1886.5" y="1048.5" width="373" height="500" stroke="#000000" stroke-width="3.4375" stroke-linejoin="round" stroke-miterlimit="10" fill="none"/><text font-family="Calibri,Calibri_MSFontService,sans-serif" font-weight="400" font-size="55" transform="matrix(1 0 0 1 1918.62 1115)">Authorization</text><path d="M1.12267-0.229229 25.5174 119.246 23.272 119.705-1.12267 0.229229ZM36.9498 112.234 28.9793 141.929 10.0058 117.736Z" transform="matrix(-1 0 0 1 2100.98 906)"/><path d="M2.12962e-06-1.14583 171.26-1.14551 171.26 1.14615-2.12962e-06 1.14583ZM166.676-13.7497 194.176 0.000360892 166.676 13.7503Z" transform="matrix(-1 0 0 1 1721.18 1691)"/><rect x="1354.5" y="1379.5" width="172" height="100" stroke="#000000" stroke-width="3.4375" stroke-linejoin="round" stroke-miterlimit="10" fill="none"/><text font-family="Calibri,Calibri_MSFontService,sans-serif" font-weight="400" font-size="55" transform="matrix(1 0 0 1 1387.21 1446)">User</text><path d="M1720.65 1692.09 1457.61 1493.71 1458.99 1491.88 1722.03 1690.26ZM1453.68 1506.54 1440 1479 1470.24 1484.58Z"/><rect x="1307.5" y="1046.5" width="265" height="100" stroke="#000000" stroke-width="3.4375" stroke-linejoin="round" stroke-miterlimit="10" fill="none"/><text font-family="Calibri,Calibri_MSFontService,sans-serif" font-weight="400" font-size="55" transform="matrix(1 0 0 1 1340.17 1113)">Gruppen</text><rect x="1147.5" y="1193.5" width="207" height="100" stroke="#000000" stroke-width="3.4375" stroke-linejoin="round" stroke-miterlimit="10" fill="none"/><text font-family="Calibri,Calibri_MSFontService,sans-serif" font-weight="400" font-size="55" transform="matrix(1 0 0 1 1180.25 1260)">Rollen</text><path d="M1439.54 1380.25 1271.37 1303.55 1272.33 1301.47 1440.49 1378.17ZM1270.31 1316.92 1251 1293 1281.73 1291.9Z"/><path d="M1438.33 1379.16 1437.9 1168.92 1440.19 1168.91 1440.62 1379.16ZM1425.31 1173.53 1439 1146 1452.81 1173.47Z"/><path d="M0.681919-0.920826 294.202 216.446 292.838 218.287-0.681919 0.920826ZM298.02 203.589 311.937 231.005 281.654 225.689Z" transform="matrix(1 0 0 -1 1447 1378.01)"/><path d="M0.990967-0.575255 45.775 76.5721 43.793 77.7226-0.990967 0.575255ZM54.3746 66.2805 56.2891 96.9667 30.5914 80.0866Z" transform="matrix(-1 0 0 1 1307.29 1096)"/><path d="M1572.02 1094.85 1630.99 1095.77 1630.95 1098.06 1571.98 1097.15ZM1626.6 1083.09 1653.88 1097.27 1626.17 1110.59Z"/><rect x="500.5" y="1837.5" width="267" height="99" stroke="#000000" stroke-width="3.4375" stroke-linejoin="round" stroke-miterlimit="10" fill="none"/><text font-family="Calibri,Calibri_MSFontService,sans-serif" font-weight="400" font-size="55" transform="matrix(1 0 0 1 532.739 1904)">H2</text><rect x="1090.5" y="1837.5" width="1262" height="99" stroke="#000000" stroke-width="3.4375" stroke-linejoin="round" stroke-miterlimit="10" fill="none"/><text font-family="Calibri,Calibri_MSFontService,sans-serif" font-weight="400" font-size="55" transform="matrix(1 0 0 1 1540.37 1904)">Storage Adapter</text><rect x="797.5" y="711.5" width="267" height="1100" stroke="#000000" stroke-width="3.4375" stroke-linejoin="round" stroke-miterlimit="10" fill="none"/><text font-family="Calibri,Calibri_MSFontService,sans-serif" font-weight="400" font-size="55" transform="matrix(1 0 0 1 829.958 778)">Realm</text><rect x="500.5" y="711.5" width="267" height="1100" stroke="#000000" stroke-width="3.4375" stroke-linejoin="round" stroke-miterlimit="10" fill="none"/><text font-family="Calibri,Calibri_MSFontService,sans-serif" font-weight="400" font-size="55" transform="matrix(1 0 0 1 532.739 778)">Realm</text><rect x="1110.5" y="2031.5" width="258" height="100" stroke="#000000" stroke-width="3.4375" stroke-linejoin="round" stroke-miterlimit="10" fill="none"/><text font-family="Calibri,Calibri_MSFontService,sans-serif" font-weight="400" font-size="55" transform="matrix(1 0 0 1 1142.97 2098)">Postgres</text><rect x="1408.5" y="2030.5" width="263" height="100" stroke="#000000" stroke-width="3.4375" stroke-linejoin="round" stroke-miterlimit="10" fill="none"/><text font-family="Calibri,Calibri_MSFontService,sans-serif" font-weight="400" font-size="55" transform="matrix(1 0 0 1 1440.97 2097)">MariaDB</text><rect x="1713.5" y="2028.5" width="225" height="100" stroke="#000000" stroke-width="3.4375" stroke-linejoin="round" stroke-miterlimit="10" fill="none"/><text font-family="Calibri,Calibri_MSFontService,sans-serif" font-weight="400" font-size="55" transform="matrix(1 0 0 1 1745.74 2095)">MySQL</text><rect x="1976.5" y="2027.5" width="213" height="100" stroke="#000000" stroke-width="3.4375" stroke-linejoin="round" stroke-miterlimit="10" fill="none"/><text font-family="Calibri,Calibri_MSFontService,sans-serif" font-weight="400" font-size="55" transform="matrix(1 0 0 1 2009.08 2094)">Oracle</text><rect x="2227.5" y="2030.5" width="108" height="100" stroke="#000000" stroke-width="3.4375" stroke-linejoin="round" stroke-miterlimit="10" fill="none"/><text font-family="Calibri,Calibri_MSFontService,sans-serif" font-weight="400" font-size="55" transform="matrix(1 0 0 1 2259.72 2097)">…</text><path d="M1.28067e-06-1.14583 299.978-1.1455 299.978 1.14617-1.28067e-06 1.14583ZM295.394-13.7497 322.894 0.000360892 295.394 13.7503Z" transform="matrix(-1 0 0 1 1089.89 1886)"/><path d="M0.220098-1.1245 459.849 88.8389 459.409 91.0879-0.220098 1.1245ZM457.772 75.5891 482.119 94.3654 452.49 102.577Z" transform="matrix(-1 0 0 1 1721.12 1936)"/><path d="M0.524109-1.01894 161.581 81.8231 160.533 83.861-0.524109 1.01894ZM163.27 68.5183 181.436 93.3242 150.692 92.973Z" transform="matrix(-1 0 0 1 1721.44 1936)"/><path d="M1721.75 1935.14 1808.75 2011.29 1807.24 2013.01 1720.25 1936.86ZM1813.61 1998.78 1825.24 2027.24 1795.49 2019.48Z"/><path d="M1721.28 1934.89 2060.28 2019.81 2059.72 2022.03 1720.72 1937.11ZM2058.89 2006.47 2082.23 2026.49 2052.21 2033.14Z"/><path d="M1721.19 1934.87 2258.37 2024.43 2257.99 2026.69 1720.81 1937.13ZM2255.92 2011.24 2280.79 2029.32 2251.4 2038.36Z"/><g><g><g><path d="M49.8612 180.533C69.2516 199.365 88.7417 209.887 108.391 210.485 128.081 211.083 148.189 201.677 168.795 180.652 165.805 179.955 162.617 179.277 159.249 178.6L159.249 178.619 158.771 178.52C152.872 177.344 142.09 175.172 135.295 171.047 131.429 168.695 129.237 166.403 129.296 163.255 124.195 166.304 118.834 168.257 113.334 169.034 104.944 170.23 96.3345 168.655 87.8848 164.052 88.3033 167.579 86.3503 170.05 82.6038 172.322 76.7846 175.849 67.4381 177.384 60.6027 178.5 59.0084 178.759 57.5536 178.998 56.1586 179.277 53.9665 179.656 51.874 180.074 49.8612 180.533L49.8612 180.533ZM75.848 51.7743C89.0207 74.7719 114.43 90.1367 161.64 91.8905 163.015 95.8961 162.577 100.101 161.64 104.326 142.27 170.489 92.6477 189.162 58.3507 121.664L53.2092 107.873C42.7068 86.4101 62.2767 95.1587 69.431 79.9533L72.4402 66.7407 75.848 51.7743 75.848 51.7743ZM168.795 116.98C186.85 46.8719 168.954 17.2183 136.052 11.6183 129.057 3.96578 116.024 0.498213 106.817 0 27.3021 4.02556 23.6751 88.7417 43.5837 144.542L63.1137 140.237C68.873 148.567 74.9313 155.004 81.129 159.667L81.3283 159.986C83.361 163.334 82.1454 165.606 79.4949 167.2 74.6921 170.13 65.9834 171.545 59.6062 172.581 57.7927 172.88 56.1387 173.139 54.9828 173.378 34.0977 177.464 20.4467 182.326 11.8176 192.51 3.22842 202.653 0 217.659 0 241.912 0 243.566 1.33521 244.882 2.96935 244.882L215.607 244.882C217.261 244.882 218.576 243.547 218.576 241.912 218.576 217.002 215.168 202.016 206.021 191.952 196.914 181.928 182.505 177.224 160.385 172.78L160.385 172.78 160.385 172.76 159.907 172.661C154.346 171.545 144.183 169.512 138.324 165.965 135.335 164.151 133.641 161.879 135.235 159.089 136.989 157.694 138.703 156.16 140.377 154.486 149.045 145.877 156.658 133.641 162.537 118.375L168.795 116.98 168.795 116.98ZM176.706 182.685C153.649 207.297 130.831 218.277 108.192 217.6 85.5532 216.922 63.4325 204.566 41.7702 182.525 30.1319 185.754 21.9015 189.859 16.3813 196.356 9.1472 204.885 6.2177 217.918 5.97856 238.923L212.617 238.923C212.358 217.38 209.309 204.387 201.637 195.937 196.117 189.839 188.006 185.913 176.706 182.685L176.706 182.685Z" fill-rule="evenodd" transform="matrix(1 0 0 1.00457 3448.21 1697)"/></g></g></g><path d="M0.00704517-1.14581 340.118 0.945405 340.104 3.23703-0.00704517 1.14581ZM335.612-11.6867 363.027 2.23212 335.443 15.8128Z" transform="matrix(-1 0 0 1 3434.03 1059)"/><path d="M1.14583-3.97107e-06 1.14611 81.217-1.14555 81.217-1.14583 3.97107e-06ZM13.7503 76.6337 0.000360892 104.134-13.7497 76.6337Z" transform="matrix(1 0 0 -1 3665 1640.13)"/></g></svg>