<?xml version="1.0" encoding="UTF-8"?><svg id="Layer_2" xmlns="http://www.w3.org/2000/svg" viewBox="0 0 1003.83 1003.72"><defs><style>.cls-1{opacity:.2;}.cls-2{fill:#ff7f00;}.cls-3{fill:#0080ff;}</style></defs><g id="Layer_1-2"><path class="cls-3" d="M998.57,934.47c-8.54,25.66-26.59,46.46-50.77,58.56-14,6.99-29.64,10.69-45.26,10.69-38.62,0-73.33-21.45-90.61-55.99L411.33,146.55c-24.97-49.95-4.65-110.9,45.3-135.87,49.95-24.96,110.88-4.65,135.86,45.3l400.59,801.19c12.1,24.2,14.05,51.65,5.49,77.31Z"/><path class="cls-2" d="M962.01,402.2c-.07.35-.13.7-.21,1.04-5.22,26.13-20.19,48.77-42.25,63.8l-90.63,61.8-168.86,115.15-388.9,265.2-109.18,74.45-3.62,2.47c-.53.36-1.06.72-1.59,1.06-.32.21-.63.42-.95.62-.55.35-1.1.7-1.65,1.03-1.36.84-2.73,1.63-4.11,2.39-.47.27-.95.53-1.44.78-.02.01-.04.02-.06.03-.55.3-1.1.58-1.66.86-2.82,1.43-5.71,2.72-8.64,3.88-.74.29-1.47.57-2.22.84-.1.04-.21.08-.33.12-.69.25-1.39.49-2.09.73-.04.01-.09.03-.14.04-.77.26-1.53.51-2.3.75-.02,0-.03.01-.04.01-.8.25-1.61.48-2.42.71-.65.19-1.31.36-1.97.53-.96.25-1.93.49-2.9.71-.73.17-1.46.33-2.2.47-.09.02-.17.04-.26.06-.39.08-.78.15-1.17.23-.62.12-1.24.23-1.86.33-.62.11-1.24.21-1.87.3-.62.09-1.24.18-1.87.26-.62.09-1.24.16-1.86.23-.38.04-.76.08-1.14.12-.02,0-.05.01-.07.01-.43.04-.86.08-1.3.12-.59.05-1.18.1-1.78.14-2.36.17-4.74.25-7.12.25-.58,0-1.15,0-1.73-.01-.47-.01-.94-.02-1.41-.04-.96-.03-1.91-.07-2.86-.13-.37-.02-.74-.04-1.11-.07-.58-.04-1.15-.09-1.73-.14-.32-.02-.64-.05-.96-.09-.37-.03-.74-.07-1.11-.11-.48-.05-.97-.11-1.46-.17-.28-.03-.56-.07-.84-.11-.48-.06-.96-.13-1.45-.2-.48-.07-.96-.14-1.45-.22-.96-.16-1.92-.33-2.89-.51-.48-.09-.96-.18-1.44-.28-.47-.1-.95-.2-1.43-.31s-.95-.22-1.43-.33c-.71-.16-1.42-.34-2.12-.52-.71-.18-1.41-.37-2.11-.57,0,0-.02,0-.03-.01-1.88-.53-3.75-1.11-5.59-1.76-.47-.16-.93-.32-1.39-.49-.46-.17-.92-.34-1.37-.51-.88-.33-1.75-.67-2.62-1.03-.4-.16-.8-.33-1.19-.49-.47-.21-.94-.41-1.4-.62-.52-.22-1.04-.45-1.55-.7-.89-.41-1.77-.83-2.64-1.27-.38-.19-.76-.38-1.13-.57s-.75-.38-1.12-.59c-.64-.33-1.28-.68-1.9-1.03-.64-.35-1.26-.71-1.88-1.08-.27-.15-.54-.31-.8-.48-.61-.36-1.21-.73-1.81-1.1-.5-.32-1-.64-1.49-.96-.36-.23-.71-.46-1.07-.7l-1.32-.9c-.39-.28-.79-.56-1.18-.84-.59-.43-1.19-.86-1.77-1.3-.64-.48-1.27-.96-1.9-1.46-.52-.41-1.05-.83-1.56-1.25-.57-.47-1.13-.94-1.69-1.42-.49-.42-.97-.84-1.45-1.26-.07-.07-.14-.13-.21-.19-.46-.41-.91-.82-1.36-1.25-.63-.58-1.25-1.17-1.86-1.77-.53-.52-1.05-1.04-1.57-1.57-.52-.53-1.03-1.06-1.54-1.6-.02-.02-.04-.05-.07-.07-.48-.52-.96-1.04-1.43-1.57-.5-.55-.99-1.11-1.47-1.67-.74-.86-1.46-1.73-2.17-2.62-.31-.38-.61-.76-.92-1.15-.33-.44-.66-.88-.99-1.31-.32-.42-.63-.84-.93-1.26-.23-.3-.45-.61-.67-.92-.38-.54-.76-1.09-1.14-1.64-.53-.78-1.06-1.57-1.57-2.37-.33-.51-.65-1.03-.97-1.55-.41-.66-.81-1.32-1.2-1.99s-.77-1.34-1.15-2.01c-.26-.47-.52-.94-.77-1.42-.32-.59-.63-1.19-.94-1.79-.39-.77-.78-1.54-1.15-2.32-.43-.89-.84-1.79-1.25-2.7-.28-.64-.56-1.28-.82-1.92-.35-.82-.68-1.64-1-2.47-.29-.74-.57-1.48-.83-2.22-.66-1.81-1.26-3.64-1.81-5.48-.16-.52-.31-1.04-.45-1.56-.44-1.56-.83-3.13-1.19-4.7-.13-.57-.26-1.14-.38-1.72-.02-.11-.04-.21-.06-.32-.11-.49-.21-.99-.3-1.48-.15-.79-.29-1.58-.42-2.38-.12-.72-.24-1.45-.34-2.18-.02-.13-.04-.26-.06-.39-.23-1.62-.41-3.25-.55-4.89-.08-.85-.14-1.71-.2-2.56-.03-.53-.06-1.06-.09-1.58-.05-.99-.08-1.97-.1-2.96-.01-.61-.02-1.22-.02-1.83,0-6.34.59-12.72,1.79-19.08.18-.95.37-1.89.58-2.83.13-.59.26-1.17.4-1.75.25-1.1.53-2.19.83-3.27.17-.65.36-1.3.55-1.94.23-.8.47-1.6.73-2.39.25-.79.51-1.57.78-2.35.19-.54.38-1.08.58-1.62.03-.09.07-.18.1-.27.07-.18.13-.36.2-.53.33-.87.66-1.74,1.01-2.6.18-.44.36-.87.54-1.3.17-.39.33-.78.51-1.17.23-.55.48-1.09.73-1.63.03-.08.06-.15.1-.22.24-.53.49-1.05.74-1.57.55-1.14,1.12-2.27,1.72-3.38.09-.17.19-.35.29-.52.26-.5.52-.99.8-1.47.23-.43.47-.85.72-1.27.32-.55.64-1.09.98-1.63.08-.16.18-.32.28-.48.93-1.54,1.92-3.05,2.94-4.53.05-.07.1-.13.14-.2.35-.51.71-1.01,1.07-1.51.1-.14.2-.28.3-.41.35-.48.7-.96,1.06-1.43.36-.48.73-.96,1.1-1.43.12-.16.25-.31.37-.47.43-.54.87-1.08,1.31-1.61.97-1.18,1.97-2.33,3.01-3.45.41-.46.84-.93,1.28-1.38.2-.23.41-.45.64-.67.49-.53,1.01-1.05,1.53-1.57l.42-.42c.58-.57,1.17-1.14,1.77-1.69.83-.79,1.68-1.56,2.55-2.31.69-.61,1.38-1.2,2.09-1.78.31-.27.63-.53.96-.78.32-.28.65-.54.98-.78.51-.42,1.03-.82,1.56-1.21.11-.09.22-.18.33-.25.56-.43,1.14-.85,1.72-1.27.71-.51,1.42-1.02,2.15-1.51l38.95-26.56,282.9-192.91,202.54-138.12,168.87-115.16,67.93-46.32c22.34-15.23,49.29-20.87,75.87-15.83,26.59,5.02,49.61,20.1,64.86,42.45,15.23,22.34,20.85,49.29,15.83,75.87Z"/><path class="cls-3" d="M592.49,146.55l-226.38,452.76-174.22,348.42c-7.24,14.47-17.54,26.65-29.91,35.91-11.9,8.91-25.72,15.13-40.56,18.09h-.03c-.39.08-.78.15-1.17.23-.62.12-1.24.23-1.86.33-.62.11-1.24.21-1.87.3-.62.09-1.24.18-1.87.26-.62.09-1.24.16-1.86.23-.38.04-.76.08-1.14.12-.45.05-.91.09-1.37.13-.59.05-1.18.1-1.78.14-2.36.17-4.74.25-7.12.25-.58,0-1.15,0-1.73-.01-.47-.01-.94-.02-1.41-.04-1.91-.06-3.81-.17-5.7-.34-.32-.02-.64-.05-.96-.09-.37-.03-.74-.07-1.11-.11-.48-.05-.97-.11-1.46-.17-.28-.03-.56-.07-.84-.11-.48-.06-.96-.13-1.45-.2-.48-.07-.96-.14-1.45-.22-.96-.16-1.92-.33-2.89-.51-.96-.18-1.91-.38-2.87-.59-.48-.11-.95-.22-1.43-.33-1.42-.34-2.83-.7-4.23-1.09,0,0-.02,0-.03-.01-1.88-.54-3.75-1.12-5.59-1.76-.47-.16-.93-.32-1.39-.49-.46-.17-.92-.34-1.37-.51-1.76-.66-3.49-1.38-5.21-2.14-.52-.22-1.04-.45-1.55-.7-.89-.41-1.77-.83-2.64-1.27-.76-.38-1.51-.76-2.25-1.16-1.28-.68-2.54-1.38-3.78-2.11-.27-.15-.54-.31-.8-.48-.61-.36-1.21-.73-1.81-1.1-.5-.32-1-.64-1.49-.96-.36-.23-.71-.46-1.07-.7l-1.32-.9c-.39-.28-.79-.56-1.18-.84-12.27-8.73-22.33-20.04-29.59-33.2-.59-1.06-1.16-2.13-1.71-3.21-2.25-4.45-4.19-9.09-5.79-13.9-2.78-8.33-4.45-16.85-5.02-25.39-.92-13.52.92-27.07,5.45-39.98.19-.54.38-1.08.58-1.62.1-.27.2-.54.3-.8,1.23-3.22,2.62-6.4,4.18-9.52l1.17-2.35L411.33,55.97c20.9-41.8,66.98-62.83,110.72-53.97h.01c8.53,1.73,16.98,4.6,25.13,8.67,49.95,24.98,70.27,85.93,45.3,135.88Z"/></g><g id="Layer_3"><g class="cls-1"><polygon points="843.84 558.67 674.97 673.82 660.06 643.99 828.92 528.84 843.84 558.67"/></g><g class="cls-1"><path d="M426.8,557.92l-185.99,371.96-78.83,53.76c12.37-9.26,22.67-21.44,29.91-35.91l174.22-348.42,60.69-41.39Z"/></g></g></svg>